<svg width="247" height="132" viewBox="0 0 247 132" fill="none" xmlns="http://www.w3.org/2000/svg">
<path fill-rule="evenodd" clip-rule="evenodd" d="M158.702 107.146C158.939 112.812 158.911 117.186 158.904 117.898C158.903 117.974 158.905 118.037 158.909 118.113C158.963 119.239 159.273 128.462 154.929 130.578C150.079 132.942 143.094 124.655 142.036 123.35C141.941 123.233 141.858 123.141 141.75 123.036C140.634 121.962 133.466 114.948 127.081 106.029L129.003 113.972C129.206 114.81 129.039 115.695 128.544 116.401L125.442 120.833C123.957 122.954 120.577 122.342 119.671 119.917C119.246 118.778 118.769 117.661 118.259 116.731C117.816 115.921 117.455 115.197 117.128 114.541C115.825 111.924 115.06 110.388 111.717 108.853C105.347 105.928 100.335 110.006 95.0281 114.59C93.4589 115.945 91.7782 117.734 90.3365 119.378C88.7298 121.211 85.5404 120.672 84.5402 118.449C82.9714 114.963 80.5885 110.67 77.6112 108.379C72.3502 104.332 67.9482 103.123 61.3239 103.529C54.6085 103.94 50.4204 105.839 45.567 110.503C45.2051 110.851 44.8503 111.238 44.5044 111.652C42.4911 114.066 36.7023 113.432 35.4635 110.543C34.3021 107.834 32.7537 105.287 30.7158 103.692C25.8907 99.9144 21.7597 99.5046 15.6347 99.3708C12.398 99.3001 8.36599 100.327 5.17907 101.355C2.87126 102.1 0.479875 100.095 1.09646 97.7483C1.47888 96.2927 1.91589 94.7859 2.36618 93.5423C6.50174 82.121 10.7635 75.4423 20.6377 68.3761C28.3326 62.8694 33.8068 60.6392 43.2051 59.5691C52.3822 58.5243 58.2344 60.5035 66.1696 63.1872L66.1697 63.1873C67.4979 63.6365 68.8845 64.1054 70.3548 64.5832C75.6054 66.2895 79.5178 68.4855 83.2844 70.5998C88.2369 73.3795 92.9374 76.018 100.097 77.216C105.048 78.0447 111.593 78.4655 115.919 78.6671C115.956 78.2922 116.021 77.9014 116.116 77.4892C116.183 77.204 116.281 76.8848 116.39 76.5673C116.785 75.424 116.599 74.136 115.779 73.2472L110.597 67.6329C108.824 65.7112 110.187 62.5983 112.802 62.5983H116.589C117.857 62.5983 118.985 61.7988 119.522 60.6503C120.215 59.171 121.299 57.2118 122.585 56.124C124.401 54.5883 125.816 54.1884 128.095 53.5442L128.13 53.5343C130.873 52.7588 134.896 53.0773 137.028 53.3323C137.948 53.4423 138.879 53.1681 139.562 52.5422L141.123 51.1119C143.047 49.3484 146.15 50.7135 146.15 53.3236V60.9731C146.15 61.987 146.665 62.9284 147.491 63.5163C148.091 63.9439 148.778 64.4571 149.292 64.9106C149.37 64.9794 149.447 65.0484 149.523 65.1175C151.643 63.0442 153.8 60.827 155.54 58.8083C160.28 53.307 162.21 48.2708 164.243 42.9647C165.79 38.929 167.396 34.7373 170.344 30.0661C171.169 28.758 171.936 27.5102 172.671 26.315C177.059 19.1747 180.296 13.9086 188.021 8.84108C195.932 3.65142 201.566 1.86448 211.001 1.1765C223.107 0.293669 230.65 2.70344 241.125 8.84108C242.266 9.50983 243.565 10.3898 244.79 11.2652C246.763 12.6755 246.204 15.7446 243.953 16.6481C240.845 17.8961 237.088 19.6864 234.643 21.8119C230.018 25.8332 227.103 28.7912 225.805 34.7828C225.256 37.3143 225.693 40.2651 226.53 43.092C227.423 46.1055 223.374 50.294 220.283 49.7257C219.753 49.6282 219.234 49.5582 218.734 49.5224C212.023 49.0404 207.589 50.2591 202.162 54.239C196.809 58.165 194.195 61.9105 192.734 68.389C191.908 72.0562 192.818 76.8834 193.838 80.5684C194.488 82.9169 192.379 85.3701 189.972 84.9885C187.813 84.6462 185.379 84.3463 183.307 84.3078C176.298 84.1777 169.839 84.2475 166.809 90.5721C165.218 93.8921 165.61 95.5619 166.28 98.4084C166.448 99.1222 166.633 99.9099 166.809 100.816C167.011 101.858 167.358 103.024 167.758 104.172C168.61 106.616 166.4 109.247 163.904 108.566L158.702 107.146Z" fill="black"/>
<path d="M158.904 117.898L159.404 117.903V117.903L158.904 117.898ZM158.702 107.146L158.834 106.664L158.174 106.484L158.203 107.167L158.702 107.146ZM158.909 118.113L158.41 118.137V118.137L158.909 118.113ZM154.929 130.578L154.71 130.129H154.71L154.929 130.578ZM142.036 123.35L142.424 123.035L142.424 123.035L142.036 123.35ZM141.75 123.036L141.403 123.396L141.403 123.396L141.75 123.036ZM127.081 106.029L127.487 105.738L126.595 106.147L127.081 106.029ZM129.003 113.972L129.489 113.855L129.003 113.972ZM128.544 116.401L128.954 116.688L128.544 116.401ZM125.442 120.833L125.032 120.546L125.442 120.833ZM119.671 119.917L120.14 119.742V119.742L119.671 119.917ZM118.259 116.731L118.698 116.49L118.259 116.731ZM117.128 114.541L117.576 114.318L117.128 114.541ZM111.717 108.853L111.508 109.307L111.717 108.853ZM95.0281 114.59L94.7013 114.212L95.0281 114.59ZM90.3365 119.378L90.7125 119.708V119.708L90.3365 119.378ZM84.5402 118.449L84.9961 118.244L84.5402 118.449ZM77.6112 108.379L77.9161 107.983L77.6112 108.379ZM61.3239 103.529L61.3544 104.028L61.3239 103.529ZM45.567 110.503L45.9135 110.864H45.9135L45.567 110.503ZM44.5044 111.652L44.8884 111.973L44.8884 111.973L44.5044 111.652ZM35.4635 110.543L35.0039 110.74L35.4635 110.543ZM30.7158 103.692L31.024 103.298L30.7158 103.692ZM15.6347 99.3708L15.6238 99.8707L15.6347 99.3708ZM5.17907 101.355L5.02551 100.879H5.02551L5.17907 101.355ZM1.09646 97.7483L1.58005 97.8754H1.58005L1.09646 97.7483ZM2.36618 93.5423L1.89605 93.3721H1.89605L2.36618 93.5423ZM20.6377 68.3761L20.3467 67.9695L20.6377 68.3761ZM43.2051 59.5691L43.2616 60.0659L43.2051 59.5691ZM66.1696 63.1872L66.0094 63.6609L66.0115 63.6616L66.1696 63.1872ZM66.1697 63.1873L66.3299 62.7136L66.3278 62.7129L66.1697 63.1873ZM70.3548 64.5832L70.2003 65.0588L70.3548 64.5832ZM83.2844 70.5998L83.0397 71.0358L83.2844 70.5998ZM100.097 77.216L100.014 77.7092L100.097 77.216ZM115.919 78.6671L115.896 79.1666L116.369 79.1886L116.416 78.7169L115.919 78.6671ZM116.116 77.4892L115.629 77.3761V77.3761L116.116 77.4892ZM116.39 76.5673L116.863 76.7304V76.7303L116.39 76.5673ZM115.779 73.2472L115.411 73.5863L115.779 73.2472ZM110.597 67.6329L110.965 67.2938L110.597 67.6329ZM119.522 60.6503L119.975 60.8623V60.8623L119.522 60.6503ZM122.585 56.124L122.908 56.5058L122.908 56.5058L122.585 56.124ZM128.095 53.5442L128.231 54.0253L128.231 54.0253L128.095 53.5442ZM128.13 53.5343L127.994 53.0532L127.994 53.0532L128.13 53.5343ZM137.028 53.3323L136.969 53.8288L137.028 53.3323ZM139.562 52.5422L139.225 52.1735L139.562 52.5422ZM141.123 51.1119L140.785 50.7433L141.123 51.1119ZM147.491 63.5163L147.781 63.109V63.109L147.491 63.5163ZM149.292 64.9106L149.623 64.5358L149.623 64.5357L149.292 64.9106ZM149.523 65.1175L149.185 65.4867L149.534 65.8054L149.872 65.475L149.523 65.1175ZM155.54 58.8083L155.918 59.1347L155.54 58.8083ZM164.243 42.9647L163.776 42.7858L164.243 42.9647ZM170.344 30.0661L169.921 29.7992V29.7992L170.344 30.0661ZM172.671 26.315L172.245 26.0532V26.0532L172.671 26.315ZM188.021 8.84108L187.746 8.42301L188.021 8.84108ZM211.001 1.1765L210.964 0.67782L211.001 1.1765ZM241.125 8.84108L240.872 9.27248V9.27248L241.125 8.84108ZM244.79 11.2652L245.081 10.8584V10.8584L244.79 11.2652ZM243.953 16.6481L244.14 17.1121L243.953 16.6481ZM234.643 21.8119L234.971 22.1892L234.643 21.8119ZM225.805 34.7828L225.316 34.6769L225.805 34.7828ZM226.53 43.092L227.01 42.95L226.53 43.092ZM220.283 49.7257L220.192 50.2174L220.283 49.7257ZM218.734 49.5224L218.77 49.0236L218.734 49.5224ZM202.162 54.239L201.866 53.8358L202.162 54.239ZM192.734 68.389L192.247 68.2791L192.734 68.389ZM193.838 80.5684L193.356 80.7018L193.838 80.5684ZM189.972 84.9885L189.893 85.4823L189.972 84.9885ZM183.307 84.3078L183.316 83.8079L183.307 84.3078ZM166.809 90.5721L166.358 90.3561L166.809 90.5721ZM166.28 98.4084L165.793 98.5229L166.28 98.4084ZM166.809 100.816L167.299 100.721L166.809 100.816ZM167.758 104.172L167.286 104.337L167.758 104.172ZM163.904 108.566L164.035 108.083L163.904 108.566ZM159.404 117.903C159.411 117.186 159.439 112.803 159.202 107.125L158.203 107.167C158.439 112.822 158.411 117.187 158.404 117.893L159.404 117.903ZM159.408 118.089C159.405 118.018 159.403 117.966 159.404 117.903L158.404 117.893C158.403 117.982 158.406 118.056 158.41 118.137L159.408 118.089ZM155.148 131.028C156.368 130.433 157.23 129.356 157.84 128.117C158.45 126.878 158.828 125.44 159.061 124.058C159.529 121.294 159.436 118.665 159.408 118.089L158.41 118.137C158.436 118.687 158.525 121.233 158.075 123.891C157.85 125.22 157.494 126.555 156.943 127.675C156.39 128.797 155.662 129.665 154.71 130.129L155.148 131.028ZM141.647 123.665C142.184 124.327 144.223 126.76 146.753 128.734C148.017 129.721 149.428 130.612 150.855 131.102C152.285 131.594 153.777 131.696 155.148 131.028L154.71 130.129C153.656 130.643 152.456 130.595 151.18 130.157C149.9 129.717 148.589 128.899 147.368 127.946C144.928 126.042 142.946 123.678 142.424 123.035L141.647 123.665ZM141.403 123.396C141.494 123.484 141.563 123.561 141.647 123.665L142.424 123.035C142.319 122.905 142.223 122.797 142.097 122.676L141.403 123.396ZM126.674 106.32C133.086 115.275 140.279 122.314 141.403 123.396L142.097 122.676C140.989 121.609 133.846 114.62 127.487 105.738L126.674 106.32ZM129.489 113.855L127.567 105.912L126.595 106.147L128.517 114.09L129.489 113.855ZM128.954 116.688C129.531 115.864 129.725 114.832 129.489 113.855L128.517 114.09C128.686 114.788 128.547 115.526 128.135 116.114L128.954 116.688ZM125.851 121.12L128.954 116.688L128.135 116.114L125.032 120.546L125.851 121.12ZM119.203 120.092C119.725 121.491 120.957 122.356 122.257 122.573C123.561 122.79 124.982 122.362 125.851 121.12L125.032 120.546C124.417 121.425 123.406 121.751 122.422 121.586C121.434 121.422 120.523 120.769 120.14 119.742L119.203 120.092ZM117.821 116.971C118.314 117.872 118.782 118.965 119.203 120.092L120.14 119.742C119.71 118.592 119.223 117.449 118.698 116.49L117.821 116.971ZM116.681 114.764C117.007 115.42 117.372 116.152 117.821 116.971L118.698 116.49C118.259 115.691 117.903 114.975 117.576 114.318L116.681 114.764ZM111.508 109.307C113.132 110.053 114.094 110.782 114.808 111.616C115.532 112.464 116.023 113.443 116.681 114.764L117.576 114.318C116.93 113.021 116.387 111.925 115.568 110.966C114.737 109.995 113.645 109.188 111.925 108.398L111.508 109.307ZM95.3549 114.968C98.0179 112.668 100.544 110.553 103.18 109.361C105.783 108.184 108.475 107.915 111.508 109.307L111.925 108.398C108.588 106.866 105.59 107.174 102.768 108.45C99.9781 109.712 97.345 111.928 94.7013 114.212L95.3549 114.968ZM90.7125 119.708C92.1487 118.07 93.8117 116.301 95.3549 114.968L94.7013 114.212C93.1062 115.589 91.4077 117.398 89.9605 119.049L90.7125 119.708ZM84.0842 118.655C85.227 121.194 88.855 121.827 90.7125 119.708L89.9605 119.049C88.6046 120.595 85.8539 120.15 84.9961 118.244L84.0842 118.655ZM77.3063 108.776C80.1768 110.984 82.5179 115.174 84.0842 118.655L84.9961 118.244C83.4248 114.753 81.0002 110.356 77.9161 107.983L77.3063 108.776ZM61.3544 104.028C64.6296 103.827 67.3245 104.028 69.8383 104.764C72.3506 105.5 74.7115 106.779 77.3063 108.776L77.9161 107.983C75.2499 105.932 72.7793 104.583 70.1193 103.804C67.4608 103.026 64.6426 102.825 61.2933 103.03L61.3544 104.028ZM45.9135 110.864C48.3124 108.558 50.5256 106.957 52.9505 105.878C55.3747 104.799 58.0385 104.231 61.3544 104.028L61.2933 103.03C57.8939 103.238 55.1059 103.825 52.544 104.964C49.9826 106.104 47.675 107.784 45.2206 110.143L45.9135 110.864ZM44.8884 111.973C45.2246 111.569 45.567 111.197 45.9135 110.864L45.2206 110.143C44.8433 110.505 44.476 110.906 44.1204 111.332L44.8884 111.973ZM35.0039 110.74C35.7268 112.426 37.7065 113.356 39.6351 113.583C41.5671 113.81 43.7263 113.366 44.8884 111.973L44.1204 111.332C43.2692 112.353 41.5273 112.799 39.7519 112.59C37.9731 112.381 36.4389 111.549 35.923 110.346L35.0039 110.74ZM30.4076 104.085C32.3484 105.605 33.8556 108.062 35.0039 110.74L35.923 110.346C34.7486 107.607 33.1591 104.969 31.024 103.298L30.4076 104.085ZM15.6238 99.8707C21.7229 100.004 25.715 100.412 30.4076 104.085L31.024 103.298C26.0663 99.4169 21.7964 99.0053 15.6456 98.8709L15.6238 99.8707ZM5.33263 101.831C8.51167 100.805 12.4761 99.802 15.6238 99.8707L15.6456 98.8709C12.3199 98.7983 8.22031 99.8483 5.02551 100.879L5.33263 101.831ZM0.612873 97.6213C-0.119304 100.408 2.70717 102.678 5.33263 101.831L5.02551 100.879C3.03536 101.521 1.07905 99.7824 1.58005 97.8754L0.612873 97.6213ZM1.89605 93.3721C1.43829 94.6363 0.996848 96.1597 0.612873 97.6213L1.58005 97.8754C1.9609 96.4257 2.3935 94.9355 2.83631 93.7125L1.89605 93.3721ZM20.3467 67.9695C15.3744 71.5277 11.7972 75.0019 8.9418 79.0372C6.08881 83.0692 3.97137 87.6406 1.89605 93.3721L2.83631 93.7125C4.89656 88.0227 6.97778 83.5441 9.75811 79.6148C12.536 75.6889 16.0268 72.2906 20.9286 68.7827L20.3467 67.9695ZM43.1485 59.0723C33.6604 60.1526 28.1064 62.4164 20.3467 67.9695L20.9286 68.7827C28.5588 63.3224 33.9531 61.1257 43.2616 60.0659L43.1485 59.0723ZM66.3298 62.7136C58.3908 60.0286 52.4456 58.0138 43.1485 59.0723L43.2616 60.0659C52.3188 59.0347 58.0781 60.9785 66.0094 63.6609L66.3298 62.7136ZM66.3278 62.7129L66.3277 62.7129L66.0115 63.6616L66.0116 63.6616L66.3278 62.7129ZM70.5094 64.1077C69.0423 63.631 67.6585 63.1629 66.3299 62.7136L66.0095 63.6609C67.3374 64.11 68.7267 64.5799 70.2003 65.0588L70.5094 64.1077ZM83.5292 70.1637C79.7626 68.0496 75.8119 65.8309 70.5094 64.1077L70.2003 65.0588C75.3989 66.7481 79.2729 68.9215 83.0397 71.0358L83.5292 70.1637ZM100.179 76.7229C93.1133 75.5405 88.4788 72.942 83.5292 70.1637L83.0397 71.0358C87.9949 73.8171 92.7616 76.4955 100.014 77.7092L100.179 76.7229ZM115.942 78.1677C111.618 77.9661 105.099 77.5462 100.179 76.7229L100.014 77.7092C104.998 78.5431 111.568 78.9649 115.896 79.1666L115.942 78.1677ZM115.629 77.3761C115.529 77.8084 115.461 78.2203 115.421 78.6173L116.416 78.7169C116.452 78.364 116.512 77.9944 116.603 77.6024L115.629 77.3761ZM115.917 76.4043C115.805 76.7305 115.701 77.0675 115.629 77.3761L116.603 77.6024C116.664 77.3404 116.756 77.0391 116.863 76.7304L115.917 76.4043ZM115.411 73.5863C116.089 74.3203 116.261 75.4082 115.917 76.4043L116.863 76.7303C117.308 75.4397 117.109 73.9517 116.146 72.9081L115.411 73.5863ZM110.23 67.972L115.411 73.5863L116.146 72.9081L110.965 67.2938L110.23 67.972ZM112.802 62.0983C109.751 62.0983 108.161 65.73 110.23 67.972L110.965 67.2938C109.487 65.6923 110.623 63.0983 112.802 63.0983V62.0983ZM116.589 62.0983H112.802V63.0983H116.589V62.0983ZM119.07 60.4383C118.604 61.4318 117.641 62.0983 116.589 62.0983V63.0983C118.073 63.0983 119.365 62.1658 119.975 60.8623L119.07 60.4383ZM122.262 55.7423C120.886 56.9065 119.764 58.956 119.07 60.4383L119.975 60.8623C120.667 59.3861 121.712 57.517 122.908 56.5058L122.262 55.7423ZM127.959 53.063C125.675 53.7084 124.167 54.1311 122.262 55.7423L122.908 56.5058C124.635 55.0455 125.956 54.6683 128.231 54.0253L127.959 53.063ZM127.994 53.0532L127.959 53.063L128.231 54.0253L128.266 54.0154L127.994 53.0532ZM137.088 52.8358C134.962 52.5816 130.845 52.2471 127.994 53.0532L128.266 54.0155C130.901 53.2705 134.83 53.573 136.969 53.8288L137.088 52.8358ZM139.225 52.1735C138.656 52.6945 137.873 52.9297 137.088 52.8358L136.969 53.8288C138.024 53.9549 139.103 53.6417 139.9 52.9108L139.225 52.1735ZM140.785 50.7433L139.225 52.1735L139.9 52.9108L141.461 51.4805L140.785 50.7433ZM146.65 53.3236C146.65 50.2785 143.03 48.6859 140.785 50.7433L141.461 51.4805C143.065 50.0109 145.65 51.1485 145.65 53.3236H146.65ZM146.65 60.9731V53.3236H145.65V60.9731H146.65ZM147.781 63.109C147.078 62.6091 146.65 61.8155 146.65 60.9731H145.65C145.65 62.1584 146.251 63.2477 147.201 63.9237L147.781 63.109ZM149.623 64.5357C149.089 64.0645 148.385 63.539 147.781 63.109L147.201 63.9237C147.798 64.3487 148.468 64.8498 148.961 65.2854L149.623 64.5357ZM149.86 64.7484C149.782 64.6773 149.703 64.6064 149.623 64.5358L148.961 65.2854C149.037 65.3524 149.112 65.4195 149.185 65.4867L149.86 64.7484ZM149.872 65.475C151.997 63.3972 154.166 61.1688 155.918 59.1347L155.161 58.4819C153.435 60.4852 151.288 62.6912 149.173 64.7601L149.872 65.475ZM155.918 59.1347C160.721 53.5618 162.676 48.4526 164.71 43.1436L163.776 42.7858C161.744 48.0889 159.84 53.0522 155.161 58.4819L155.918 59.1347ZM164.71 43.1436C166.256 39.1079 167.848 34.958 170.767 30.333L169.921 29.7992C166.944 34.5166 165.323 38.7502 163.776 42.7858L164.71 43.1436ZM170.767 30.333C171.594 29.0219 172.363 27.7718 173.097 26.5768L172.245 26.0532C171.51 27.2487 170.745 28.494 169.921 29.7992L170.767 30.333ZM173.097 26.5768C177.483 19.4399 180.671 14.2605 188.295 9.25916L187.746 8.42301C179.921 13.5567 176.635 18.9094 172.245 26.0532L173.097 26.5768ZM188.295 9.25916C196.13 4.11901 201.682 2.35736 211.037 1.67517L210.964 0.67782C201.45 1.37161 195.733 3.18382 187.746 8.42301L188.295 9.25916ZM211.037 1.67517C217.047 1.23691 221.902 1.61718 226.545 2.85913C231.193 4.10216 235.654 6.21486 240.872 9.27248L241.378 8.40969C236.121 5.32966 231.573 3.16865 226.804 1.89309C222.031 0.616458 217.061 0.233258 210.964 0.67782L211.037 1.67517ZM240.872 9.27248C241.994 9.93011 243.28 10.8001 244.499 11.6719L245.081 10.8584C243.851 9.97945 242.538 9.08955 241.378 8.40968L240.872 9.27248ZM244.499 11.6719C246.101 12.8173 245.708 15.4046 243.767 16.1841L244.14 17.1121C246.699 16.0846 247.424 12.5336 245.081 10.8584L244.499 11.6719ZM243.767 16.1841C240.651 17.4352 236.827 19.2508 234.315 21.4346L234.971 22.1892C237.349 20.1221 241.039 18.357 244.14 17.1121L243.767 16.1841ZM234.315 21.4346C229.671 25.4729 226.65 28.521 225.316 34.6769L226.294 34.8887C227.556 29.0614 230.366 26.1936 234.971 22.1892L234.315 21.4346ZM225.316 34.6769C224.741 37.3289 225.204 40.3753 226.051 43.234L227.01 42.95C226.182 40.1549 225.771 37.2997 226.294 34.8887L225.316 34.6769ZM226.051 43.234C226.423 44.4889 225.773 46.1091 224.538 47.4074C223.305 48.7031 221.68 49.4742 220.373 49.2339L220.192 50.2174C221.976 50.5454 223.921 49.5064 225.263 48.0967C226.602 46.6894 227.531 44.7086 227.01 42.95L226.051 43.234ZM220.373 49.2339C219.828 49.1337 219.291 49.0611 218.77 49.0236L218.698 50.0211C219.177 50.0554 219.677 50.1227 220.192 50.2174L220.373 49.2339ZM218.77 49.0236C215.376 48.7799 212.528 48.9641 209.831 49.7263C207.132 50.4888 204.614 51.8212 201.866 53.8358L202.458 54.6422C205.138 52.677 207.549 51.4101 210.102 50.6887C212.656 49.9671 215.381 49.7829 218.698 50.0211L218.77 49.0236ZM201.866 53.8358C199.16 55.8208 197.121 57.7783 195.574 60.0777C194.026 62.3784 192.987 64.9959 192.247 68.2791L193.222 68.499C193.943 65.3037 194.941 62.8091 196.403 60.636C197.866 58.4615 199.811 56.5833 202.458 54.6422L201.866 53.8358ZM192.247 68.2791C191.39 72.0776 192.334 77.011 193.356 80.7018L194.32 80.435C193.301 76.7559 192.425 72.0348 193.222 68.499L192.247 68.2791ZM193.356 80.7018C193.914 82.7156 192.081 84.8167 190.05 84.4947L189.893 85.4823C192.676 85.9235 195.063 83.1182 194.32 80.435L193.356 80.7018ZM190.05 84.4947C187.883 84.1511 185.422 83.847 183.316 83.8079L183.298 84.8077C185.335 84.8455 187.743 85.1413 189.893 85.4823L190.05 84.4947ZM183.316 83.8079C179.825 83.7431 176.384 83.7232 173.433 84.5375C170.447 85.3612 167.945 87.0428 166.358 90.3561L167.259 90.7882C168.702 87.7768 170.945 86.2612 173.699 85.5014C176.487 84.7322 179.781 84.7424 183.298 84.8077L183.316 83.8079ZM166.358 90.3561C165.54 92.0632 165.215 93.3823 165.197 94.6606C165.179 95.9217 165.461 97.1127 165.793 98.5229L166.766 98.294C166.429 96.8576 166.181 95.7904 166.197 94.6749C166.212 93.5768 166.487 92.401 167.259 90.7882L166.358 90.3561ZM165.793 98.5229C165.961 99.237 166.144 100.016 166.318 100.911L167.299 100.721C167.122 99.8039 166.934 99.0073 166.766 98.294L165.793 98.5229ZM166.318 100.911C166.526 101.986 166.882 103.177 167.286 104.337L168.231 104.008C167.834 102.871 167.495 101.73 167.299 100.721L166.318 100.911ZM167.286 104.337C167.647 105.371 167.363 106.456 166.708 107.214C166.056 107.97 165.07 108.366 164.035 108.083L163.772 109.048C165.234 109.447 166.601 108.868 167.465 107.868C168.327 106.87 168.722 105.417 168.231 104.008L167.286 104.337ZM164.035 108.083L158.834 106.664L158.571 107.629L163.772 109.048L164.035 108.083Z" fill="#FFC25E"/>
</svg>
