<svg width="240" height="153" viewBox="0 0 240 153" fill="none" xmlns="http://www.w3.org/2000/svg">
<path d="M156.53 0L131.417 49.0295L72.8804 57.7227L114.434 96.4943L104.498 153L156.53 125.877L209.105 153L198.265 96.4943L240 57.7227L183.089 49.0295L156.53 0Z" fill="#59C2FD"/>
<path fill-rule="evenodd" clip-rule="evenodd" d="M131.417 49.0295L72.8804 57.7227L156.53 80.6727L114.434 96.4943L104.498 153L156.53 80.6727V125.877L209.105 153L156.53 80.6727L198.265 96.4943L240 57.7227L156.53 80.6727L183.089 49.0295L156.53 0V80.6727L131.417 49.0295Z" fill="#3653D9"/>
<path d="M37.8666 0L49.2594 22.2427L75.8152 26.1864L56.9638 43.7755L61.4718 69.4098L37.8666 57.1053L14.0155 69.4098L18.9333 43.7755L-3.05176e-05 26.1864L25.8181 22.2427L37.8666 0Z" fill="#59C2FD"/>
<path fill-rule="evenodd" clip-rule="evenodd" d="M49.2594 22.2427L75.8152 26.1864L37.8666 36.5979L56.9638 43.7755L61.4718 69.4098L37.8666 36.5979V57.1053L14.0155 69.4098L37.8666 36.5979L18.9333 43.7755L-3.05176e-05 26.1864L37.8666 36.5979L25.8181 22.2427L37.8666 0V36.5979L49.2594 22.2427Z" fill="#3653D9"/>
</svg>
