<svg width="116" height="63" viewBox="0 0 116 63" fill="none" xmlns="http://www.w3.org/2000/svg">
<g filter="url(#filter0_d_423_1882)">
<path fill-rule="evenodd" clip-rule="evenodd" d="M93.4277 38.683C103.765 38.2114 112 29.7369 112 19.3519C112 8.66412 103.278 0 92.5187 0C85.0715 0 78.6004 4.15102 75.3221 10.2509C73.4552 9.34887 71.3556 8.84238 69.1358 8.84238C67.1016 8.84238 65.1681 9.26777 63.4223 10.0332C60.9838 4.9114 55.6469 1.35791 49.4555 1.35791C42.5274 1.35791 36.6692 5.80744 34.7447 11.9249C33.1744 11.3282 31.468 11.001 29.6839 11.001C21.9167 11.001 15.6201 17.2025 15.6201 24.8523C15.6201 31.9545 21.0474 37.8083 28.04 38.6101V38.7038H93.4277V38.683Z" fill="#00B574"/>
<path fill-rule="evenodd" clip-rule="evenodd" d="M16.3038 54.8925C9.36725 54.0396 4 48.2114 4 41.1486C4 33.4987 10.2966 27.2973 18.0638 27.2973C19.9788 27.2973 21.8044 27.6742 23.4682 28.3569C25.8135 22.112 31.973 17.6543 39.2024 17.6543C48.4021 17.6543 55.8693 24.8728 55.9486 33.8069C58.4181 29.8212 62.8747 27.1605 67.9624 27.1605C75.7296 27.1605 82.0262 33.3619 82.0262 41.0118C82.0262 48.5661 75.8861 54.7079 68.253 54.8603V55H16.3038V54.8925Z" fill="#20EFA5"/>
</g>
<defs>
<filter id="filter0_d_423_1882" x="0" y="0" width="116" height="63" filterUnits="userSpaceOnUse" color-interpolation-filters="sRGB">
<feFlood flood-opacity="0" result="BackgroundImageFix"/>
<feColorMatrix in="SourceAlpha" type="matrix" values="0 0 0 0 0 0 0 0 0 0 0 0 0 0 0 0 0 0 127 0" result="hardAlpha"/>
<feOffset dy="4"/>
<feGaussianBlur stdDeviation="2"/>
<feComposite in2="hardAlpha" operator="out"/>
<feColorMatrix type="matrix" values="0 0 0 0 0 0 0 0 0 0 0 0 0 0 0 0 0 0 0.25 0"/>
<feBlend mode="normal" in2="BackgroundImageFix" result="effect1_dropShadow_423_1882"/>
<feBlend mode="normal" in="SourceGraphic" in2="effect1_dropShadow_423_1882" result="shape"/>
</filter>
</defs>
</svg>
