<svg width="140" height="330" viewBox="0 0 140 330" fill="none" xmlns="http://www.w3.org/2000/svg">
<path fill-rule="evenodd" clip-rule="evenodd" d="M124.028 32.3079H0V303.693C0 318.222 27.7647 330 62.0142 330C96.2636 330 124.028 318.222 124.028 303.693V32.3079Z" fill="#FF700D"/>
<path fill-rule="evenodd" clip-rule="evenodd" d="M74.4235 50.8289C79.9883 52.7422 86.3692 57.0386 90.37 60.0652C97.4919 65.4528 94.1006 74.1295 90.7249 82.7664C89.9483 84.7534 89.1725 86.7383 88.5257 88.6806C86.4933 94.7838 84.9424 100.174 87.1425 106.219C88.714 110.537 90.7817 113.131 94.9807 114.988C99.0982 116.809 102.498 117.036 106.508 114.988C111.997 112.185 112.495 107.728 113.139 101.96C113.227 101.173 113.317 100.362 113.424 99.5267C113.819 96.4257 113.295 93.4898 112.761 90.4979C112.479 88.9186 112.194 87.3236 112.04 85.6806C111.848 83.624 111.132 81.9196 110.452 80.301C109.439 77.8893 108.506 75.6683 109.504 72.7575C109.618 72.4261 109.717 72.1049 109.812 71.7952C110.255 70.3565 110.621 69.168 112.04 68.3729C113.69 67.4487 115.183 67.5424 116.882 68.3729C118.784 69.3029 118.143 71.1212 117.425 73.1591C116.829 74.8473 116.181 76.6863 116.882 78.2959C118.23 81.3928 119.667 83.4796 122.876 84.5267C127.327 85.9793 130.552 83.1442 133.941 79.9113C137.148 76.8529 138.076 74.0905 139.013 69.7575C139.109 69.3121 139.208 68.882 139.304 68.4643C140.002 65.4127 140.551 63.0171 139.013 60.0652C138.557 59.1891 138.385 58.6388 138.228 58.1361C138.03 57.5036 137.856 56.9466 137.169 55.9113C134.619 52.0729 135.386 48.5379 136.237 44.6168C136.733 42.3281 137.258 39.9079 137.169 37.219C137.155 36.8137 137.143 36.4165 137.13 36.0266C136.931 29.7312 136.793 25.3434 133.941 19.4498C131.8 15.0242 129.979 12.2962 125.642 9.98824C122.612 8.37598 120.49 8.20389 117.132 7.9316L116.882 7.91132C111.409 7.46627 107.699 9.37384 103.662 11.4501C101.556 12.5329 99.3608 13.6616 96.78 14.5263C86.8642 12.3491 74.898 11.0771 62.0142 11.0771C27.7647 11.0771 0 20.0658 0 31.154C0 42.2422 27.7647 51.2309 62.0142 51.2309C66.264 51.2309 70.414 51.0925 74.4235 50.8289Z" fill="#FFC25E"/>
<ellipse cx="62.0139" cy="32.3078" rx="24.2063" ry="7.84615" fill="#FF700D"/>
<rect x="57.6338" width="9.22144" height="32.7692" rx="4.61072" fill="#CF4CE3"/>
</svg>
