<svg width="140" height="434" viewBox="0 0 140 434" fill="none" xmlns="http://www.w3.org/2000/svg">
<path fill-rule="evenodd" clip-rule="evenodd" d="M124.028 136.398H0V407.7C0 422.225 27.7647 434 62.0142 434C96.2636 434 124.028 422.225 124.028 407.7V136.398Z" fill="#FF700D"/>
<path fill-rule="evenodd" clip-rule="evenodd" d="M74.4235 154.914C79.9883 156.826 86.3692 161.121 90.37 164.147C97.4919 169.533 94.1006 178.207 90.7249 186.841C89.9483 188.828 89.1725 190.812 88.5257 192.754C86.4933 198.855 84.9424 204.244 87.1425 210.287C88.714 214.603 90.7817 217.197 94.9807 219.053C99.0982 220.874 102.498 221.101 106.508 219.053C111.997 216.251 112.495 211.796 113.139 206.029C113.227 205.243 113.317 204.431 113.424 203.597C113.819 200.496 113.295 197.561 112.761 194.57C112.479 192.992 112.194 191.397 112.04 189.755C111.848 187.699 111.132 185.995 110.452 184.377C109.439 181.966 108.506 179.745 109.504 176.835C109.618 176.504 109.717 176.183 109.812 175.873C110.255 174.435 110.621 173.247 112.04 172.452C113.69 171.528 115.183 171.622 116.882 172.452C118.784 173.382 118.143 175.2 117.425 177.237C116.829 178.925 116.181 180.763 116.882 182.372C118.23 185.468 119.667 187.554 122.876 188.601C127.327 190.053 130.552 187.219 133.941 183.987C137.148 180.93 138.076 178.168 139.013 173.836C139.109 173.391 139.208 172.961 139.304 172.544C140.002 169.493 140.551 167.098 139.013 164.147C138.557 163.271 138.385 162.721 138.228 162.218C138.03 161.586 137.856 161.029 137.169 159.994C134.619 156.157 135.386 152.623 136.237 148.703C136.733 146.415 137.258 143.996 137.169 141.308C137.155 140.903 137.143 140.505 137.13 140.116C136.931 133.822 136.793 129.436 133.941 123.544C131.8 119.12 129.979 116.393 125.642 114.085C122.612 112.473 120.49 112.301 117.132 112.029L116.882 112.009C111.409 111.564 107.699 113.471 103.662 115.547C101.556 116.629 99.3608 117.757 96.78 118.622C86.8642 116.445 74.898 115.174 62.0142 115.174C27.7647 115.174 0 124.16 0 135.245C0 146.329 27.7647 155.315 62.0142 155.315C66.264 155.315 70.414 155.177 74.4235 154.914Z" fill="#FFC25E"/>
<ellipse cx="62.0139" cy="136.398" rx="24.2063" ry="7.84377" fill="#FF700D"/>
<rect x="57.6338" y="104.1" width="9.22144" height="32.7593" rx="4.61072" fill="#CF4CE3"/>
<path d="M80.3576 69.5976C80.3576 93.082 71.9972 112.12 61.6842 112.12C51.3711 112.12 43.0107 93.082 43.0107 69.5976C43.0107 46.1132 51.3711 0 61.6842 0C71.9972 0 80.3576 46.1132 80.3576 69.5976Z" fill="url(#paint0_linear_557_2)"/>
<defs>
<linearGradient id="paint0_linear_557_2" x1="61.6859" y1="101.097" x2="61.6859" y2="-6.60225e-08" gradientUnits="userSpaceOnUse">
<stop stop-color="#EA61E5"/>
<stop offset="0.363229" stop-color="#FF700D"/>
<stop offset="1" stop-color="#FFC25E"/>
</linearGradient>
</defs>
</svg>
