<svg width="840" height="1104" viewBox="0 0 840 1104" fill="none" xmlns="http://www.w3.org/2000/svg">
<g filter="url(#filter0_i_423_2328)">
<path d="M429.675 179.281C414.998 230.872 295.966 220.625 323.591 266.612C345.611 303.27 421.243 238.655 432.343 279.945C441.121 312.593 367.441 325.214 386.307 353.276C403.451 378.777 449.541 326.742 465.036 353.276C477.286 374.252 443.605 387.145 434.296 407.275C432.312 411.563 431.435 416.18 432.343 421.274C440.783 468.579 520.804 402.932 554.44 437.274C579.909 463.276 544.752 484.966 504.945 507.392C460.362 532.509 409.946 558.548 432.343 592.603C474.079 656.06 621.634 475.342 622.494 551.27C622.945 591.004 569.792 599.167 557.1 630.602C555.185 635.343 554.191 640.613 554.44 646.601C557.305 715.471 702.297 640.132 720.572 706.599C722.411 713.287 722.732 719.24 721.803 724.599C712.895 775.997 589.049 772.773 587.133 839.262C587.099 840.452 587.099 841.625 587.133 842.781C589.762 932.069 793.932 919.192 833.427 915.864L840 915.26V1075.92C840 1075.92 661.199 1139.1 674.536 1075.92C678.24 1058.37 689.643 1052.07 695.886 1035.26C719.546 971.541 622.48 993.712 524.516 1016.09L520.413 1017.03C423.014 1039.26 326.381 1060.52 348.277 996.591C370.381 932.053 537.471 914.089 478.38 879.928C447.257 861.935 415.925 900.298 386.307 879.928C337.426 846.309 530.421 812.596 514.409 791.264C498.396 769.931 370.375 793.263 280.223 793.263C190.07 793.263 399.192 754.905 404.988 692.6C413.043 606.019 238.634 758.746 182.145 692.6C107.886 605.646 435.072 612.89 404.988 502.605C375.772 395.499 91.2249 541.994 128.102 437.274C140.764 401.316 202.579 395.078 209.188 369.288L206.831 353.276C201.525 342.223 193.03 339.591 182.812 340.893C156.792 344.21 119.597 373.037 95.4094 353.276C42.9426 310.411 217.036 306.378 226.18 239.279C239.404 142.247 20.5 74.983 20.5 74.983H226L221.841 86.3186C211.616 143.021 406.225 103.422 429.122 157.282C431.744 163.449 432.117 170.698 429.675 179.281Z" fill="#59C2FD"/>
<path d="M515.307 794.82C485.95 817.486 337.426 846.309 386.307 879.928L495.06 861.262C495.06 861.262 521.27 853.212 527.752 839.262C537.046 819.264 515.307 794.82 515.307 794.82Z" fill="#3653D9"/>
<path d="M226 75C216 91 210.992 135.668 216.839 157.282C238.47 237.246 429.122 157.282 429.122 157.282C418.12 131.402 367.509 124.561 319.03 118.007C270.551 111.454 226 75 226 75Z" fill="#3653D9"/>
<path fill-rule="evenodd" clip-rule="evenodd" d="M226.18 239.279C226.18 239.279 238.89 259.405 242.192 273.945C242.4 274.862 242.607 275.761 242.81 276.646C246.041 290.716 248.407 301.021 242.192 314.611C231.651 337.66 182.812 340.893 182.812 340.893C174.304 341.978 164.602 345.789 154.551 349.738C133.86 357.866 111.688 366.576 95.409 353.276C69.215 331.876 99.4911 320.154 137.519 305.432C175.661 290.665 221.601 272.879 226.18 239.279ZM209.188 369.289L206.831 353.276C209.785 359.429 210.371 364.672 209.188 369.289ZM209.188 369.289C209.188 369.289 233.519 407.275 216.839 421.274C200.159 435.274 128.102 437.274 128.102 437.274C134.865 418.067 155.653 407.34 174.56 397.583C191.05 389.074 206.109 381.302 209.188 369.289ZM273.151 607.63C342.946 584.461 420.311 558.779 404.988 502.605C404.988 502.605 417.199 521.772 422.335 535.271C429.624 554.429 419.773 564.08 408.279 575.339C399.746 583.699 390.306 592.946 386.307 607.63C360.296 703.117 182.145 692.6 182.145 692.6C145.709 649.935 205.918 629.949 273.151 607.63ZM292.053 772.283C334.551 754.946 401.738 727.538 404.988 692.6C404.988 692.6 432.343 749.931 414.996 757.265C397.649 764.598 280.222 793.264 280.222 793.264C240.624 793.264 258.765 785.863 292.053 772.283ZM440.685 928.267C467.992 915.913 490.638 905.668 490.953 894.542C490.953 894.542 504.587 907.776 511.072 917.927C532.004 950.692 520.413 1017.03 520.413 1017.03C423.014 1039.26 326.381 1060.52 348.276 996.591C359.024 965.211 404.048 944.842 440.683 928.268L440.685 928.267ZM840 915.26C840 915.26 837.659 915.507 833.427 915.864L840 915.26ZM833.427 915.864C793.932 919.193 589.762 932.069 587.133 842.781C587.133 842.781 579.939 883.522 587.133 907.927C590.691 919.997 593.889 926.536 600.477 937.26C648.269 1015.05 833.427 915.864 833.427 915.864ZM720.572 706.599C722.411 713.287 722.731 719.24 721.802 724.599C721.802 724.599 582.557 795.738 554.44 736.599C548.23 723.537 546.881 715.017 545.766 700.6C544.12 679.305 554.44 646.601 554.44 646.601C555.881 681.244 593.283 679.398 632.43 677.467C671.108 675.558 711.49 673.566 720.572 706.599ZM588.215 598.759C575.348 607.977 562.526 617.162 557.099 630.602C557.099 630.602 465.542 685.082 440.349 646.601C428.67 628.761 432.343 592.603 432.343 592.603C454.115 625.706 504.683 592.362 548.201 563.667C588.106 537.355 622.083 514.951 622.494 551.271C622.752 574.017 605.443 586.416 588.215 598.759ZM554.44 437.274C579.909 463.276 544.752 484.966 504.945 507.392L432.343 512.605C432.343 512.605 423.092 488.276 422.335 471.939C421.402 451.793 432.343 421.274 432.343 421.274C436.717 445.794 460.325 439.967 486.735 433.447C511.277 427.389 538.239 420.733 554.44 437.274ZM451.081 387.123C444.524 393.367 437.74 399.825 434.295 407.275C434.295 407.275 400.32 419.708 386.307 407.275C370.525 393.273 386.307 353.276 386.307 353.276C394.856 365.993 410.604 359.428 426.166 352.94C441.811 346.418 457.268 339.974 465.036 353.276C472.752 366.489 462.243 376.495 451.081 387.123ZM406.282 317.799C391.035 328.74 376.718 339.014 386.307 353.276C386.307 353.276 343.437 367.615 323.59 353.276C296.142 333.445 323.59 266.612 323.59 266.612C334.5 284.773 358.568 278.077 381.429 271.717C404.712 265.24 426.742 259.111 432.343 279.945C436.659 296 421.035 307.212 406.282 317.799Z" fill="#3653D9"/>
</g>
<defs>
<filter id="filter0_i_423_2328" x="0" y="0" width="840" height="1108" filterUnits="userSpaceOnUse" color-interpolation-filters="sRGB">
<feFlood flood-opacity="0" result="BackgroundImageFix"/>
<feBlend mode="normal" in="SourceGraphic" in2="BackgroundImageFix" result="shape"/>
<feColorMatrix in="SourceAlpha" type="matrix" values="0 0 0 0 0 0 0 0 0 0 0 0 0 0 0 0 0 0 127 0" result="hardAlpha"/>
<feOffset dy="4"/>
<feGaussianBlur stdDeviation="2"/>
<feComposite in2="hardAlpha" operator="arithmetic" k2="-1" k3="1"/>
<feColorMatrix type="matrix" values="0 0 0 0 0 0 0 0 0 0 0 0 0 0 0 0 0 0 0.25 0"/>
<feBlend mode="normal" in2="shape" result="effect1_innerShadow_423_2328"/>
</filter>
</defs>
</svg>
