<svg width="35" height="35" viewBox="0 0 35 35" fill="none" xmlns="http://www.w3.org/2000/svg">
<path fill-rule="evenodd" clip-rule="evenodd" d="M0.9592 0.959197C-0.31973 2.23813 -0.319735 4.31168 0.959195 5.59061L12.8688 17.5002L0.959682 29.4094C-0.319247 30.6883 -0.319247 32.7619 0.959683 34.0408C2.23861 35.3197 4.31216 35.3197 5.59109 34.0408L17.5002 22.1317L29.4093 34.0407C30.6883 35.3197 32.7618 35.3197 34.0407 34.0407C35.3197 32.7618 35.3197 30.6883 34.0408 29.4093L22.1317 17.5002L34.0412 5.59068C35.3202 4.31175 35.3202 2.23819 34.0412 0.959263C32.7623 -0.319666 30.6888 -0.319671 29.4098 0.959258L17.5002 12.8688L5.59062 0.959197C4.31169 -0.319733 2.23813 -0.319732 0.9592 0.959197Z" fill="white" fill-opacity="0.8"/>
</svg>
