<svg width="270" height="220" viewBox="0 0 270 220" fill="none" xmlns="http://www.w3.org/2000/svg">
<g filter="url(#filter0_d_423_2885)">
<path fill-rule="evenodd" clip-rule="evenodd" d="M184.886 143.714C184.886 143.714 187.647 155.281 192.997 159.918C196.629 163.066 203.359 164.671 206.901 165.329V212H212.695V196.872C215.045 196.52 223.952 194.97 228.339 191.167C233.689 186.53 236.45 174.964 236.45 174.964L231.236 172.649C231.236 172.649 228.922 182.626 224.283 186.538C221.017 189.292 214.643 190.687 212.695 191.062V144.872H206.901V159.439C204.157 158.793 199.634 157.465 197.053 155.288C192.414 151.377 190.1 141.4 190.1 141.4L184.886 143.714Z" fill="#743109"/>
<ellipse rx="39.9774" ry="39.9297" transform="matrix(-1 0 0 1 209.8 113.044)" fill="#00B574"/>
<ellipse rx="24.9135" ry="24.8837" transform="matrix(-1 0 0 1 241.087 153.552)" fill="#20EFA5"/>
<path fill-rule="evenodd" clip-rule="evenodd" d="M21.9199 112.146C21.9199 112.146 25.2054 125.906 31.5696 131.422C35.8909 135.168 43.8974 137.077 48.1113 137.86V193.382H55.0039V175.386C57.8 174.966 68.3948 173.122 73.614 168.598C79.9782 163.082 83.2637 149.322 83.2637 149.322L77.0603 146.568C77.0603 146.568 74.3082 158.437 68.7891 163.091C64.9034 166.367 57.3213 168.027 55.0039 168.473V113.523H48.1113V130.853C44.8464 130.084 39.4658 128.504 36.3945 125.915C30.8754 121.261 28.1233 109.392 28.1233 109.392L21.9199 112.146Z" fill="#743109"/>
<ellipse rx="47.5592" ry="47.5025" transform="matrix(-1 0 0 1 51.559 75.6586)" fill="#00B574"/>
<ellipse rx="29.6383" ry="29.603" transform="matrix(-1 0 0 1 88.7796 123.85)" fill="#20EFA5"/>
<path fill-rule="evenodd" clip-rule="evenodd" d="M198.705 100.189C198.705 100.189 194.786 116.603 187.194 123.184C182.039 127.652 172.488 129.929 167.461 130.864V197.094H159.239V175.626C155.903 175.126 143.266 172.926 137.04 167.53C129.448 160.949 125.529 144.535 125.529 144.535L132.929 141.251C132.929 141.251 136.212 155.409 142.796 160.96C147.431 164.868 156.474 166.848 159.239 167.38V101.832H167.461V122.505C171.356 121.588 177.775 119.703 181.439 116.614C188.022 111.063 191.305 96.9044 191.305 96.9044L198.705 100.189Z" fill="#743109"/>
<ellipse cx="163.349" cy="56.6644" rx="56.7321" ry="56.6645" fill="#20EFA5"/>
<ellipse cx="118.951" cy="114.15" rx="35.3548" ry="35.3126" fill="#00B574"/>
</g>
<defs>
<filter id="filter0_d_423_2885" x="0" y="-6.10352e-05" width="270" height="220" filterUnits="userSpaceOnUse" color-interpolation-filters="sRGB">
<feFlood flood-opacity="0" result="BackgroundImageFix"/>
<feColorMatrix in="SourceAlpha" type="matrix" values="0 0 0 0 0 0 0 0 0 0 0 0 0 0 0 0 0 0 127 0" result="hardAlpha"/>
<feOffset dy="4"/>
<feGaussianBlur stdDeviation="2"/>
<feComposite in2="hardAlpha" operator="out"/>
<feColorMatrix type="matrix" values="0 0 0 0 0 0 0 0 0 0 0 0 0 0 0 0 0 0 0.25 0"/>
<feBlend mode="normal" in2="BackgroundImageFix" result="effect1_dropShadow_423_2885"/>
<feBlend mode="normal" in="SourceGraphic" in2="effect1_dropShadow_423_2885" result="shape"/>
</filter>
</defs>
</svg>
