<svg width="46" height="260" viewBox="0 0 46 260" fill="none" xmlns="http://www.w3.org/2000/svg">
<rect x="8.74414" y="204.985" width="27.7521" height="55.0145" rx="2" fill="#FFC25E"/>
<rect x="18.248" y="85.5363" width="8.7438" height="104.754" rx="2" fill="#7D0AD7"/>
<rect x="20.1484" y="74.9855" width="4.94215" height="10.5507" fill="#FFC25E"/>
<rect x="20.5293" y="10.1739" width="4.94215" height="8.66667" fill="#FFC25E"/>
<path d="M8.74414 192.29C8.74414 191.185 9.63957 190.29 10.7441 190.29H34.4962C35.6008 190.29 36.4962 191.185 36.4962 192.29V194.435H8.74414V192.29Z" fill="#FFC25E"/>
<path d="M15.207 188.145C15.207 187.04 16.1025 186.145 17.207 186.145H28.0335C29.138 186.145 30.0335 187.04 30.0335 188.145V190.29H15.207V188.145Z" fill="#59C2FD"/>
<path d="M15.207 72.8406C15.207 71.736 16.1025 70.8406 17.207 70.8406H28.0335C29.138 70.8406 30.0335 71.736 30.0335 72.8406V72.9855C30.0335 74.0901 29.138 74.9855 28.0335 74.9855H17.207C16.1025 74.9855 15.207 74.0901 15.207 72.9855V72.8406Z" fill="#59C2FD"/>
<path d="M15.5869 20.8406C15.5869 19.736 16.4823 18.8406 17.5869 18.8406H28.4134C29.5179 18.8406 30.4134 19.736 30.4134 20.8406V22.9855H15.5869V20.8406Z" fill="#59C2FD"/>
<path d="M17.1074 78.8696C17.1074 77.7651 18.0029 76.8696 19.1074 76.8696H26.5124C27.617 76.8696 28.5124 77.7651 28.5124 78.8696V79.0146C28.5124 80.1191 27.617 81.0146 26.5124 81.0146H19.1074C18.0029 81.0146 17.1074 80.1191 17.1074 79.0146V78.8696Z" fill="#59C2FD"/>
<path d="M4.94238 196.435C4.94238 195.33 5.83781 194.435 6.94238 194.435H38.2978C39.4023 194.435 40.2978 195.33 40.2978 196.435V206C40.2978 207.105 39.4023 208 38.2978 208H6.94238C5.83781 208 4.94238 207.105 4.94238 206V196.435Z" fill="#7D0AD7"/>
<rect x="15.207" y="36.5508" width="14.8264" height="34.2899" fill="#FFC25E"/>
<rect x="15.5869" y="22.9854" width="14.8264" height="13.5652" fill="#7D0AD7"/>
<path d="M30.033 70.9304L30.033 36.5507H45.1777L30.033 70.9304Z" fill="#FFC25E"/>
<path d="M15.5246 70.9304L15.5246 36.5507H0.379883L15.5246 70.9304Z" fill="#FFC25E"/>
<path d="M15.5868 22.9855L15.5868 36.5508H0L15.5868 22.9855Z" fill="#7D0AD7"/>
<path d="M30.4132 22.9853V36.5506H46L30.4132 22.9853Z" fill="#7D0AD7"/>
<ellipse cx="23.1903" cy="6.4058" rx="6.46281" ry="6.4058" fill="#FFC25E"/>
</svg>
