<svg width="232" height="305" viewBox="0 0 232 305" fill="none" xmlns="http://www.w3.org/2000/svg">
<rect x="97.3916" width="70.6087" height="231.8" rx="35.3043" fill="#20EFA5"/>
<rect x="38.957" y="82.96" width="51.1304" height="195.2" rx="25.5652" fill="#00B574"/>
<path d="M66.2886 180.56V228.262M66.2886 305V242.78M66.2886 242.78L48.6953 228.262M66.2886 242.78V228.262M82.7823 211.67L66.2886 228.262" stroke="#743109" stroke-width="7"/>
<path d="M135.131 107.36V163.48M135.131 253.76V180.56M135.131 180.56L115.652 163.48M135.131 180.56V163.48M153.391 143.96L135.131 163.48" stroke="#743109" stroke-width="7"/>
<rect y="19.52" width="48.6957" height="161.04" rx="24.3478" fill="#20EFA5"/>
<path d="M25.9971 92.72V132.004M25.9971 195.2V143.96M25.9971 143.96L12.1738 132.004M25.9971 143.96V132.004M38.9564 118.34L25.9971 132.004" stroke="#743109" stroke-width="7"/>
<rect x="183" y="46" width="48.6957" height="161.04" rx="24.3478" fill="#00B574"/>
<path d="M208.997 119.2V158.484M208.997 221.68V170.44M208.997 170.44L195.174 158.484M208.997 170.44V158.484M221.956 144.82L208.997 158.484" stroke="#743109" stroke-width="7"/>
</svg>
