<?xml version="1.0" encoding="utf-8"?>
<!-- Generator: Adobe Illustrator 25.4.1, SVG Export Plug-In . SVG Version: 6.00 Build 0)  -->
<svg version="1.1" id="Слой_1" xmlns="http://www.w3.org/2000/svg" xmlns:xlink="http://www.w3.org/1999/xlink" x="0px" y="0px"
	 viewBox="0 0 1121 272" style="enable-background:new 0 0 1121 272;" xml:space="preserve">
<style type="text/css">
	.st0{fill:#20EFA5;}
	.st1{fill-rule:evenodd;clip-rule:evenodd;fill:#00B574;}
	.st2{fill:#00B574;}
	.st3{fill-rule:evenodd;clip-rule:evenodd;fill:#20EFA5;}
	.st4{fill:#FFC25E;}
	.st5{fill:#FF700D;}
	.st6{fill-rule:evenodd;clip-rule:evenodd;fill:#FF700D;}
	.st7{fill-rule:evenodd;clip-rule:evenodd;fill:#FFC25E;}
</style>
<g>
	<path class="st0" d="M447.1,262.5c0,0-14.8-18.2-24-30c-5.3-6.8-10.4-9.4-13.5-17.6c-3.7-10,4.6-17.8,0-27.4
		c-6.6-13.7-19.8-16.7-34.5-16.1c-20.3,0.9-24.1,21.4-39.5,35.2L274,262.5h108.6H447.1z"/>
	<path class="st1" d="M382.6,262.5H274l61.5-55.9c5.4-4.8,9.3-10.5,13.1-15.8c7-9.9,13.2-18.8,26.4-19.4c0,0-13.9,28.6-5.5,43.5
		c2,3.5,5.6,5.2,9,6.8c4.2,2,8.1,3.8,8.1,8.8c-0.1,4.5-4.2,6-8.4,7.6c-4.1,1.5-8.3,3.1-8.6,7.5C369,253.8,382.6,262.5,382.6,262.5z"
		/>
	<path class="st0" d="M600.2,262.5c0,0-22.6-39-41.4-60.7c-7.8-9-9.9-17.8-20.9-22.1c-24.3-9.4-25.5,32.1-43.9,50.7
		c-13,13.2-34.9,32.1-34.9,32.1h70.5H600.2z"/>
	<path class="st1" d="M558.8,201.7c18.7,21.7,41.4,60.7,41.4,60.7h-70.5c0,0,6.3-19.3,8.2-32.1c3-19.6,0-50.7,0-50.7
		c7.6,2.9,10.9,8,14.8,13.8C554.5,196.1,556.4,198.9,558.8,201.7z"/>
	<path class="st2" d="M722.2,196.6c7.8,27,29.1,65.9,29.1,65.9H543.2c0,0,21.9-35.7,34.6-59.3c17.8-33.2,19.8-56.2,41.1-87.2
		c12.6-18.3,15.1-38.6,36.6-43.6c8-1.9,13.1-2,21.1,0c13.2,3.3,19.8,10.1,27.6,21.3c7.7,11.1,8.4,19.6,10.5,32.9
		c2.2,13.9-1.6,22,0,36C716.2,176.2,722.2,196.6,722.2,196.6z"/>
	<path class="st2" d="M1117,265c0,0-33.2-34.3-59.5-48.6c-16.1-8.7-43.5-17.5-43.5-17.5s-30.4,18.8-51.5,27.1
		c-27.5,10.7-73.5,17-73.5,17l-19,20.6l161.7,1L1117,265z"/>
	<path class="st3" d="M1057.5,216.4c26.4,14.3,59.5,48.6,59.5,48.6l-85.5-0.5c0.6-3.6,4.2-25.3-0.1-38.6
		c-3.9-12-17.5-27.1-17.5-27.1S1041.4,207.6,1057.5,216.4z"/>
	<path class="st0" d="M736.8,224.9c-6.9,14.3-14,38.1-14,38.1h84.5h84.6l-9.5-31.6c0,0-7.5-19.8-12-32.6c-6.1-17.3-3.1-30.6-15-44.6
		c-10.1-11.8-26.4-16.9-41.5-20.6c-11.8-2.8-12.9-5.9-23.5,0c-8.8,4.9-10.1,12.1-15.5,20.6c-8.6,13.5-9.9,23-17.5,37.1
		C750,204.8,743.5,211.1,736.8,224.9z"/>
	<path class="st1" d="M807.3,263h84.6l-9.5-31.6c0,0-7.5-19.8-12-32.6c-2.2-6.3-3.3-12.1-4.2-17.5c-1.7-9.6-3.2-18.2-10.8-27.1
		c-10.1-11.8-26.4-16.9-41.5-20.6c0,0-2.4,22.8,0,37.1c1.2,7,3.9,12.2,6.5,17.2c3,5.7,5.9,11.3,6.5,19.4
		C828.5,230.3,807.3,263,807.3,263z"/>
</g>
<g>
	<rect x="88.7" y="17" class="st4" width="144.1" height="16.5"/>
	<path class="st5" d="M88.7,11.9h144.1V17H88.7V11.9z"/>
	<path class="st6" d="M102.4,8.2c0-3.4-2.2-6.1-4.9-6.1c-2.7,0-4.9,2.7-4.9,6.1H102.4z"/>
	<path class="st6" d="M138.5,8.2c0-3.4-2.2-6.1-4.9-6.1c-2.7,0-4.9,2.7-4.9,6.1H138.5z"/>
	<path class="st6" d="M120.5,8.2c0-3.4-2.2-6.1-4.9-6.1c-2.7,0-4.9,2.7-4.9,6.1H120.5z"/>
	<path class="st6" d="M156.6,8.2c0-3.4-2.2-6.1-4.9-6.1c-2.7,0-4.9,2.7-4.9,6.1H156.6z"/>
	<path class="st6" d="M174.7,8.2c0-3.4-2.2-6.1-4.9-6.1c-2.7,0-4.9,2.7-4.9,6.1H174.7z"/>
	<rect x="92.6" y="8" class="st5" width="9.8" height="4.3"/>
	<rect x="128.7" y="8" class="st5" width="9.8" height="4.3"/>
	<rect x="146.8" y="8" class="st5" width="9.8" height="4.3"/>
	<rect x="110.6" y="8" class="st5" width="9.8" height="4.3"/>
	<path class="st6" d="M182.9,8v0.2v4.1h9.8V8.2V8h0c-0.1-3.3-2.2-5.9-4.9-5.9C185.2,2.1,183,4.7,182.9,8L182.9,8z M210.8,8
		c-0.1-3.3-2.2-5.9-4.9-5.9c-2.7,0-4.8,2.6-4.9,5.9h0v0.2v4.1h9.8V8.2L210.8,8L210.8,8z M224,2.1c2.7,0,4.8,2.6,4.9,5.9h0v0.2v4.1
		h-9.8V8.2V8h0C219.2,4.7,221.3,2.1,224,2.1z M174.7,8h-9.8v4.3h9.8V8z"/>
	<rect x="88.7" y="33.6" class="st5" width="144.6" height="168.3"/>
	<rect x="422.4" y="99.1" class="st5" width="3.1" height="48"/>
	<path class="st5" d="M454.4,111l-29.4,9.8v-19.6L454.4,111z"/>
	<rect x="357.8" y="90.9" class="st5" width="3.1" height="48"/>
	<path class="st5" d="M389.8,102.8l-29.4,9.8V92.9L389.8,102.8z"/>
	<rect x="278.3" y="130.1" class="st5" width="27.9" height="71.8"/>
	<path class="st1" d="M176.5,107.4c0-7.4-7.7-13.4-17.3-13.4c-9.6,0-17.3,6-17.3,13.4H176.5z"/>
	<rect x="141.9" y="107.4" class="st2" width="34.6" height="10.8"/>
	<path class="st7" d="M148.1,105.7c0.1-2.8,3.2-5,7-5v5l0,0v8.4h-7v-8.2l0,0c0,0,0,0,0,0L148.1,105.7L148.1,105.7z"/>
	<path class="st7" d="M163.9,105.9L163.9,105.9l0-5.2c3.8,0,6.8,2.2,7,5h0v8.4h-7V105.9z"/>
	<path class="st1" d="M187.4,41.2c0-1.1,0.9-2,2-2h26.9h7.2c1.7,0,2.6,1.9,1.6,3.2l-8.8,11.2v0c0,0,0,0,0,0l0,0l0,0l0,0v43.9h-28.9
		V52.2h0.1c0-0.1-0.1-0.3-0.1-0.5V41.2z M183.8,49.2c1.2,1.5,3.6,0.7,3.6-1.2v-6.7c0-1.1-0.9-2-2-2h-5.2c-1.7,0-2.6,1.9-1.6,3.2
		L183.8,49.2z M278.3,97.6h-90.9v20.7h-51.6v52.7h51.6v31h90.9V97.6z M249.3,70.7c0-1.1,0.9-2,2-2h26.9h7.2c1.7,0,2.6,1.9,1.6,3.2
		l-8.8,11.2v14.5h-28.9v-16c0-0.2-0.1-0.3-0.1-0.5V70.7z M245.7,78.6c1.2,1.5,3.6,0.7,3.6-1.2v-6.7c0-1.1-0.9-2-2-2H242
		c-1.7,0-2.6,1.9-1.6,3.2L245.7,78.6z"/>
	<path class="st7" d="M199.5,110c2.1,0,3.8,2.8,3.8,6.2l0,0v43.4h-7.7v-43.4l0,0C195.6,112.8,197.3,110,199.5,110z"/>
	<path class="st7" d="M263.7,116.2c0-3.4-1.7-6.2-3.8-6.2c-2.1,0-3.8,2.8-3.8,6.2l0,0v85.7h7.7L263.7,116.2L263.7,116.2z"/>
	<path class="st7" d="M243.6,116.2c0-3.4-1.7-6.2-3.8-6.2c-2.1,0-3.8,2.8-3.8,6.2l0,0v85.7h7.7L243.6,116.2L243.6,116.2z"/>
	<path class="st7" d="M215.8,116.2L215.8,116.2v85.7h7.7v-85.7h-0.1c0-3.4-1.7-6.2-3.8-6.2C217.5,110,215.8,112.8,215.8,116.2z"/>
	<rect x="339.7" y="178.1" class="st5" width="134.3" height="84.7"/>
	<rect x="212.1" y="196.7" class="st5" width="127.6" height="66.1"/>
	<rect x="212.1" y="185.4" class="st4" width="127.6" height="11.4"/>
	<path class="st6" d="M234.9,172.5c-0.1-4.3-3-7.7-6.5-7.7c-3.5,0-6.3,3.4-6.5,7.7h0v0.3v5.4h12.9v-5.4L234.9,172.5L234.9,172.5z
		 M339.7,178.1v7.2H212.1v-7.2H339.7z M275.9,164.7c3.5,0,6.3,3.4,6.5,7.7h0v0.3v5.4h-12.9v-5.4v-0.3h0
		C269.6,168.2,272.4,164.7,275.9,164.7z M258.6,172.5c-0.1-4.3-3-7.7-6.5-7.7s-6.3,3.4-6.5,7.7h0v0.3v5.4h12.9v-5.4L258.6,172.5
		L258.6,172.5z M293.2,172.7v-0.3h0c0.1-4.3,3-7.7,6.5-7.7s6.3,3.4,6.5,7.7h0v0.3v5.4h-12.9V172.7z M317,172.5v0.3v5.4h12.9v-5.4
		v-0.3h0c-0.1-4.3-3-7.7-6.5-7.7C320,164.7,317.1,168.2,317,172.5L317,172.5z"/>
	<rect x="56.7" y="196.7" class="st5" width="127.6" height="66.1"/>
	<rect x="56.7" y="185.4" class="st4" width="127.6" height="11.4"/>
	<path class="st6" d="M66.5,172.5v0.3v5.4h12.9v-5.4v-0.3h0c-0.1-4.3-3-7.7-6.5-7.7S66.6,168.2,66.5,172.5L66.5,172.5z M56.7,178.1
		h127.6v7.2H56.7V178.1z M90.3,172.7v-0.3h0c0.1-4.3,3-7.7,6.5-7.7c3.5,0,6.3,3.4,6.5,7.7h0v0.3v5.4H90.3V172.7z"/>
	<path class="st1" d="M348,143c-0.2-2.9-2.2-5.2-4.6-5.2c-2.4,0-4.4,2.3-4.6,5.2h0v0.5v3.6h1.8c-2.1,0-3.8,1.7-3.8,3.9
		c0,2.1,1.7,3.9,3.9,3.9h38.2c2.1,0,3.9-1.7,3.9-3.9c0-2.1-1.7-3.9-3.8-3.9h0.7v-3.6V143h0c-0.2-2.9-2.2-5.2-4.6-5.2
		c-2.4,0-4.4,2.3-4.6,5.2h0v0.5v3.6H364v-3.6V143h0c-0.2-2.9-2.2-5.2-4.6-5.2c-2.4,0-4.4,2.3-4.6,5.2h0v0.5v3.6H348v-3.6L348,143
		L348,143z"/>
	<path class="st1" d="M412.5,143c-0.2-2.9-2.2-5.2-4.6-5.2c-2.4,0-4.4,2.3-4.6,5.2h0v0.5v3.6h1.8c-2.1,0-3.8,1.7-3.8,3.9
		c0,2.1,1.7,3.9,3.9,3.9h38.2c2.1,0,3.9-1.7,3.9-3.9c0-2.1-1.7-3.9-3.8-3.9h0.7v-3.6V143h0c-0.2-2.9-2.2-5.2-4.6-5.2
		c-2.4,0-4.4,2.3-4.6,5.2h0v0.5v3.6h-6.2v-3.6V143h0c-0.2-2.9-2.2-5.2-4.6-5.2s-4.4,2.3-4.6,5.2h0v0.5v3.6h-6.7v-3.6L412.5,143
		L412.5,143z"/>
	<rect x="339.7" y="154.9" class="st5" width="33.6" height="23.2"/>
	<rect x="373.3" y="154.9" class="st4" width="6.2" height="23.2"/>
	<rect x="404.3" y="154.9" class="st5" width="33.6" height="23.2"/>
	<rect x="437.8" y="154.9" class="st4" width="6.2" height="23.2"/>
	<path class="st7" d="M352.1,173.2v-0.6h0c0.3-4.1,3.5-7.4,7.5-7.4s7.2,3.3,7.5,7.4h0v0.6v12.5h-15.1V173.2z"/>
	<path class="st7" d="M352.1,202.2v-0.6h0c0.3-4.1,3.5-7.4,7.5-7.4s7.2,3.3,7.5,7.4h0v0.6v12.5h-15.1V202.2z"/>
	<path class="st7" d="M375.4,237C375.4,237.1,375.4,237.1,375.4,237L375.4,237v26h31.3v-27.2h0c-0.6-8.6-7.4-15.3-15.6-15.3
		c-8.2,0-15,6.7-15.6,15.3h0V237z"/>
	<path class="st7" d="M413.6,173.2v-0.6h0c0.3-4.1,3.6-7.4,7.5-7.4s7.2,3.3,7.5,7.4h0v0.6v12.5h-15.1V173.2z"/>
	<path class="st7" d="M413.6,202.2v-0.6h0c0.3-4.1,3.6-7.4,7.5-7.4s7.2,3.3,7.5,7.4h0v0.6v12.5h-15.1V202.2z"/>
	<rect x="107.3" y="223.6" class="st2" width="134.3" height="39.2"/>
	<path class="st4" d="M108.3,209.1h134.3c4,0,7.2,3.2,7.2,7.2v0c0,4-3.2,7.2-7.2,7.2H108.3c-4,0-7.2-3.2-7.2-7.2v0
		C101.1,212.4,104.3,209.1,108.3,209.1z"/>
	<path class="st4" d="M114.5,142h89.4c4,0,7.2,3.2,7.2,7.2v0c0,4-3.2,7.2-7.2,7.2h-89.4c-4,0-7.2-3.2-7.2-7.2v0
		C107.3,145.2,110.5,142,114.5,142z"/>
	<rect x="113" y="156.5" class="st5" width="89.9" height="52.7"/>
	
		<rect x="152.5" y="175.8" transform="matrix(0.7072 -0.707 0.707 0.7072 -82.4502 166.0277)" class="st2" width="13.5" height="13.5"/>
	
		<rect x="178.3" y="175.8" transform="matrix(0.7072 -0.707 0.707 0.7072 -74.8882 184.2868)" class="st2" width="13.5" height="13.5"/>
	
		<rect x="126.6" y="175.8" transform="matrix(0.7072 -0.707 0.707 0.7072 -90.0117 147.77)" class="st2" width="13.5" height="13.5"/>
	<rect x="200.8" y="0" class="st2" width="2.1" height="30.5"/>
	<path class="st2" d="M221.4,7.2l-18.6,6.2V1L221.4,7.2z"/>
	<rect x="262.8" y="29.9" class="st2" width="2.1" height="30.5"/>
	<path class="st2" d="M283.4,37.2l-18.6,6.2V31L283.4,37.2z"/>
	<rect x="4" y="151.3" class="st5" width="37.2" height="111.5"/>
	<path class="st6" d="M88.7,85.7h-79v65.6h25.8v-14.7v-2.2h0.1c1.1-14.5,13-26,27.6-26c11.5,0,21.4,7.2,25.6,17.4V85.7z"/>
	<path class="st6" d="M35.5,60.9H9.7v24.8h25.8V60.9z M15.9,72.7L15.9,72.7v-0.6h0c0.2-4.8,3.2-8.5,6.8-8.5c3.6,0,6.6,3.8,6.8,8.5h0
		v11.2H15.9V72.7L15.9,72.7z"/>
	<path class="st5" d="M22.6,45.4l12.9,15.5H9.7L22.6,45.4z"/>
	<path class="st7" d="M274.2,68.7c0-5.7-4.6-10.4-10.4-10.4c-5.7,0-10.4,4.6-10.4,10.4H274.2z"/>
	<path class="st7" d="M212.2,39.3c0-5.7-4.6-10.4-10.4-10.4c-5.7,0-10.4,4.6-10.4,10.4H212.2z"/>
</g>
</svg>
