<svg width="1122" height="310" viewBox="0 0 1122 310" fill="none" xmlns="http://www.w3.org/2000/svg">
<g filter="url(#filter0_d_484_3)">
<path d="M447.603 244.493C447.603 244.493 432.821 226.309 423.588 214.455C418.264 207.619 413.15 205.033 410.08 196.847C406.334 186.854 414.686 178.999 410.08 169.399C403.508 155.696 390.325 152.679 375.56 153.344C355.214 154.26 351.42 174.747 336.036 188.561L274.5 244.493H383.064H447.603Z" fill="#20EFA5"/>
<path fill-rule="evenodd" clip-rule="evenodd" d="M383.064 244.493H274.5L336.036 188.561C341.413 183.733 345.374 178.09 349.121 172.752C356.094 162.817 362.325 153.94 375.56 153.344C375.56 153.344 361.685 181.917 370.057 196.847C372.014 200.338 375.619 202.02 379.008 203.601C383.249 205.58 387.152 207.402 387.067 212.411C386.991 216.873 382.849 218.412 378.669 219.964C374.536 221.499 370.367 223.047 370.057 227.45C369.467 235.808 383.064 244.493 383.064 244.493Z" fill="#00B574"/>
<path d="M600.693 244.493C600.693 244.493 578.045 205.467 559.316 183.744C551.551 174.739 549.428 165.942 538.377 161.654C514.041 152.21 512.907 193.748 494.507 212.362C481.479 225.541 459.61 244.493 459.61 244.493H530.152H600.693Z" fill="#20EFA5"/>
<path fill-rule="evenodd" clip-rule="evenodd" d="M559.316 183.744C578.045 205.467 600.693 244.493 600.693 244.493H530.152C530.152 244.493 536.421 225.17 538.377 212.362C541.367 192.789 538.377 161.654 538.377 161.654C545.943 164.59 549.324 169.64 553.196 175.422C554.98 178.086 556.867 180.905 559.316 183.744Z" fill="#00B574"/>
<path d="M722.696 178.611C730.535 205.648 751.783 244.494 751.783 244.494H543.66C543.66 244.494 565.597 208.839 578.263 185.199C596.031 152.036 598.078 128.991 619.386 98.0313C632.001 79.7027 634.46 59.4255 655.996 54.4473C664.015 52.5938 669.076 52.4428 677.059 54.4473C690.212 57.7502 696.839 64.5342 704.642 75.7325C712.344 86.7861 713.051 95.3259 715.173 108.674C717.379 122.548 713.62 130.692 715.173 144.656C716.676 158.159 722.696 178.611 722.696 178.611Z" fill="#00B574"/>
<path d="M1117.5 247C1117.5 247 1084.34 212.692 1057.96 198.375C1041.86 189.63 1014.44 180.83 1014.44 180.83C1014.44 180.83 984.078 199.63 962.908 207.899C935.443 218.628 889.365 224.943 889.365 224.943L870.353 245.496L1032.04 246.48L1117.5 247Z" fill="#00B574"/>
<path fill-rule="evenodd" clip-rule="evenodd" d="M1057.96 198.375C1084.34 212.692 1117.5 247 1117.5 247L1032.04 246.48C1032.69 242.86 1036.28 221.17 1031.95 207.899C1028.04 195.925 1014.44 180.83 1014.44 180.83C1014.44 180.83 1041.86 189.63 1057.96 198.375Z" fill="#20EFA5"/>
<path d="M737.274 206.897C730.355 221.156 723.266 244.995 723.266 244.995H807.816H892.366L882.861 213.413C882.861 213.413 875.388 193.61 870.854 180.829C864.707 163.505 867.769 150.189 855.845 136.214C845.763 124.399 829.4 119.312 814.32 115.661C802.546 112.811 801.389 109.756 790.806 115.661C782.033 120.558 780.701 127.733 775.297 136.214C766.691 149.722 765.406 159.22 757.787 173.31C750.475 186.83 743.985 193.067 737.274 206.897Z" fill="#20EFA5"/>
<path fill-rule="evenodd" clip-rule="evenodd" d="M807.816 244.995H892.366L882.861 213.413C882.861 213.413 875.388 193.61 870.854 180.829C868.618 174.527 867.6 168.756 866.637 163.29C864.952 153.73 863.432 145.106 855.845 136.214C845.763 124.399 829.4 119.312 814.32 115.661C814.32 115.661 811.916 138.472 814.32 152.757C815.502 159.776 818.189 164.935 820.826 169.996C823.809 175.721 826.727 181.322 827.328 189.351C829.046 212.319 807.816 244.995 807.816 244.995Z" fill="#00B574"/>
</g>
<g filter="url(#filter1_d_484_3)">
<rect x="88.6396" y="17.04" width="143.992" height="16.524" fill="#FFC25E"/>
<path d="M88.6416 11.8765H232.634V17.0402H88.6416V11.8765Z" fill="#FF700D"/>
<path fill-rule="evenodd" clip-rule="evenodd" d="M102.305 8.15459C102.305 4.79164 100.108 2.06543 97.3973 2.06543C94.6866 2.06543 92.4893 4.79164 92.4893 8.15459H102.305Z" fill="#FF700D"/>
<path fill-rule="evenodd" clip-rule="evenodd" d="M138.429 8.15459C138.429 4.79164 136.232 2.06543 133.521 2.06543C130.811 2.06543 128.613 4.79164 128.613 8.15459H138.429Z" fill="#FF700D"/>
<path fill-rule="evenodd" clip-rule="evenodd" d="M120.368 8.15459C120.368 4.79164 118.17 2.06543 115.46 2.06543C112.749 2.06543 110.552 4.79164 110.552 8.15459H120.368Z" fill="#FF700D"/>
<path fill-rule="evenodd" clip-rule="evenodd" d="M156.49 8.15459C156.49 4.79164 154.292 2.06543 151.582 2.06543C148.871 2.06543 146.674 4.79164 146.674 8.15459H156.49Z" fill="#FF700D"/>
<path fill-rule="evenodd" clip-rule="evenodd" d="M174.552 8.15459C174.552 4.79164 172.355 2.06543 169.644 2.06543C166.934 2.06543 164.736 4.79164 164.736 8.15459H174.552Z" fill="#FF700D"/>
<rect x="92.4893" y="7.95801" width="9.81602" height="4.32134" fill="#FF700D"/>
<rect x="128.613" y="7.95801" width="9.81602" height="4.32134" fill="#FF700D"/>
<rect x="146.674" y="7.95801" width="9.81602" height="4.32134" fill="#FF700D"/>
<rect x="110.552" y="7.95801" width="9.81602" height="4.32134" fill="#FF700D"/>
<path fill-rule="evenodd" clip-rule="evenodd" d="M182.803 7.95825V8.15459V12.2796H192.619V8.15459V7.95825H192.616C192.533 4.68617 190.368 2.06543 187.711 2.06543C185.053 2.06543 182.889 4.68617 182.805 7.95825H182.803ZM210.678 7.95825C210.594 4.68617 208.43 2.06543 205.772 2.06543C203.115 2.06543 200.95 4.68617 200.867 7.95825H200.864V8.15459V12.2796H210.68V8.15459V7.95825H210.678ZM223.835 2.06543C226.492 2.06543 228.657 4.68617 228.74 7.95825H228.743V8.15459V12.2796H218.927V8.15459V7.95825H218.929C219.013 4.68617 221.177 2.06543 223.835 2.06543ZM174.558 7.95822H164.742V12.2796H174.558V7.95822Z" fill="#FF700D"/>
<rect x="88.6396" y="33.5645" width="144.508" height="168.338" fill="#FF700D"/>
<rect x="422.041" y="99.144" width="3.09661" height="48.0228" fill="#FF700D"/>
<path d="M454.04 111.021L424.622 120.832V101.209L454.04 111.021Z" fill="#FF700D"/>
<rect x="357.529" y="90.8818" width="3.09661" height="48.0228" fill="#FF700D"/>
<path d="M389.527 102.758L360.11 112.57V92.9473L389.527 102.758Z" fill="#FF700D"/>
<rect x="278.049" y="130.126" width="27.8695" height="71.7761" fill="#FF700D"/>
<path fill-rule="evenodd" clip-rule="evenodd" d="M176.377 107.406C176.377 99.9909 168.636 93.98 159.087 93.98C149.539 93.98 141.798 99.9909 141.798 107.406H176.377Z" fill="#00B574"/>
<rect x="141.798" y="107.406" width="34.5788" height="10.8439" fill="#00B574"/>
<path fill-rule="evenodd" clip-rule="evenodd" d="M147.991 105.871V105.68H147.996C148.132 102.908 151.197 100.693 154.959 100.693L154.959 105.68L154.959 105.871L154.959 114.119H147.991V105.871Z" fill="#FFC25E"/>
<path fill-rule="evenodd" clip-rule="evenodd" d="M170.699 105.871V105.68H170.695C170.559 102.908 167.493 100.693 163.732 100.693L163.732 105.68L163.732 105.871L163.732 114.119H170.699V105.871Z" fill="#FFC25E"/>
<path fill-rule="evenodd" clip-rule="evenodd" d="M187.215 41.2441C187.215 40.1396 188.11 39.2441 189.215 39.2441H216.116L223.356 39.2441C225.025 39.2441 225.96 41.167 224.929 42.4794L216.117 53.7011L216.116 53.7017L216.116 53.7023C216.116 53.7025 216.116 53.7026 216.116 53.7026L216.116 97.5945H187.214V52.1536H187.266C187.232 52.0086 187.215 51.8577 187.215 51.7026V41.2441ZM183.642 49.1528C184.815 50.6468 187.215 49.8172 187.215 47.9176V41.2441C187.215 40.1396 186.319 39.2441 185.215 39.2441H179.974C178.305 39.2441 177.37 41.1671 178.401 42.4794L183.642 49.1528ZM278.048 97.5946H187.214V118.249H135.604V170.92H187.214V201.902H278.048V97.5946ZM249.091 70.6776C249.091 69.573 249.986 68.6776 251.091 68.6776H277.992L285.232 68.6776C286.901 68.6776 287.836 70.6005 286.805 71.9129L278.048 83.0639V97.5945H249.147V81.6069C249.11 81.4559 249.091 81.2982 249.091 81.1361V70.6776ZM245.518 78.5863C246.691 80.0803 249.091 79.2507 249.091 77.3511V70.6776C249.091 69.573 248.195 68.6776 247.091 68.6776H241.85C240.181 68.6776 239.246 70.6005 240.277 71.9129L245.518 78.5863Z" fill="#00B574"/>
<path fill-rule="evenodd" clip-rule="evenodd" d="M203.147 116.184C203.147 116.184 203.147 116.184 203.147 116.184V159.56H195.473V116.184C195.473 116.184 195.473 116.184 195.473 116.184C195.473 112.762 197.191 109.988 199.31 109.988C201.429 109.988 203.147 112.762 203.147 116.184Z" fill="#FFC25E"/>
<path fill-rule="evenodd" clip-rule="evenodd" d="M255.858 116.184C255.858 116.184 255.858 116.184 255.858 116.184C255.858 112.762 257.576 109.988 259.695 109.988C261.814 109.988 263.532 112.762 263.532 116.184H263.6V201.902H255.858V116.184Z" fill="#FFC25E"/>
<path fill-rule="evenodd" clip-rule="evenodd" d="M235.73 116.184C235.73 116.184 235.73 116.184 235.73 116.184C235.73 112.762 237.448 109.988 239.567 109.988C241.686 109.988 243.404 112.762 243.404 116.184H243.472V201.902H235.73V116.184Z" fill="#FFC25E"/>
<path fill-rule="evenodd" clip-rule="evenodd" d="M215.602 116.184C215.602 116.184 215.602 116.184 215.602 116.184C215.602 112.762 217.319 109.988 219.439 109.988C221.558 109.988 223.276 112.762 223.276 116.184H223.343V201.902H215.602V116.184Z" fill="#FFC25E"/>
<rect x="339.465" y="178.149" width="134.186" height="84.6854" fill="#FF700D"/>
<rect x="211.988" y="196.739" width="127.477" height="66.0959" fill="#FF700D"/>
<rect x="211.988" y="185.378" width="127.477" height="11.3602" fill="#FFC25E"/>
<path fill-rule="evenodd" clip-rule="evenodd" d="M234.694 172.469C234.584 168.168 231.739 164.724 228.246 164.724C224.753 164.724 221.908 168.168 221.798 172.469H221.795V172.727V178.149H234.697V172.727V172.469H234.694ZM339.465 178.149V185.379H211.988V178.149H339.465ZM275.728 164.724C279.221 164.724 282.066 168.168 282.176 172.469H282.179V172.727V178.149H269.276V172.727V172.469H269.28C269.39 168.168 272.234 164.724 275.728 164.724ZM258.434 172.469C258.325 168.168 255.48 164.724 251.986 164.724C248.493 164.724 245.648 168.168 245.538 172.469H245.535V172.727V178.149H258.438L258.438 172.727L258.438 172.469H258.434ZM293.017 172.727V172.469H293.02C293.13 168.168 295.975 164.724 299.468 164.724C302.961 164.724 305.806 168.168 305.916 172.469H305.919V172.727V178.149H293.017V172.727ZM316.758 172.469V172.727V178.149H329.66V172.727V172.469H329.657C329.547 168.168 326.702 164.724 323.209 164.724C319.716 164.724 316.871 168.168 316.761 172.469H316.758Z" fill="#FF700D"/>
<rect x="56.6406" y="196.739" width="127.477" height="66.0959" fill="#FF700D"/>
<rect x="56.6406" y="185.378" width="127.477" height="11.3602" fill="#FFC25E"/>
<path fill-rule="evenodd" clip-rule="evenodd" d="M66.4473 172.469V172.727V178.149H79.3498V172.727V172.469H79.3465C79.2366 168.168 76.3918 164.724 72.8985 164.724C69.4052 164.724 66.5604 168.168 66.4506 172.469H66.4473ZM56.6406 178.149H184.118V185.379H56.6406V178.149ZM90.1876 172.727V172.469H90.1909C90.3007 168.168 93.1455 164.724 96.6388 164.724C100.132 164.724 102.977 168.168 103.087 172.469H103.09V172.727V178.149H90.1876V172.727Z" fill="#FF700D"/>
<path fill-rule="evenodd" clip-rule="evenodd" d="M347.704 143.036C347.49 140.141 345.501 137.872 343.078 137.872C340.655 137.872 338.665 140.141 338.452 143.036H338.433V143.552V147.167H340.219C338.09 147.179 336.368 148.908 336.368 151.04C336.368 153.179 338.102 154.912 340.241 154.912H378.428C380.567 154.912 382.301 153.179 382.301 151.04C382.301 148.908 380.579 147.179 378.45 147.167H379.205V143.552V143.036H379.186C378.973 140.141 376.983 137.872 374.56 137.872C372.137 137.872 370.147 140.141 369.934 143.036H369.915V143.552V147.167H363.722V143.552V143.036H363.704C363.49 140.141 361.501 137.872 359.078 137.872C356.655 137.872 354.665 140.141 354.452 143.036H354.433V143.552V147.167H347.722V143.552V143.036H347.704Z" fill="#00B574"/>
<path fill-rule="evenodd" clip-rule="evenodd" d="M412.215 143.036C412.002 140.141 410.012 137.872 407.589 137.872C405.166 137.872 403.177 140.141 402.963 143.036H402.944V143.552V147.167H404.731C402.602 147.179 400.88 148.908 400.88 151.04C400.88 153.179 402.614 154.912 404.753 154.912H442.94C445.079 154.912 446.813 153.179 446.813 151.04C446.813 148.908 445.091 147.179 442.962 147.167H443.717V143.552V143.036H443.698C443.485 140.141 441.495 137.872 439.072 137.872C436.649 137.872 434.659 140.141 434.446 143.036H434.427V143.552V147.167H428.234V143.552V143.036H428.215C428.002 140.141 426.012 137.872 423.589 137.872C421.166 137.872 419.177 140.141 418.963 143.036H418.944V143.552V147.167H412.234V143.552V143.036H412.215Z" fill="#00B574"/>
<rect x="339.465" y="154.913" width="33.5466" height="23.2369" fill="#FF700D"/>
<rect x="373.012" y="154.913" width="6.19321" height="23.2369" fill="#FFC25E"/>
<rect x="403.977" y="154.913" width="33.5466" height="23.2369" fill="#FF700D"/>
<rect x="437.523" y="154.913" width="6.19321" height="23.2369" fill="#FFC25E"/>
<path fill-rule="evenodd" clip-rule="evenodd" d="M351.851 173.236V172.621H351.873C352.169 168.492 355.42 165.24 359.387 165.24C363.355 165.24 366.606 168.492 366.902 172.621H366.924V173.236V185.743H351.851V173.236Z" fill="#FFC25E"/>
<path fill-rule="evenodd" clip-rule="evenodd" d="M351.851 202.153V201.538H351.873C352.169 197.409 355.42 194.157 359.387 194.157C363.355 194.157 366.606 197.409 366.902 201.538H366.924V202.153V214.659H351.851V202.153Z" fill="#FFC25E"/>
<path fill-rule="evenodd" clip-rule="evenodd" d="M375.077 237.07V235.795H375.123C375.737 227.235 382.477 220.492 390.703 220.492C398.928 220.492 405.669 227.235 406.283 235.795H406.329L406.329 237.07L406.329 263H375.077V237.07Z" fill="#FFC25E"/>
<path fill-rule="evenodd" clip-rule="evenodd" d="M413.267 173.236V172.621H413.289C413.585 168.492 416.836 165.24 420.803 165.24C424.771 165.24 428.022 168.492 428.318 172.621H428.34V173.236V185.743H413.267V173.236Z" fill="#FFC25E"/>
<path fill-rule="evenodd" clip-rule="evenodd" d="M413.267 202.153V201.538H413.289C413.585 197.409 416.836 194.157 420.803 194.157C424.771 194.157 428.022 197.409 428.318 201.538H428.34V202.153V214.659H413.267V202.153Z" fill="#FFC25E"/>
<rect x="107.22" y="223.59" width="134.186" height="39.2445" fill="#00B574"/>
<rect x="101.026" y="209.132" width="148.637" height="14.4585" rx="7.22924" fill="#FFC25E"/>
<rect x="107.22" y="142.003" width="103.736" height="14.4585" rx="7.22924" fill="#FFC25E"/>
<rect x="112.896" y="156.461" width="89.8016" height="52.6702" fill="#FF700D"/>
<rect width="13.5291" height="13.5291" transform="matrix(0.706919 -0.707294 0.706919 0.707294 149.539 182.555)" fill="#00B574"/>
<rect width="13.5291" height="13.5291" transform="matrix(0.706919 -0.707294 0.706919 0.707294 175.345 182.555)" fill="#00B574"/>
<rect width="13.5291" height="13.5291" transform="matrix(0.706919 -0.707294 0.706919 0.707294 123.735 182.555)" fill="#00B574"/>
<rect x="200.634" width="2.0644" height="30.4661" fill="#00B574"/>
<path d="M221.278 7.22916L202.699 13.4257V1.03271L221.278 7.22916Z" fill="#00B574"/>
<rect x="262.566" y="29.9497" width="2.0644" height="30.4661" fill="#00B574"/>
<path d="M283.21 37.1789L264.63 43.3754V30.9824L283.21 37.1789Z" fill="#00B574"/>
<rect x="4" y="151.298" width="37.1593" height="111.537" fill="#FF700D"/>
<path fill-rule="evenodd" clip-rule="evenodd" d="M88.6412 85.7183H9.67773V151.298H35.4834V136.591V134.425H35.5639C36.6484 119.889 48.5601 108.439 63.0948 108.439C74.6283 108.439 84.5101 115.649 88.6412 125.889V85.7183Z" fill="#FF700D"/>
<path fill-rule="evenodd" clip-rule="evenodd" d="M35.4828 60.9321H9.67773V85.7181H35.4828V60.9321ZM15.8711 72.0529V72.6761V83.2602H29.5616V72.6761V72.0529H29.546C29.3067 67.2835 26.3404 63.514 22.7164 63.514C19.0923 63.514 16.126 67.2835 15.8867 72.0529H15.8711Z" fill="#FF700D"/>
<path d="M22.5793 45.4409L35.4818 60.9322H9.67676L22.5793 45.4409Z" fill="#FF700D"/>
<path fill-rule="evenodd" clip-rule="evenodd" d="M274.027 68.7315C274.027 62.9983 269.382 58.3506 263.652 58.3506C257.922 58.3506 253.276 62.9983 253.276 68.7315H274.027Z" fill="#FFC25E"/>
<path fill-rule="evenodd" clip-rule="evenodd" d="M212.095 39.2979C212.095 33.5647 207.449 28.917 201.719 28.917C195.989 28.917 191.344 33.5647 191.344 39.2979H212.095Z" fill="#FFC25E"/>
</g>
<g filter="url(#filter2_d_484_3)">
<path fill-rule="evenodd" clip-rule="evenodd" d="M521.561 285.683C531.824 285.211 540 276.737 540 266.352C540 255.664 531.341 247 520.658 247C513.265 247 506.84 251.151 503.585 257.251C501.731 256.349 499.647 255.842 497.443 255.842C495.423 255.842 493.504 256.268 491.77 257.033C489.349 251.911 484.05 248.358 477.903 248.358C471.025 248.358 465.209 252.808 463.298 258.925C461.739 258.328 460.045 258.001 458.273 258.001C450.562 258.001 444.31 264.202 444.31 271.852C444.31 278.955 449.698 284.808 456.641 285.61V285.704H521.561V285.683Z" fill="#00B574"/>
<path fill-rule="evenodd" clip-rule="evenodd" d="M444.988 301.893C438.102 301.04 432.773 295.211 432.773 288.149C432.773 280.499 439.024 274.297 446.736 274.297C448.637 274.297 450.45 274.674 452.102 275.357C454.43 269.112 460.546 264.654 467.723 264.654C476.857 264.654 484.271 271.873 484.35 280.807C486.801 276.821 491.226 274.161 496.278 274.161C503.989 274.161 510.241 280.362 510.241 288.012C510.241 295.566 504.145 301.708 496.566 301.86V302H444.988V301.893Z" fill="#20EFA5"/>
</g>
<defs>
<filter id="filter0_d_484_3" x="270.5" y="53" width="851" height="202" filterUnits="userSpaceOnUse" color-interpolation-filters="sRGB">
<feFlood flood-opacity="0" result="BackgroundImageFix"/>
<feColorMatrix in="SourceAlpha" type="matrix" values="0 0 0 0 0 0 0 0 0 0 0 0 0 0 0 0 0 0 127 0" result="hardAlpha"/>
<feOffset dy="4"/>
<feGaussianBlur stdDeviation="2"/>
<feComposite in2="hardAlpha" operator="out"/>
<feColorMatrix type="matrix" values="0 0 0 0 0 0 0 0 0 0 0 0 0 0 0 0 0 0 0.25 0"/>
<feBlend mode="normal" in2="BackgroundImageFix" result="effect1_dropShadow_484_3"/>
<feBlend mode="normal" in="SourceGraphic" in2="effect1_dropShadow_484_3" result="shape"/>
</filter>
<filter id="filter1_d_484_3" x="0" y="0" width="477.651" height="271" filterUnits="userSpaceOnUse" color-interpolation-filters="sRGB">
<feFlood flood-opacity="0" result="BackgroundImageFix"/>
<feColorMatrix in="SourceAlpha" type="matrix" values="0 0 0 0 0 0 0 0 0 0 0 0 0 0 0 0 0 0 127 0" result="hardAlpha"/>
<feOffset dy="4"/>
<feGaussianBlur stdDeviation="2"/>
<feComposite in2="hardAlpha" operator="out"/>
<feColorMatrix type="matrix" values="0 0 0 0 0 0 0 0 0 0 0 0 0 0 0 0 0 0 0.25 0"/>
<feBlend mode="normal" in2="BackgroundImageFix" result="effect1_dropShadow_484_3"/>
<feBlend mode="normal" in="SourceGraphic" in2="effect1_dropShadow_484_3" result="shape"/>
</filter>
<filter id="filter2_d_484_3" x="428.773" y="247" width="115.227" height="63" filterUnits="userSpaceOnUse" color-interpolation-filters="sRGB">
<feFlood flood-opacity="0" result="BackgroundImageFix"/>
<feColorMatrix in="SourceAlpha" type="matrix" values="0 0 0 0 0 0 0 0 0 0 0 0 0 0 0 0 0 0 127 0" result="hardAlpha"/>
<feOffset dy="4"/>
<feGaussianBlur stdDeviation="2"/>
<feComposite in2="hardAlpha" operator="out"/>
<feColorMatrix type="matrix" values="0 0 0 0 0 0 0 0 0 0 0 0 0 0 0 0 0 0 0.25 0"/>
<feBlend mode="normal" in2="BackgroundImageFix" result="effect1_dropShadow_484_3"/>
<feBlend mode="normal" in="SourceGraphic" in2="effect1_dropShadow_484_3" result="shape"/>
</filter>
</defs>
</svg>
