<svg width="851" height="202" viewBox="0 0 851 202" fill="none" xmlns="http://www.w3.org/2000/svg">
<g filter="url(#filter0_d_468_2215)">
<path d="M177.103 191.493C177.103 191.493 162.321 173.309 153.088 161.455C147.764 154.619 142.65 152.033 139.58 143.847C135.834 133.854 144.185 125.999 139.58 116.399C133.008 102.696 119.825 99.6788 105.06 100.344C84.7138 101.26 80.9202 121.747 65.5364 135.561L3.99986 191.493H112.564H177.103Z" fill="#20EFA5"/>
<path fill-rule="evenodd" clip-rule="evenodd" d="M112.564 191.493H3.99986L65.5364 135.561C70.913 130.733 74.8739 125.09 78.6205 119.752C85.5938 109.817 91.8247 100.94 105.06 100.344C105.06 100.344 91.1847 128.917 99.5565 143.847C101.514 147.338 105.119 149.02 108.508 150.601C112.749 152.58 116.652 154.402 116.567 159.411C116.491 163.873 112.348 165.412 108.169 166.964C104.036 168.499 99.8673 170.047 99.5565 174.45C98.9665 182.808 112.564 191.493 112.564 191.493Z" fill="#00B574"/>
<path d="M330.193 191.493C330.193 191.493 307.545 152.467 288.815 130.744C281.051 121.739 278.928 112.942 267.877 108.654C243.541 99.2103 242.406 140.748 224.007 159.362C210.979 172.541 189.11 191.493 189.11 191.493H259.652H330.193Z" fill="#20EFA5"/>
<path fill-rule="evenodd" clip-rule="evenodd" d="M288.815 130.744C307.545 152.467 330.193 191.493 330.193 191.493H259.652C259.652 191.493 265.921 172.17 267.877 159.362C270.867 139.789 267.877 108.654 267.877 108.654C275.443 111.59 278.824 116.64 282.696 122.422C284.48 125.086 286.367 127.905 288.815 130.744Z" fill="#00B574"/>
<path d="M452.196 125.611C460.035 152.648 481.283 191.494 481.283 191.494H273.16C273.16 191.494 295.098 155.839 307.763 132.199C325.531 99.0361 327.579 75.9913 348.887 45.0313C361.501 26.7027 363.96 6.42548 385.496 1.44732C393.515 -0.406169 398.576 -0.557232 406.559 1.44732C419.713 4.75017 426.339 11.5342 434.142 22.7325C441.844 33.7861 442.552 42.3259 444.674 55.6738C446.879 69.5478 443.12 77.6921 444.674 91.6559C446.176 105.159 452.196 125.611 452.196 125.611Z" fill="#00B574"/>
<path d="M847 194C847 194 813.838 159.692 787.465 145.375C771.355 136.63 743.939 127.83 743.939 127.83C743.939 127.83 713.578 146.63 692.408 154.899C664.943 165.628 618.865 171.943 618.865 171.943L599.853 192.496L761.545 193.48L847 194Z" fill="#00B574"/>
<path fill-rule="evenodd" clip-rule="evenodd" d="M787.465 145.375C813.838 159.692 847 194 847 194L761.545 193.48C762.191 189.86 765.778 168.17 761.449 154.899C757.543 142.925 743.939 127.83 743.939 127.83C743.939 127.83 771.355 136.63 787.465 145.375Z" fill="#20EFA5"/>
<path d="M466.774 153.897C459.855 168.156 452.766 191.995 452.766 191.995H537.316H621.866L612.361 160.413C612.361 160.413 604.888 140.61 600.354 127.829C594.207 110.505 597.269 97.1894 585.345 83.2144C575.263 71.3994 558.9 66.3122 543.82 62.6615C532.046 59.8109 530.889 56.7555 520.306 62.6615C511.533 67.5577 510.201 74.7329 504.797 83.2144C496.191 96.722 494.906 106.22 487.287 120.31C479.975 133.83 473.485 140.067 466.774 153.897Z" fill="#20EFA5"/>
<path fill-rule="evenodd" clip-rule="evenodd" d="M537.316 191.995H621.866L612.361 160.413C612.361 160.413 604.888 140.61 600.354 127.829C598.118 121.527 597.1 115.756 596.137 110.29C594.452 100.73 592.932 92.1058 585.345 83.2144C575.263 71.3994 558.9 66.3122 543.82 62.6615C543.82 62.6615 541.416 85.4722 543.82 99.7571C545.002 106.776 547.689 111.935 550.326 116.996C553.309 122.721 556.227 128.322 556.828 136.351C558.546 159.319 537.316 191.995 537.316 191.995Z" fill="#00B574"/>
</g>
<defs>
<filter id="filter0_d_468_2215" x="-0.000244141" y="0" width="851" height="202" filterUnits="userSpaceOnUse" color-interpolation-filters="sRGB">
<feFlood flood-opacity="0" result="BackgroundImageFix"/>
<feColorMatrix in="SourceAlpha" type="matrix" values="0 0 0 0 0 0 0 0 0 0 0 0 0 0 0 0 0 0 127 0" result="hardAlpha"/>
<feOffset dy="4"/>
<feGaussianBlur stdDeviation="2"/>
<feComposite in2="hardAlpha" operator="out"/>
<feColorMatrix type="matrix" values="0 0 0 0 0 0 0 0 0 0 0 0 0 0 0 0 0 0 0.25 0"/>
<feBlend mode="normal" in2="BackgroundImageFix" result="effect1_dropShadow_468_2215"/>
<feBlend mode="normal" in="SourceGraphic" in2="effect1_dropShadow_468_2215" result="shape"/>
</filter>
</defs>
</svg>
