<svg width="625" height="292" viewBox="0 0 625 292" fill="none" xmlns="http://www.w3.org/2000/svg">
<rect width="50.9672" height="8.43242" rx="1" transform="matrix(0.976717 0.214533 -0.169909 0.98546 575.22 251.149)" fill="#59C2FD"/>
<path d="M44 291.631V251.544L16 259.984V291.631H44Z" fill="#FFC25E"/>
<ellipse cx="101.256" cy="158.026" rx="21.2513" ry="23.9861" fill="#00B574"/>
<path fill-rule="evenodd" clip-rule="evenodd" d="M408.183 201.642C403.593 203.227 398.667 204.088 393.54 204.088C368.702 204.088 348.567 183.885 348.567 158.964C348.567 134.043 368.702 113.84 393.54 113.84C416.518 113.84 435.471 131.131 438.18 153.453C438.984 153.398 439.795 153.37 440.613 153.37C441.794 153.37 442.962 153.428 444.113 153.543C446.581 145.276 454.221 139.252 463.263 139.252C474.302 139.252 483.251 148.231 483.251 159.307C483.251 166.623 479.347 173.023 473.516 176.526C474.859 180.253 475.592 184.274 475.592 188.466C475.592 207.849 459.931 223.562 440.613 223.562C425.939 223.562 413.376 214.496 408.183 201.642Z" fill="#20EFA5"/>
<path fill-rule="evenodd" clip-rule="evenodd" d="M68.7184 170.841V170.841C86.6565 170.841 101.198 184.849 101.198 202.127C101.198 219.406 86.6565 233.413 68.7183 233.413C61.6833 233.413 55.1708 231.259 49.8529 227.598C48.8268 235.623 41.7245 241.836 33.1156 241.836C23.8015 241.836 16.251 234.563 16.251 225.591C16.251 216.62 23.8015 209.347 33.1156 209.347C34.5352 209.347 35.9139 209.516 37.2312 209.834C36.5828 207.369 36.2383 204.787 36.2383 202.127C36.2383 193.657 39.7324 185.974 45.4078 180.341C42.8344 177.935 41.2354 174.568 41.2354 170.841C41.2354 163.531 47.3876 157.605 54.9769 157.605C62.5661 157.605 68.7184 163.531 68.7184 170.841Z" fill="#00B574"/>
<ellipse cx="78.7152" cy="157.895" rx="19.9877" ry="20.055" fill="#20EFA5"/>
<ellipse cx="104.201" cy="129.066" rx="17.9889" ry="18.0495" fill="#20EFA5"/>
<ellipse cx="134.684" cy="164.862" rx="18.4886" ry="18.5509" fill="#00B574"/>
<path fill-rule="evenodd" clip-rule="evenodd" d="M130.661 181.095C152.048 182.797 168.91 202.103 168.91 225.667C168.91 250.351 150.408 270.361 127.586 270.361C104.855 270.361 86.4113 250.513 86.2626 225.966C84.1016 227.491 81.5206 228.376 78.7483 228.376C71.1408 228.376 64.9736 221.706 64.9736 213.478C64.9736 205.25 71.1408 198.58 78.7483 198.58C83.7603 198.58 88.1471 201.475 90.5571 205.804C90.5693 205.777 90.5816 205.75 90.5939 205.724C87.8671 201.614 86.2617 196.576 86.2617 191.131C86.2617 177.294 96.6337 166.076 109.428 166.076C118.923 166.076 127.084 172.253 130.661 181.095Z" fill="#20EFA5"/>
<ellipse cx="391.042" cy="182.185" rx="39.9754" ry="40.11" fill="#00B574"/>
<rect x="228.765" y="166.244" width="153.76" height="125.387" fill="#FFC25E"/>
<rect x="213.764" y="153.564" width="185.012" height="12.6796" fill="#FFC25E"/>
<path fill-rule="evenodd" clip-rule="evenodd" d="M198.763 153.564C236.137 129.224 260.782 87.5168 260.782 40.1521C260.782 26.1751 258.636 12.6908 254.65 0H342.889C338.903 12.6908 336.757 26.1751 336.757 40.1521C336.757 87.5168 361.402 129.224 398.776 153.564H198.763Z" fill="#59C2FD"/>
<path fill-rule="evenodd" clip-rule="evenodd" d="M351.273 246.095V252.184V261.09V291.631H283.769V261.09V252.184V246.095C283.769 241.677 287.35 238.095 291.769 238.095H343.273C347.691 238.095 351.273 241.677 351.273 246.095Z" fill="#FF700D"/>
<rect x="357.522" y="243.851" width="148.759" height="47.7802" fill="#59C2FD"/>
<rect x="357.522" y="196.071" width="148.759" height="35.1325" fill="#59C2FD"/>
<rect x="357.522" y="231.204" width="148.759" height="12.6477" fill="#FFC25E"/>
<rect x="357.522" y="183.423" width="148.759" height="12.6477" fill="#FF700D"/>
<path fill-rule="evenodd" clip-rule="evenodd" d="M408.113 264.101C408.113 264.101 405.783 249.738 398.444 249.738C391.109 249.738 388.778 264.085 388.775 264.101C388.775 264.101 388.775 264.101 388.775 264.101V291.631H408.113V264.101Z" fill="#FF700D"/>
<path fill-rule="evenodd" clip-rule="evenodd" d="M457.529 264.101C457.529 264.101 455.199 249.738 447.86 249.738C440.525 249.738 438.194 264.085 438.191 264.101C438.191 264.101 438.191 264.101 438.191 264.101V291.631H457.529V264.101Z" fill="#FF700D"/>
<path fill-rule="evenodd" clip-rule="evenodd" d="M432.821 264.101C432.821 264.101 430.491 249.738 423.152 249.738C415.817 249.738 413.486 264.085 413.483 264.101C413.483 264.101 413.483 264.101 413.483 264.101V291.631H432.821V264.101Z" fill="#FF700D"/>
<path d="M537.226 111.898L537.079 139.977L558.196 127.008L537.226 111.898Z" fill="#FF700D"/>
<path d="M544.717 126.661L544.569 154.741L565.686 141.772L544.717 126.661Z" fill="#FF700D"/>
<path d="M551.599 141.71L551.452 169.789L572.569 156.82L551.599 141.71Z" fill="#FF700D"/>
<path d="M559.088 156.473L558.94 184.553L580.057 171.584L559.088 156.473Z" fill="#FF700D"/>
<path d="M565.938 171.454L565.791 199.534L586.907 186.565L565.938 171.454Z" fill="#FF700D"/>
<path d="M573.428 186.218L573.28 214.297L594.397 201.328L573.428 186.218Z" fill="#FF700D"/>
<path d="M580.277 201.199L580.13 229.278L601.246 216.309L580.277 201.199Z" fill="#FF700D"/>
<path d="M587.769 215.962L587.622 244.041L608.739 231.073L587.769 215.962Z" fill="#FF700D"/>
<path d="M534.146 111.898L534.293 139.977L513.176 127.009L534.146 111.898Z" fill="#FF700D"/>
<path d="M526.654 126.661L526.802 154.741L505.685 141.772L526.654 126.661Z" fill="#FF700D"/>
<path d="M519.772 141.71L519.919 169.789L498.803 156.82L519.772 141.71Z" fill="#FF700D"/>
<path d="M512.283 156.473L512.431 184.553L491.314 171.584L512.283 156.473Z" fill="#FF700D"/>
<path d="M505.433 171.454L505.58 199.534L484.464 186.565L505.433 171.454Z" fill="#FF700D"/>
<path d="M497.944 186.218L498.091 214.297L476.974 201.328L497.944 186.218Z" fill="#FF700D"/>
<path d="M491.093 201.199L491.24 229.278L470.124 216.31L491.093 201.199Z" fill="#FF700D"/>
<path d="M483.602 215.962L483.749 244.041L462.633 231.073L483.602 215.962Z" fill="#FF700D"/>
<rect x="483" y="220.477" width="106" height="71.154" fill="#FFC25E"/>
<rect x="548" y="249.54" width="23" height="42.0911" fill="#FF700D"/>
<rect width="4.06355" height="134.336" transform="matrix(-0.842095 0.53933 0.449173 0.893445 537.25 112.876)" fill="#FF700D"/>
<path fill-rule="evenodd" clip-rule="evenodd" d="M506.676 250.504C506.673 250.485 504.967 239.861 499.604 239.861C494.241 239.861 492.535 250.485 492.532 250.504M506.676 250.504C506.676 250.504 506.676 250.504 506.676 250.504ZM506.676 250.504V270.902H492.532V250.504" fill="#FF700D"/>
<path fill-rule="evenodd" clip-rule="evenodd" d="M527.927 250.504C527.921 250.469 526.214 239.861 520.855 239.861C515.496 239.861 513.789 250.469 513.783 250.504H513.783V250.504V270.902H527.927V250.504V250.504H527.927Z" fill="#59C2FD"/>
<path d="M486.407 218.814L535.659 121.536L584.911 218.814H486.407Z" fill="#FFC25E" stroke="#FF700D" stroke-width="4"/>
<rect width="4.06355" height="134.336" transform="matrix(0.842095 0.53933 -0.449173 0.893445 534.12 112.876)" fill="#FF700D"/>
<rect x="481.281" y="228.574" width="110.007" height="7.05474" fill="#59C2FD"/>
<ellipse cx="536.783" cy="174.509" rx="8" ry="8.01736" fill="#59C2FD"/>
<path d="M38.8842 225.816C39.0737 225.607 39.3427 225.488 39.6248 225.488H120C120.552 225.488 121 225.936 121 226.488V233.508C121 234.06 120.552 234.508 120 234.508H33.2573C32.3896 234.508 31.9337 233.478 32.5166 232.836L38.8842 225.816Z" fill="#FFC25E"/>
<rect x="119" y="221.479" width="137" height="70.1519" fill="#59C2FD"/>
<rect x="119" y="210.456" width="137" height="11.0239" fill="#59C2FD"/>
<path d="M187.754 90.1956C219.205 89.9702 237.454 207.686 256 210.456H119C137.292 208.796 155.453 90.427 187.754 90.1956Z" fill="#FF700D"/>
<path fill-rule="evenodd" clip-rule="evenodd" d="M201 253.561C200.995 253.528 197.739 233.505 187.5 233.505C177.261 233.505 174.005 253.528 174 253.561M201 253.561C201 253.561 201 253.561 201 253.561ZM201 253.561V292H174V253.561" fill="#FF700D"/>
<rect x="175.012" y="149.561" width="23.7515" height="42.3285" fill="#FFC25E"/>
<rect width="51.2536" height="8.39436" rx="1" transform="matrix(0.950084 -0.311993 0.249612 0.968346 0 257.263)" fill="#59C2FD"/>
<rect x="9" y="291.631" width="33.0716" height="7" transform="rotate(-90 9 291.631)" fill="#59C2FD"/>
<rect x="44" y="234.508" width="75" height="57.1237" fill="#FF700D"/>
<rect x="598" y="262.568" width="5" height="29.0629" fill="#59C2FD"/>
<rect x="611" y="262.568" width="5" height="29.0629" fill="#59C2FD"/>
<rect x="589" y="276.599" width="27" height="15.0325" fill="#FF700D"/>
<rect x="586" y="276.599" width="30" height="3.00651" fill="#FFC25E"/>
<path d="M19 291.631H44V266.577C44 266.577 32.6419 266.991 25.8182 274.152C19.1495 281.149 19 291.631 19 291.631Z" fill="#FF700D"/>
<ellipse cx="61" cy="253.549" rx="6" ry="6.01302" fill="#59C2FD"/>
<ellipse cx="109" cy="253.549" rx="6" ry="6.01302" fill="#59C2FD"/>
<ellipse cx="85" cy="253.549" rx="6" ry="6.01302" fill="#59C2FD"/>
</svg>
