<svg width="384" height="262" viewBox="0 0 384 262" fill="none" xmlns="http://www.w3.org/2000/svg">
<g filter="url(#filter0_d_423_3032)">
<path d="M294.275 221.584C195.465 230.866 112.195 289.637 40.1352 221.584C23.425 205.803 7.37849 197.639 4.35566 174.888C-0.511029 138.26 45.7243 134.596 72.2315 108.779C98.7387 82.962 105.361 112.404 135.898 116.649C181.85 123.038 192.538 97.6815 237.975 88.3168C295.334 76.495 321.474 85.9442 359.696 130.2C381.036 154.91 384.377 171.121 375.185 202.417C361.831 247.884 341.578 217.141 294.275 221.584Z" fill="#00B574"/>
<path d="M266.239 192.693C180.878 200.729 108.942 251.61 46.6904 192.693C32.2547 179.03 18.3923 171.961 15.7809 152.265C11.5766 120.553 51.5188 117.381 74.4181 95.0292C97.3173 72.6774 103.039 98.1674 129.419 101.843C169.117 107.374 178.35 85.4212 217.602 77.3135C267.154 67.0785 309.585 73.0669 342.604 111.382C361.04 132.775 378.272 151.062 370.331 178.157C358.795 217.521 307.104 188.846 266.239 192.693Z" fill="#A2DD86"/>
<path d="M89.1951 0.000121507C105.752 -0.0843872 115.627 43.9411 125.39 44.9797H53C62.6296 44.3573 72.1904 0.0869165 89.1951 0.000121507Z" fill="#CF4CE3"/>
<rect x="53" y="44.9567" width="73" height="62.9392" fill="#FFC25E"/>
<rect width="23.8358" height="17.6391" transform="matrix(-1 0 0 1 237.507 59.0756)" fill="#CF4CE3"/>
<rect width="23.8358" height="4.40976" transform="matrix(-1 0 0 1 237.507 54.6658)" fill="#EA61E5"/>
<path fill-rule="evenodd" clip-rule="evenodd" d="M213.756 55.1786C213.756 47.589 219.084 41.4364 225.657 41.4364C232.23 41.4364 237.559 47.589 237.559 55.1786H213.756Z" fill="#EA61E5"/>
<rect width="23.8358" height="17.6391" transform="matrix(-1 0 0 1 196.897 59.0756)" fill="#CF4CE3"/>
<rect width="23.8358" height="4.40976" transform="matrix(-1 0 0 1 196.897 54.6658)" fill="#EA61E5"/>
<path fill-rule="evenodd" clip-rule="evenodd" d="M173.146 55.1786C173.146 47.589 178.475 41.4364 185.048 41.4364C191.621 41.4364 196.949 47.589 196.949 55.1786H173.146Z" fill="#EA61E5"/>
<rect width="23.8358" height="17.6391" transform="matrix(-1 0 0 1 155.405 59.0756)" fill="#CF4CE3"/>
<rect width="23.8358" height="4.40976" transform="matrix(-1 0 0 1 155.405 54.6658)" fill="#EA61E5"/>
<path fill-rule="evenodd" clip-rule="evenodd" d="M131.654 55.1786C131.654 47.589 136.983 41.4364 143.556 41.4364C150.129 41.4364 155.457 47.589 155.457 55.1786H131.654Z" fill="#EA61E5"/>
<path fill-rule="evenodd" clip-rule="evenodd" d="M112.444 80.8314H97.3643V101.902H81.6294V80.8314H66.5499V101.902H53V120.883H126V101.902H112.444V80.8314Z" fill="#EA61E5"/>
<rect x="53" y="44.9567" width="73" height="6.99325" fill="#EA61E5"/>
<rect x="53" y="120.883" width="73" height="20.9797" fill="#FFC25E"/>
<path fill-rule="evenodd" clip-rule="evenodd" d="M53 142.183H125.994V171.658H53V142.183ZM74.0896 148.515C80.547 148.515 85.7817 154.282 85.7817 161.396H62.3975C62.3975 154.282 67.6322 148.515 74.0896 148.515ZM85.7817 171.658V161.397H62.3975V171.658H85.7817ZM116.597 161.396C116.597 154.282 111.362 148.515 104.905 148.515C98.4476 148.515 93.2129 154.282 93.2129 161.396H116.597ZM116.597 161.396V171.658H93.2129V161.396H116.597Z" fill="#EA61E5"/>
<rect x="155.108" y="76.7415" width="5.4703" height="20.4939" fill="#CF4CE3"/>
<rect x="196.513" y="76.7147" width="5.4703" height="20.4939" fill="#CF4CE3"/>
<path fill-rule="evenodd" clip-rule="evenodd" d="M166.882 76.7147H196.513V96.9065H208.374V76.7147H238.005V96.9065H243.859V171.595H125.336V96.9065H125.477V76.7416H155.107V96.9065H166.882V76.7147Z" fill="#FFC25E"/>
<rect x="238.005" y="76.7147" width="5.4703" height="20.4939" fill="#CF4CE3"/>
<path fill-rule="evenodd" clip-rule="evenodd" d="M136.867 107.989V106.94H136.887C137.148 99.8997 140.02 94.3538 143.524 94.3538C147.028 94.3538 149.9 99.8997 150.162 106.94H150.181L150.181 107.989L150.181 129.316H136.867V107.989Z" fill="#CF4CE3"/>
<path fill-rule="evenodd" clip-rule="evenodd" d="M67 109.953V109.41H67.0219C67.3167 105.769 70.5539 102.901 74.5039 102.901C78.4538 102.901 81.691 105.769 81.9858 109.41H82.0077V109.953V120.983H67V109.953Z" fill="#CF4CE3"/>
<path fill-rule="evenodd" clip-rule="evenodd" d="M97 109.953V109.41H97.0219C97.3167 105.769 100.554 102.901 104.504 102.901C108.454 102.901 111.691 105.769 111.986 109.41H112.008V109.953V120.983H97V109.953Z" fill="#CF4CE3"/>
<path fill-rule="evenodd" clip-rule="evenodd" d="M169.531 148.663V147.538H169.571C170.114 139.989 176.068 134.042 183.333 134.042C190.598 134.042 196.552 139.989 197.095 147.538H197.135L197.135 148.663L197.135 171.532H169.531V148.663Z" fill="#CF4CE3"/>
<path fill-rule="evenodd" clip-rule="evenodd" d="M176.593 107.989V106.94H176.612C176.874 99.8997 179.746 94.3538 183.25 94.3538C186.754 94.3538 189.626 99.8997 189.887 106.94H189.907L189.907 107.989L189.907 129.316H176.593V107.989Z" fill="#CF4CE3"/>
<path fill-rule="evenodd" clip-rule="evenodd" d="M218.968 107.989V106.94H218.987C219.249 99.8997 222.121 94.3538 225.625 94.3538C229.129 94.3538 232.001 99.8997 232.262 106.94H232.282L232.282 107.989L232.282 129.316H218.968V107.989Z" fill="#CF4CE3"/>
<path fill-rule="evenodd" clip-rule="evenodd" d="M259.012 133.976C259.012 134.028 259.012 134.08 259.013 134.132C254.424 135.17 250.999 139.238 250.999 144.098C250.999 149.674 255.506 154.207 261.108 154.319V154.422H294.216V154.343C299.306 153.714 303.245 149.412 303.245 144.199C303.245 138.553 298.624 133.976 292.924 133.976C291.747 133.976 290.617 134.171 289.563 134.53C289.57 134.346 289.573 134.162 289.573 133.976C289.573 125.617 282.732 118.841 274.293 118.841C265.853 118.841 259.012 125.617 259.012 133.976Z" fill="#20EFA5"/>
<path fill-rule="evenodd" clip-rule="evenodd" d="M218.984 172.527C212.237 171.749 207 166.068 207 159.176C207 151.752 213.076 145.734 220.57 145.734C222.118 145.734 223.604 145.991 224.99 146.463C224.981 146.221 224.977 145.978 224.977 145.734C224.977 134.744 233.972 125.834 245.068 125.834C256.013 125.834 264.914 134.503 265.154 145.288C267.3 146.454 269.093 148.177 270.334 150.262C272.82 147.485 276.449 145.734 280.491 145.734C287.986 145.734 294.062 151.752 294.062 159.176C294.062 166.068 288.825 171.748 282.078 172.527V172.618H218.984V172.527Z" fill="#00B574"/>
</g>
<defs>
<filter id="filter0_d_423_3032" x="0" y="0" width="384" height="262" filterUnits="userSpaceOnUse" color-interpolation-filters="sRGB">
<feFlood flood-opacity="0" result="BackgroundImageFix"/>
<feColorMatrix in="SourceAlpha" type="matrix" values="0 0 0 0 0 0 0 0 0 0 0 0 0 0 0 0 0 0 127 0" result="hardAlpha"/>
<feOffset dy="4"/>
<feGaussianBlur stdDeviation="2"/>
<feComposite in2="hardAlpha" operator="out"/>
<feColorMatrix type="matrix" values="0 0 0 0 0 0 0 0 0 0 0 0 0 0 0 0 0 0 0.25 0"/>
<feBlend mode="normal" in2="BackgroundImageFix" result="effect1_dropShadow_423_3032"/>
<feBlend mode="normal" in="SourceGraphic" in2="effect1_dropShadow_423_3032" result="shape"/>
</filter>
</defs>
</svg>
