<svg width="478" height="271" viewBox="0 0 478 271" fill="none" xmlns="http://www.w3.org/2000/svg">
<g filter="url(#filter0_d_468_2226)">
<rect x="88.7026" y="17.04" width="144.099" height="16.524" fill="#FFC25E"/>
<path d="M88.7043 11.8765H232.803V17.0402H88.7043V11.8765Z" fill="#FF700D"/>
<path fill-rule="evenodd" clip-rule="evenodd" d="M102.378 8.15459C102.378 4.79164 100.179 2.06543 97.4666 2.06543C94.754 2.06543 92.5549 4.79164 92.5549 8.15459H102.378Z" fill="#FF700D"/>
<path fill-rule="evenodd" clip-rule="evenodd" d="M138.529 8.15459C138.529 4.79164 136.33 2.06543 133.617 2.06543C130.905 2.06543 128.706 4.79164 128.706 8.15459H138.529Z" fill="#FF700D"/>
<path fill-rule="evenodd" clip-rule="evenodd" d="M120.454 8.15459C120.454 4.79164 118.255 2.06543 115.543 2.06543C112.83 2.06543 110.631 4.79164 110.631 8.15459H120.454Z" fill="#FF700D"/>
<path fill-rule="evenodd" clip-rule="evenodd" d="M156.603 8.15459C156.603 4.79164 154.404 2.06543 151.691 2.06543C148.979 2.06543 146.78 4.79164 146.78 8.15459H156.603Z" fill="#FF700D"/>
<path fill-rule="evenodd" clip-rule="evenodd" d="M174.679 8.15459C174.679 4.79164 172.48 2.06543 169.767 2.06543C167.055 2.06543 164.856 4.79164 164.856 8.15459H174.679Z" fill="#FF700D"/>
<rect x="92.5549" y="7.95801" width="9.82331" height="4.32134" fill="#FF700D"/>
<rect x="128.706" y="7.95801" width="9.82331" height="4.32134" fill="#FF700D"/>
<rect x="146.78" y="7.95801" width="9.82331" height="4.32134" fill="#FF700D"/>
<rect x="110.631" y="7.95801" width="9.82331" height="4.32134" fill="#FF700D"/>
<path fill-rule="evenodd" clip-rule="evenodd" d="M182.936 7.95801V8.15459V12.2793H192.759V8.15459V7.95801H192.756C192.673 4.68604 190.507 2.06543 187.847 2.06543C185.188 2.06543 183.022 4.68604 182.938 7.95801H182.936ZM210.831 7.95801C210.748 4.68604 208.582 2.06543 205.922 2.06543C203.263 2.06543 201.097 4.68604 201.013 7.95801H201.01V8.15459V12.2793H210.834V8.15459V7.95801H210.831ZM223.998 2.06543C226.658 2.06543 228.823 4.68604 228.907 7.95801H228.91V8.15459V12.2793H219.086V8.15459V7.95801H219.089C219.173 4.68604 221.338 2.06543 223.998 2.06543ZM174.685 7.95801H164.862V12.2793H174.685V7.95801Z" fill="#FF700D"/>
<rect x="88.7026" y="33.5645" width="144.616" height="168.338" fill="#FF700D"/>
<rect x="422.352" y="99.144" width="3.09891" height="48.0228" fill="#FF700D"/>
<path d="M454.374 111.021L424.935 120.832V101.209L454.374 111.021Z" fill="#FF700D"/>
<rect x="357.792" y="90.8818" width="3.09891" height="48.0228" fill="#FF700D"/>
<path d="M389.814 102.758L360.374 112.57V92.9473L389.814 102.758Z" fill="#FF700D"/>
<rect x="278.252" y="130.126" width="27.8902" height="71.7761" fill="#FF700D"/>
<path fill-rule="evenodd" clip-rule="evenodd" d="M176.505 107.406C176.505 99.9909 168.758 93.98 159.202 93.98C149.647 93.98 141.9 99.9909 141.9 107.406H176.505Z" fill="#00B574"/>
<rect x="141.9" y="107.406" width="34.6045" height="10.8439" fill="#00B574"/>
<path fill-rule="evenodd" clip-rule="evenodd" d="M148.103 105.68C148.239 102.908 151.306 100.693 155.071 100.693V105.68H155.071V114.119H148.098V105.871H148.098C148.098 105.866 148.098 105.861 148.098 105.856V105.68H148.103Z" fill="#FFC25E"/>
<path fill-rule="evenodd" clip-rule="evenodd" d="M163.85 105.871H163.85V100.693C167.615 100.693 170.682 102.908 170.818 105.68H170.823V114.119H163.85V105.871Z" fill="#FFC25E"/>
<path fill-rule="evenodd" clip-rule="evenodd" d="M187.351 41.2441C187.351 40.1396 188.247 39.2441 189.351 39.2441H216.274L223.52 39.2441C225.189 39.2441 226.124 41.1677 225.093 42.48L216.274 53.7011L216.274 53.7017C216.274 53.7021 216.274 53.7024 216.274 53.7025L216.273 53.7026H216.273H216.273V97.5943H187.35V52.1533H187.402C187.369 52.0085 187.351 51.8576 187.351 51.7026V41.2441ZM183.778 49.1568C184.952 50.6501 187.351 49.8202 187.351 47.921V41.2441C187.351 40.1396 186.455 39.2441 185.351 39.2441H180.104C178.435 39.2441 177.5 41.1677 178.531 42.4799L183.778 49.1568ZM278.251 97.5947H187.35V118.25H135.702V170.92H187.35V201.902H278.251V97.5947ZM249.273 70.6777C249.273 69.5732 250.168 68.6777 251.273 68.6777H278.196L285.442 68.6777C287.111 68.6777 288.046 70.6013 287.015 71.9135L278.252 83.064V97.5945H249.329V81.6074C249.292 81.4563 249.273 81.2985 249.273 81.1362V70.6777ZM245.7 78.5904C246.874 80.0837 249.273 79.2538 249.273 77.3546V70.6777C249.273 69.5732 248.377 68.6777 247.273 68.6777H242.025C240.357 68.6777 239.422 70.6013 240.453 71.9135L245.7 78.5904Z" fill="#00B574"/>
<path fill-rule="evenodd" clip-rule="evenodd" d="M199.455 109.988C201.575 109.988 203.294 112.762 203.294 116.184H203.294V159.56H195.615V116.184H195.615C195.615 112.762 197.334 109.988 199.455 109.988Z" fill="#FFC25E"/>
<path fill-rule="evenodd" clip-rule="evenodd" d="M263.725 116.184C263.725 112.762 262.006 109.988 259.885 109.988C257.765 109.988 256.045 112.762 256.045 116.184H256.045V201.902H263.793V116.184H263.725Z" fill="#FFC25E"/>
<path fill-rule="evenodd" clip-rule="evenodd" d="M243.582 116.184C243.582 112.762 241.863 109.988 239.742 109.988C237.622 109.988 235.903 112.762 235.903 116.184H235.903V201.902H243.65V116.184H243.582Z" fill="#FFC25E"/>
<path fill-rule="evenodd" clip-rule="evenodd" d="M215.759 116.184H215.759V201.902H223.506V116.184H223.438C223.438 112.762 221.719 109.988 219.599 109.988C217.478 109.988 215.759 112.762 215.759 116.184Z" fill="#FFC25E"/>
<rect x="339.714" y="178.149" width="134.286" height="84.6854" fill="#FF700D"/>
<rect x="212.143" y="196.739" width="127.572" height="66.0959" fill="#FF700D"/>
<rect x="212.143" y="185.378" width="127.572" height="11.3602" fill="#FFC25E"/>
<path fill-rule="evenodd" clip-rule="evenodd" d="M234.866 172.469C234.756 168.168 231.909 164.724 228.413 164.724C224.917 164.724 222.07 168.168 221.96 172.469H221.957V172.727V178.149H234.869V172.727V172.469H234.866ZM339.714 178.149V185.379H212.143V178.149H339.714ZM275.929 164.724C279.425 164.724 282.272 168.168 282.382 172.469H282.386V172.727V178.149H269.473V172.727V172.469H269.477C269.587 168.168 272.434 164.724 275.929 164.724ZM258.623 172.469C258.513 168.168 255.667 164.724 252.171 164.724C248.675 164.724 245.828 168.168 245.718 172.469H245.715V172.727V178.149H258.627V172.727V172.469H258.623ZM293.231 172.727V172.469H293.235C293.345 168.168 296.191 164.724 299.687 164.724C303.183 164.724 306.03 168.168 306.14 172.469H306.143V172.727V178.149H293.231V172.727ZM316.99 172.469V172.727V178.149H329.902V172.727V172.469H329.899C329.789 168.168 326.942 164.724 323.446 164.724C319.95 164.724 317.103 168.168 316.993 172.469H316.99Z" fill="#FF700D"/>
<rect x="56.6797" y="196.739" width="127.572" height="66.0959" fill="#FF700D"/>
<rect x="56.6797" y="185.378" width="127.572" height="11.3602" fill="#FFC25E"/>
<path fill-rule="evenodd" clip-rule="evenodd" d="M66.4937 172.469V172.727V178.149H79.4058V172.727V172.469H79.4025C79.2925 168.168 76.4456 164.724 72.9497 164.724C69.4538 164.724 66.6069 168.168 66.497 172.469H66.4937ZM56.6797 178.149H184.251V185.379H56.6797V178.149ZM90.2515 172.727V172.469H90.2548C90.3648 168.168 93.2117 164.724 96.7076 164.724C100.203 164.724 103.05 168.168 103.16 172.469H103.164V172.727V178.149H90.2515V172.727Z" fill="#FF700D"/>
<path fill-rule="evenodd" clip-rule="evenodd" d="M347.959 143.036C347.745 140.141 345.754 137.872 343.329 137.872C340.904 137.872 338.913 140.141 338.7 143.036H338.681V143.552V147.167H340.455C338.331 147.185 336.615 148.912 336.615 151.04C336.615 153.179 338.349 154.913 340.488 154.913H378.709C380.848 154.913 382.582 153.179 382.582 151.04C382.582 148.912 380.866 147.185 378.742 147.167H379.484V143.552V143.036H379.465C379.251 140.141 377.26 137.872 374.835 137.872C372.41 137.872 370.419 140.141 370.206 143.036H370.187V143.552V147.167H363.99V143.552V143.036H363.971C363.757 140.141 361.766 137.872 359.341 137.872C356.916 137.872 354.925 140.141 354.712 143.036H354.693V143.552V147.167H347.978L347.978 143.552L347.978 143.036H347.959Z" fill="#00B574"/>
<path fill-rule="evenodd" clip-rule="evenodd" d="M412.519 143.036C412.305 140.141 410.314 137.872 407.889 137.872C405.464 137.872 403.473 140.141 403.26 143.036H403.241V143.552V147.167H405.015C402.891 147.185 401.175 148.912 401.175 151.04C401.175 153.179 402.909 154.913 405.048 154.913H443.269C445.408 154.913 447.142 153.179 447.142 151.04C447.142 148.912 445.426 147.185 443.302 147.167H444.043V143.552V143.036H444.024C443.811 140.141 441.82 137.872 439.395 137.872C436.97 137.872 434.979 140.141 434.766 143.036H434.747V143.552V147.167H428.549V143.552V143.036H428.53C428.317 140.141 426.326 137.872 423.901 137.872C421.476 137.872 419.485 140.141 419.272 143.036H419.253V143.552V147.167H412.538V143.552V143.036H412.519Z" fill="#00B574"/>
<rect x="339.714" y="154.913" width="33.5715" height="23.2369" fill="#FF700D"/>
<rect x="373.286" y="154.913" width="6.19781" height="23.2369" fill="#FFC25E"/>
<rect x="404.274" y="154.913" width="33.5715" height="23.2369" fill="#FF700D"/>
<rect x="437.845" y="154.913" width="6.19781" height="23.2369" fill="#FFC25E"/>
<path fill-rule="evenodd" clip-rule="evenodd" d="M352.109 173.236V172.621H352.131C352.427 168.492 355.681 165.24 359.651 165.24C363.621 165.24 366.875 168.492 367.171 172.621H367.193V173.236V185.743H352.109V173.236Z" fill="#FFC25E"/>
<path fill-rule="evenodd" clip-rule="evenodd" d="M352.109 202.153V201.538H352.131C352.427 197.409 355.681 194.157 359.651 194.157C363.621 194.157 366.875 197.409 367.171 201.538H367.193V202.153V214.659H352.109V202.153Z" fill="#FFC25E"/>
<path fill-rule="evenodd" clip-rule="evenodd" d="M375.353 237.046C375.353 237.054 375.353 237.062 375.353 237.07H375.353V263H406.627V235.795H406.582C405.967 227.235 399.222 220.492 390.99 220.492C382.759 220.492 376.013 227.235 375.398 235.795H375.353V237.046Z" fill="#FFC25E"/>
<path fill-rule="evenodd" clip-rule="evenodd" d="M413.571 173.236V172.621H413.593C413.889 168.492 417.143 165.24 421.113 165.24C425.083 165.24 428.337 168.492 428.633 172.621H428.655V173.236V185.743H413.571V173.236Z" fill="#FFC25E"/>
<path fill-rule="evenodd" clip-rule="evenodd" d="M413.571 202.153V201.538H413.593C413.889 197.409 417.143 194.157 421.113 194.157C425.083 194.157 428.337 197.409 428.633 201.538H428.655V202.153V214.659H413.571V202.153Z" fill="#FFC25E"/>
<rect x="107.296" y="223.59" width="134.286" height="39.2445" fill="#00B574"/>
<rect x="101.098" y="209.132" width="148.747" height="14.4585" rx="7.22924" fill="#FFC25E"/>
<rect x="107.296" y="142.003" width="103.813" height="14.4585" rx="7.22924" fill="#FFC25E"/>
<rect x="112.976" y="156.461" width="89.8683" height="52.6702" fill="#FF700D"/>
<rect width="13.5341" height="13.5341" transform="matrix(0.707182 -0.707032 0.707182 0.707032 149.647 182.555)" fill="#00B574"/>
<rect width="13.5341" height="13.5341" transform="matrix(0.707182 -0.707032 0.707182 0.707032 175.472 182.555)" fill="#00B574"/>
<rect width="13.5341" height="13.5341" transform="matrix(0.707182 -0.707032 0.707182 0.707032 123.824 182.555)" fill="#00B574"/>
<rect x="200.78" width="2.06594" height="30.4661" fill="#00B574"/>
<path d="M221.44 7.22916L202.846 13.4257V1.03271L221.44 7.22916Z" fill="#00B574"/>
<rect x="262.759" y="29.9497" width="2.06594" height="30.4661" fill="#00B574"/>
<path d="M283.417 37.1789L264.824 43.3754V30.9824L283.417 37.1789Z" fill="#00B574"/>
<rect x="4" y="151.298" width="37.1869" height="111.537" fill="#FF700D"/>
<path fill-rule="evenodd" clip-rule="evenodd" d="M88.704 85.7183H9.68188V151.298H35.5068V136.59V134.425H35.5873C36.6726 119.889 48.5932 108.438 63.1387 108.438C74.6807 108.438 84.5698 115.648 88.704 125.888V85.7183Z" fill="#FF700D"/>
<path fill-rule="evenodd" clip-rule="evenodd" d="M35.5061 60.9321H9.68188V85.7181H35.5061V60.9321ZM15.8799 72.6762L15.8799 72.6491V72.0532H15.8955C16.135 67.2837 19.1035 63.5142 22.7303 63.5142C26.357 63.5142 29.3256 67.2837 29.565 72.0532H29.5806V83.2605H15.8799V72.6762H15.8799Z" fill="#FF700D"/>
<path d="M22.593 45.4409L35.5051 60.9322H9.68091L22.593 45.4409Z" fill="#FF700D"/>
<path fill-rule="evenodd" clip-rule="evenodd" d="M274.228 68.7315C274.228 62.9983 269.579 58.3506 263.845 58.3506C258.11 58.3506 253.461 62.9983 253.461 68.7315H274.228Z" fill="#FFC25E"/>
<path fill-rule="evenodd" clip-rule="evenodd" d="M212.249 39.2979C212.249 33.5647 207.6 28.917 201.866 28.917C196.132 28.917 191.483 33.5647 191.483 39.2979H212.249Z" fill="#FFC25E"/>
</g>
<defs>
<filter id="filter0_d_468_2226" x="0" y="0" width="478" height="271" filterUnits="userSpaceOnUse" color-interpolation-filters="sRGB">
<feFlood flood-opacity="0" result="BackgroundImageFix"/>
<feColorMatrix in="SourceAlpha" type="matrix" values="0 0 0 0 0 0 0 0 0 0 0 0 0 0 0 0 0 0 127 0" result="hardAlpha"/>
<feOffset dy="4"/>
<feGaussianBlur stdDeviation="2"/>
<feComposite in2="hardAlpha" operator="out"/>
<feColorMatrix type="matrix" values="0 0 0 0 0 0 0 0 0 0 0 0 0 0 0 0 0 0 0.25 0"/>
<feBlend mode="normal" in2="BackgroundImageFix" result="effect1_dropShadow_468_2226"/>
<feBlend mode="normal" in="SourceGraphic" in2="effect1_dropShadow_468_2226" result="shape"/>
</filter>
</defs>
</svg>
