<svg width="505" height="387" viewBox="0 0 505 387" fill="none" xmlns="http://www.w3.org/2000/svg">
<rect x="105.405" y="61.3535" width="37.757" height="48.7682" fill="#20EFA5"/>
<rect x="100.687" y="48.7682" width="47.1962" height="12.5854" fill="#20EFA5"/>
<rect x="94.3936" y="114.841" width="59.7819" height="121.134" fill="#CF4CE3"/>
<path fill-rule="evenodd" clip-rule="evenodd" d="M88.1006 91.2436H99.113V102.256H106.979V91.2436H117.992V102.256H127.431V91.2436H138.443V102.256H147.883V91.2436H158.895V103.829H158.895V114.841H88.1006V103.829V102.256V91.2436Z" fill="#EA61E5"/>
<rect x="117.991" y="36.1828" width="11.0125" height="12.5854" fill="#20EFA5"/>
<rect x="136.87" y="36.1828" width="11.0125" height="12.5854" fill="#20EFA5"/>
<rect x="100.687" y="36.1828" width="11.0125" height="12.5854" fill="#20EFA5"/>
<rect x="309.922" width="17.3053" height="26.7439" fill="#EA61E5"/>
<rect x="366.558" width="17.3053" height="26.7439" fill="#EA61E5"/>
<rect x="338.24" width="17.3053" height="26.7439" fill="#EA61E5"/>
<rect x="394.875" width="17.3053" height="26.7439" fill="#EA61E5"/>
<rect x="325.654" y="53.4879" width="70.7943" height="188.78" fill="#CF4CE3"/>
<rect x="316.215" y="42.4756" width="91.246" height="15.7317" fill="#20EFA5"/>
<rect x="320.934" y="58.2073" width="80.2336" height="34.6097" fill="#EA61E5"/>
<rect x="309.922" y="29.8901" width="102.258" height="12.5854" fill="#CF4CE3"/>
<rect x="309.922" y="23.5975" width="102.258" height="6.29268" fill="#EA61E5"/>
<rect x="412.181" y="113.268" width="72.3675" height="165.183" fill="#CF4CE3"/>
<rect x="405.888" y="99.1096" width="84.9532" height="17.3049" fill="#20EFA5"/>
<rect x="405.888" y="113.268" width="84.9532" height="9.43902" fill="#20EFA5"/>
<rect x="405.888" y="75.5122" width="17.3053" height="26.7439" fill="#20EFA5"/>
<rect x="438.925" y="75.5121" width="17.3053" height="26.7439" fill="#20EFA5"/>
<rect x="473.536" y="75.5121" width="17.3053" height="26.7439" fill="#20EFA5"/>
<rect x="169.906" y="61.3536" width="22.0249" height="26.7439" fill="#CF4CE3"/>
<rect x="328.801" y="61.3536" width="22.0249" height="26.7439" fill="#CF4CE3"/>
<rect x="210.81" y="61.3536" width="22.0249" height="26.7439" fill="#CF4CE3"/>
<rect x="292.616" y="61.3536" width="22.0249" height="26.7439" fill="#CF4CE3"/>
<rect x="250.14" y="61.3536" width="22.0249" height="26.7439" fill="#CF4CE3"/>
<rect x="190.358" y="138.439" width="141.589" height="103.829" fill="#EA61E5"/>
<rect x="190.358" y="130.573" width="141.589" height="7.86585" fill="#20EFA5"/>
<path fill-rule="evenodd" clip-rule="evenodd" d="M169.906 106.975H350.825V113.339C350.307 113.292 349.782 113.268 349.252 113.268C339.694 113.268 331.946 121.016 331.946 130.573L190.359 130.573C190.359 121.016 182.611 113.268 173.053 113.268C171.979 113.268 170.927 113.366 169.906 113.554V106.975Z" fill="#20EFA5"/>
<rect x="169.906" y="88.0975" width="180.919" height="18.878" fill="#20EFA5"/>
<path fill-rule="evenodd" clip-rule="evenodd" d="M130.576 206.085H108.551V232.829H130.576V206.085ZM284.75 206.085H262.726V232.829H284.75V206.085ZM147.882 206.085H169.907V232.829H147.882V206.085ZM246.995 206.085H224.97V232.829H246.995V206.085ZM379.144 206.085H401.168V232.829H379.144V206.085ZM324.082 206.085H302.057V232.829H324.082V206.085ZM339.812 206.085H361.837V232.829H339.812V206.085ZM207.664 206.085H185.639V232.829H207.664V206.085ZM416.9 206.085H438.925V232.829H416.9V206.085ZM446.791 232.829H100.686V387H446.791V232.829Z" fill="#20EFA5"/>
<path fill-rule="evenodd" clip-rule="evenodd" d="M224.969 309.198C224.969 309.222 224.969 309.245 224.969 309.269H224.969V387H322.508V305.447H322.365C320.45 279.786 299.411 259.573 273.738 259.573C248.066 259.573 227.026 279.786 225.111 305.447H224.969V309.198Z" fill="#EA61E5"/>
<path fill-rule="evenodd" clip-rule="evenodd" d="M352.006 302.049C357.871 302.049 362.625 306.803 362.625 312.668H341.387C341.387 306.803 346.141 302.049 352.006 302.049ZM362.625 387V312.668H341.387V387H362.625Z" fill="#CF4CE3"/>
<path fill-rule="evenodd" clip-rule="evenodd" d="M433.419 312.667C433.419 312.668 433.419 312.668 433.419 312.668L433.419 387H412.181V312.668C412.181 312.668 412.181 312.668 412.181 312.667C412.181 306.803 416.935 302.049 422.8 302.049C428.665 302.049 433.419 306.803 433.419 312.667Z" fill="#CF4CE3"/>
<path fill-rule="evenodd" clip-rule="evenodd" d="M397.234 312.667C397.234 312.668 397.234 312.668 397.234 312.668L397.234 387H375.996V312.668C375.996 312.668 375.996 312.668 375.996 312.667C375.996 306.803 380.75 302.049 386.615 302.049C392.48 302.049 397.234 306.803 397.234 312.667Z" fill="#CF4CE3"/>
<path fill-rule="evenodd" clip-rule="evenodd" d="M123.891 302.049C129.755 302.049 134.51 306.803 134.51 312.668H113.271C113.271 306.803 118.026 302.049 123.891 302.049ZM134.51 387V312.668H113.271V387H134.51Z" fill="#CF4CE3"/>
<path fill-rule="evenodd" clip-rule="evenodd" d="M158.5 302.049C164.365 302.049 169.119 306.803 169.119 312.668H147.881C147.881 306.803 152.635 302.049 158.5 302.049ZM169.119 387V312.668H147.881V387H169.119Z" fill="#CF4CE3"/>
<path d="M42.4766 171.475H114.844V190.353H42.4766V171.475Z" fill="#20EFA5"/>
<rect x="56.6348" y="190.354" width="44.0498" height="191.927" fill="#EA61E5"/>
<rect x="42.4766" y="190.353" width="72.3675" height="11.0122" fill="#CF4CE3"/>
<rect x="42.4766" y="154.171" width="17.3053" height="26.7439" fill="#20EFA5"/>
<rect x="69.2207" y="154.171" width="17.3053" height="26.7439" fill="#20EFA5"/>
<rect x="97.5391" y="154.171" width="17.3053" height="26.7439" fill="#20EFA5"/>
<rect x="432.632" y="158.89" width="17.3053" height="26.7439" fill="#20EFA5"/>
<rect x="459.376" y="158.89" width="17.3053" height="26.7439" fill="#20EFA5"/>
<rect x="487.694" y="158.89" width="17.3053" height="26.7439" fill="#20EFA5"/>
<path d="M432.631 176.195H504.998V195.073H432.631V176.195Z" fill="#20EFA5"/>
<rect x="446.79" y="195.073" width="44.0498" height="191.927" fill="#EA61E5"/>
<rect x="432.631" y="182.488" width="72.3675" height="12.5854" fill="#EA61E5"/>
<path d="M0 297.329H193.505V387H0V297.329Z" fill="#EA61E5"/>
<rect y="278.451" width="22.0249" height="18.878" fill="#CF4CE3"/>
<rect x="129.003" y="278.451" width="22.0249" height="18.878" fill="#CF4CE3"/>
<rect x="86.5264" y="278.451" width="22.0249" height="18.878" fill="#CF4CE3"/>
<rect x="44.0498" y="278.451" width="22.0249" height="18.878" fill="#CF4CE3"/>
<rect x="171.479" y="278.451" width="22.0249" height="18.878" fill="#CF4CE3"/>
<path fill-rule="evenodd" clip-rule="evenodd" d="M127.429 339.003C127.429 339.008 127.429 339.013 127.429 339.018L127.429 387H66.0742V339.018V336.658H66.1636C67.3686 320.819 80.603 308.341 96.7518 308.341C112.901 308.341 126.135 320.819 127.34 336.658H127.429V339.003Z" fill="#20EFA5"/>
<path fill-rule="evenodd" clip-rule="evenodd" d="M154.174 331.939C154.174 331.939 154.174 331.939 154.174 331.939L154.174 387H138.442V331.939C138.442 331.939 138.442 331.939 138.442 331.939C138.442 327.595 141.964 324.073 146.308 324.073C150.653 324.073 154.174 327.595 154.174 331.939Z" fill="#CF4CE3"/>
<path fill-rule="evenodd" clip-rule="evenodd" d="M180.92 331.939C180.92 331.939 180.92 331.939 180.92 331.939L180.92 387H165.188V331.939C165.188 331.939 165.188 331.939 165.188 331.939C165.188 327.595 168.709 324.073 173.054 324.073C177.398 324.073 180.92 327.595 180.92 331.939Z" fill="#CF4CE3"/>
<path fill-rule="evenodd" clip-rule="evenodd" d="M154.174 331.939C154.174 331.939 154.174 331.939 154.174 331.939L154.174 387H138.442V331.939C138.442 331.939 138.442 331.939 138.442 331.939C138.442 327.595 141.964 324.073 146.308 324.073C150.653 324.073 154.174 327.595 154.174 331.939Z" fill="#CF4CE3"/>
<path fill-rule="evenodd" clip-rule="evenodd" d="M180.92 331.939C180.92 331.939 180.92 331.939 180.92 331.939L180.92 387H165.188V331.939C165.188 331.939 165.188 331.939 165.188 331.939C165.188 327.595 168.709 324.073 173.054 324.073C177.398 324.073 180.92 327.595 180.92 331.939Z" fill="#CF4CE3"/>
<path fill-rule="evenodd" clip-rule="evenodd" d="M26.7448 331.939C26.7448 331.939 26.7448 331.939 26.7448 331.939L26.7448 387H11.0127V331.939C11.0127 331.939 11.0127 331.939 11.0127 331.939C11.0127 327.595 14.5344 324.073 18.8787 324.073C23.223 324.073 26.7448 327.595 26.7448 331.939Z" fill="#CF4CE3"/>
<path fill-rule="evenodd" clip-rule="evenodd" d="M53.4889 331.939C53.4889 331.939 53.4889 331.939 53.4889 331.939L53.4889 387H37.7568V331.939C37.7568 331.939 37.7568 331.939 37.7568 331.939C37.7569 327.595 41.2786 324.073 45.6229 324.073C49.9672 324.073 53.4889 327.595 53.4889 331.939Z" fill="#CF4CE3"/>
<path fill-rule="evenodd" clip-rule="evenodd" d="M248.859 169.13V167.838H248.893C249.345 159.169 254.308 152.34 260.365 152.34C266.421 152.34 271.385 159.169 271.837 167.838H271.871V169.13V195.391H248.859V169.13Z" fill="#20EFA5"/>
<path fill-rule="evenodd" clip-rule="evenodd" d="M204.387 169.13V167.838H204.42C204.872 159.169 209.836 152.34 215.892 152.34C221.949 152.34 226.912 159.169 227.364 167.838H227.398V169.13V195.392H204.387V169.13Z" fill="#20EFA5"/>
<path fill-rule="evenodd" clip-rule="evenodd" d="M292.386 170.076V168.784H292.419C292.871 160.115 297.835 153.286 303.891 153.286C309.948 153.286 314.911 160.115 315.363 168.784H315.397V170.076V196.338H292.386V170.076Z" fill="#20EFA5"/>
<path fill-rule="evenodd" clip-rule="evenodd" d="M353.891 143.695V142.686H353.917C354.27 135.912 358.148 130.577 362.88 130.577C367.612 130.577 371.49 135.912 371.843 142.686H371.869V143.695V164.213H353.891V143.695Z" fill="#20EFA5"/>
<path fill-rule="evenodd" clip-rule="evenodd" d="M70.0215 243.993V242.984H70.0477C70.4009 236.211 74.2788 230.875 79.0107 230.875C83.7426 230.875 87.6205 236.211 87.9737 242.984H87.9999V243.993V264.511H70.0215V243.993Z" fill="#20EFA5"/>
<path fill-rule="evenodd" clip-rule="evenodd" d="M115.439 144.641V143.632H115.466C115.819 136.859 119.697 131.523 124.429 131.523C129.161 131.523 133.038 136.859 133.392 143.632H133.418V144.641V165.159H115.439V144.641Z" fill="#20EFA5"/>
</svg>
