<svg width="360" height="297" viewBox="0 0 360 297" fill="none" xmlns="http://www.w3.org/2000/svg">
<path d="M58.7891 200.807C58.7891 200.807 79.5801 202.86 89.1284 195.631C93.0355 192.673 93.8242 189.553 97.4979 186.315C101.898 182.438 109.725 183.856 110.052 178.035C110.255 174.425 108.382 172.377 105.867 169.754C101.23 164.918 89.1284 165.614 89.1284 165.614" stroke="#3653D9" stroke-width="4"/>
<path d="M20.0815 168.719C20.0815 168.719 -0.705219 171.672 2.29638 179.07C3.69947 182.529 7.69947 182.075 9.61966 185.281C11.1359 187.813 10.1321 190.033 11.712 192.526C14.8192 197.43 19.7974 196.808 25.3124 198.737C29.7042 200.274 36.8204 201.842 36.8204 201.842" stroke="#3653D9" stroke-width="4"/>
<path d="M15.8965 220.474C15.8965 220.474 27.7688 225.065 35.774 225.649C43.5583 226.218 55.6515 223.579 55.6515 223.579" stroke="#3653D9" stroke-width="4"/>
<path d="M110.053 212.193C110.053 212.193 94.9142 215.013 92.2681 222.544C90.9265 226.362 92.2681 232.895 92.2681 232.895C93.4421 237.463 99.0355 238.556 98.5452 243.246C98.1248 247.266 92.8551 247.526 92.2681 251.526C91.5327 256.539 94.6207 259.66 98.5452 262.912C102.211 265.95 110.053 267.053 110.053 267.053" stroke="#3653D9" stroke-width="4"/>
<path d="M241.872 168.719C241.872 168.719 248.038 167.017 251.288 168.719C255.325 170.834 253.244 175.919 256.519 179.07C261.634 183.992 267.172 183.003 274.304 183.21C284.906 183.519 300.458 175.965 300.458 175.965" stroke="#3653D9" stroke-width="4"/>
<path d="M308.827 125.245C308.827 125.245 319.784 122.228 325.566 125.245C329.918 127.516 329.644 132.181 333.936 134.561C340.351 138.119 346.935 130.128 352.767 134.561C355.554 136.68 357.884 138.331 357.998 141.807C358.147 146.378 349.628 150.087 349.628 150.087" stroke="#3653D9" stroke-width="4"/>
<path d="M197.933 270.158C197.933 270.158 215.321 262.458 227.226 260.842C236.535 259.578 242.495 264.122 251.288 260.842C261.56 257.01 268.176 251.626 271.165 241.175C272.834 235.341 274.005 231.022 271.165 225.649C267.262 218.264 251.288 217.368 251.288 217.368" stroke="#3653D9" stroke-width="4"/>
<path d="M156.086 290.86C156.086 290.86 176.513 284.929 189.564 286.719C199.419 288.071 203.677 295 213.626 295C223.575 295 237.688 286.719 237.688 286.719" stroke="#3653D9" stroke-width="4"/>
<path d="M148.762 208.052C148.762 208.052 130.88 211.954 124.7 220.473C121.603 224.742 118.84 227.676 119.469 232.894C120.157 238.599 128.227 238.572 128.885 244.28C129.426 248.981 123.85 251.01 124.7 255.666C125.971 262.625 133.8 262.251 140.393 264.982C152.92 270.172 174.917 269.122 174.917 269.122" stroke="#3653D9" stroke-width="4"/>
<path d="M246.056 139.737L269.072 163.544C269.072 163.544 276.578 166.411 281.626 166.649C287.869 166.943 291.547 165.915 297.319 163.544C304.338 160.661 313.012 152.158 313.012 152.158C313.012 152.158 309.369 138.209 304.642 130.421C296.293 116.663 289.771 110.072 276.099 101.439C265.056 94.4651 255.765 92.1788 243.08 89.0576L242.918 89.0175C227.851 85.3101 218.683 88.6326 203.163 89.0175C182.297 89.535 170.09 96.9977 149.807 92.1228C137.19 89.0902 130.566 85.335 119.468 78.6666C106.814 71.0635 90.1748 54.8596 90.1748 54.8596C90.1748 54.8596 90.8348 74.8643 96.4519 85.9123C100.381 93.6404 101.886 99.0862 107.664 105.579C115.112 113.948 121.147 117.718 130.976 123.175C139.542 127.931 145.467 128.237 155.038 130.421C179.75 136.06 194.955 129.014 219.902 133.526C230.234 135.395 237.068 130.44 246.056 139.737Z" fill="#7D0AD7"/>
<path d="M22.1743 150.088C25.7023 162.069 35.7747 179.071 35.7747 179.071C35.7747 179.071 46.4253 183.309 53.5598 183.211C60.2973 183.118 64.4318 182.349 70.2988 179.071C75.0847 176.396 80.7606 169.755 80.7606 169.755C80.7606 169.755 65.2356 153.402 58.7907 140.772C52.4413 128.33 51.2137 120.258 48.3289 106.614C44.2993 87.5568 44.1442 56.9302 44.1442 56.9302C44.1442 56.9302 27.1836 75.3964 22.1743 90.053C18.8608 99.7479 18.3829 105.703 17.9896 115.93C17.4732 129.358 18.3754 137.187 22.1743 150.088Z" fill="#EA61E5"/>
<path d="M179.102 187.351C174.533 210.631 148.762 240.14 148.762 240.14C148.762 240.14 162.577 249.884 172.825 252.561C184.675 255.658 192.284 255.358 204.21 252.561C215.234 249.976 230.365 240.14 230.365 240.14C230.365 240.14 236.898 224.073 238.734 213.228C242.819 189.096 238.824 174.115 230.365 151.123C223.413 132.23 213.887 124.294 204.21 106.614C193.769 87.5386 184.201 78.0281 179.102 56.9298C173.876 35.307 179.102 0 179.102 0C179.102 0 164.202 12.3351 158.178 22.7719C151.248 34.779 150.173 43.1737 148.762 56.9298C146.505 78.9462 150.463 92.0536 158.178 112.825C164.106 128.783 175.275 134.548 179.102 151.123C182.287 164.915 181.828 173.462 179.102 187.351Z" fill="#CF4CE3"/>
<ellipse cx="185.378" cy="225.649" rx="8.36947" ry="8.2807" fill="#C4C4C4"/>
<ellipse cx="180.148" cy="197.702" rx="9.41565" ry="9.31579" fill="#EA61E5"/>
<ellipse cx="201.071" cy="187.351" rx="7.32328" ry="7.24561" fill="#C4C4C4"/>
<ellipse cx="201.071" cy="187.351" rx="7.32328" ry="7.24561" fill="#7D0AD7"/>
<ellipse cx="162.066" cy="13.4561" rx="7.32328" ry="7.24561" fill="#CF4CE3"/>
<ellipse cx="152.946" cy="40.3688" rx="9.41565" ry="9.31579" fill="#7D0AD7"/>
<ellipse cx="147.717" cy="64.1756" rx="6.2771" ry="6.21053" fill="#7D0AD7"/>
<ellipse cx="32.6369" cy="142.842" rx="4.18473" ry="4.14035" fill="#CF4CE3"/>
<ellipse cx="27.1082" cy="84.8773" rx="6.2771" ry="6.21053" fill="#7D0AD7"/>
<ellipse cx="38.9128" cy="157.333" rx="6.2771" ry="6.21053" fill="#7D0AD7"/>
<ellipse rx="4.16139" ry="4.16463" transform="matrix(0.68414 -0.729351 0.736584 0.676346 224.771 117.641)" fill="#EA61E5"/>
<ellipse rx="6.24142" ry="6.24638" transform="matrix(0.68414 -0.729351 0.736584 0.676346 239.776 122.946)" fill="#CF4CE3"/>
<ellipse cx="194.795" cy="168.719" rx="5.23092" ry="5.17544" fill="#EA61E5"/>
<ellipse cx="185.378" cy="225.649" rx="8.36947" ry="8.2807" fill="#7D0AD7"/>
</svg>
