<svg width="28" height="47" viewBox="0 0 28 47" fill="none" xmlns="http://www.w3.org/2000/svg">
<path fill-rule="evenodd" clip-rule="evenodd" d="M27.0546 18.6882C27.6651 17.148 28 15.473 28 13.7213C28 6.14322 21.732 0 14 0C6.26801 0 0 6.14322 0 13.7213C0 15.473 0.334919 17.148 0.945421 18.6882C1.12737 19.1473 1.33379 19.5943 1.56312 20.0279L14 47L26.4369 20.0279C26.6662 19.5943 26.8726 19.1473 27.0546 18.6882ZM14.0632 22.352C18.6814 22.352 22.4252 18.6827 22.4252 14.1564C22.4252 9.63019 18.6814 5.96094 14.0632 5.96094C9.44496 5.96094 5.70117 9.63019 5.70117 14.1564C5.70117 18.6827 9.44496 22.352 14.0632 22.352Z" fill="white"/>
<mask id="path-2-inside-1_423_16209" fill="white">
<path fill-rule="evenodd" clip-rule="evenodd" d="M14.0632 22.352C18.6814 22.352 22.4252 18.6827 22.4252 14.1564C22.4252 9.63019 18.6814 5.96094 14.0632 5.96094C9.44496 5.96094 5.70117 9.63019 5.70117 14.1564C5.70117 18.6827 9.44496 22.352 14.0632 22.352ZM13.9994 18.7503C16.5534 18.7503 18.6239 16.7211 18.6239 14.2179C18.6239 11.7148 16.5534 9.68555 13.9994 9.68555C11.4454 9.68555 9.375 11.7148 9.375 14.2179C9.375 16.7211 11.4454 18.7503 13.9994 18.7503Z"/>
</mask>
<path d="M12.4252 14.1564C12.4252 12.9712 13.3491 12.352 14.0632 12.352V32.352C24.0137 32.352 32.4252 24.3942 32.4252 14.1564H12.4252ZM14.0632 15.9609C13.3491 15.9609 12.4252 15.3417 12.4252 14.1564H32.4252C32.4252 3.91871 24.0137 -4.03906 14.0632 -4.03906V15.9609ZM15.7012 14.1564C15.7012 15.3417 14.7773 15.9609 14.0632 15.9609V-4.03906C4.11265 -4.03906 -4.29883 3.91871 -4.29883 14.1564H15.7012ZM14.0632 12.352C14.7773 12.352 15.7012 12.9712 15.7012 14.1564H-4.29883C-4.29883 24.3942 4.11265 32.352 14.0632 32.352V12.352ZM8.62387 14.2179C8.62387 11.0096 11.2211 8.75028 13.9994 8.75028V28.7503C21.8857 28.7503 28.6239 22.4325 28.6239 14.2179H8.62387ZM13.9994 19.6855C11.2211 19.6855 8.62387 17.4262 8.62387 14.2179H28.6239C28.6239 6.00328 21.8857 -0.314453 13.9994 -0.314453V19.6855ZM19.375 14.2179C19.375 17.4262 16.7777 19.6855 13.9994 19.6855V-0.314453C6.11312 -0.314453 -0.625 6.00327 -0.625 14.2179H19.375ZM13.9994 8.75028C16.7777 8.75028 19.375 11.0096 19.375 14.2179H-0.625C-0.625 22.4325 6.11312 28.7503 13.9994 28.7503V8.75028Z" fill="#FFC25E" mask="url(#path-2-inside-1_423_16209)"/>
</svg>
