<svg width="651" height="361" viewBox="0 0 651 361" fill="none" xmlns="http://www.w3.org/2000/svg">
<path fill-rule="evenodd" clip-rule="evenodd" d="M365.419 253.22H133.09V284.036H5.83398V351.632H186.794L365.419 351.632V253.22Z" fill="#FF700D"/>
<rect x="5.99805" y="283.921" width="126.953" height="67.981" fill="#3653D9"/>
<rect y="271.034" width="133" height="12.8657" fill="#7D0AD7"/>
<rect x="127.166" y="240.354" width="238" height="12.8657" fill="#7D0AD7"/>
<rect x="282.338" y="257.855" width="25.6666" height="25.6689" fill="#3653D9"/>
<rect x="215.838" y="257.855" width="25.6666" height="25.6689" fill="#3653D9"/>
<rect x="348.833" y="257.856" width="25.6666" height="25.6689" fill="#3653D9"/>
<rect x="149.338" y="257.855" width="25.6666" height="25.6689" fill="#3653D9"/>
<path d="M391.004 246.819C391.004 291.42 354.85 327.576 310.254 327.576C265.657 327.576 229.504 291.42 229.504 246.819C229.504 202.217 265.657 166.061 310.254 166.061C354.85 166.061 391.004 202.217 391.004 246.819Z" stroke="#7D0AD7" stroke-width="10"/>
<path d="M310.253 165.728V246.818M310.253 327.326V246.818M310.253 246.818H226.837M310.253 246.818H389.003" stroke="#7D0AD7" stroke-width="10"/>
<path d="M252.441 187.744L309.776 245.083M366.698 302.01L309.776 245.083M309.776 245.083L250.792 304.073M309.776 245.083L365.46 189.394" stroke="#7D0AD7" stroke-width="10"/>
<path d="M329.503 246.235C329.503 256.546 321.146 264.904 310.837 264.904C300.528 264.904 292.17 256.546 292.17 246.235C292.17 235.924 300.528 227.567 310.837 227.567C321.146 227.567 329.503 235.924 329.503 246.235Z" fill="#FF700D" stroke="#3653D9" stroke-width="7"/>
<path fill-rule="evenodd" clip-rule="evenodd" d="M586.839 175.101L476.13 131.845L365.42 175.101V351.632H586.839V175.101Z" fill="#3653D9"/>
<rect x="438.674" y="66.5059" width="71.1665" height="65.3391" fill="#FF700D"/>
<rect x="432.839" y="53.6714" width="82.8332" height="12.8345" fill="#7D0AD7"/>
<path fill-rule="evenodd" clip-rule="evenodd" d="M476.025 117.851L600.857 164.506L595.499 178.307L476.012 131.909L356.524 178.307L351.166 164.506L476.005 117.851V117.844L476.015 117.847L476.025 117.844V117.851Z" fill="#7D0AD7"/>
<rect x="456.173" y="32.6696" width="37.3333" height="21.0018" fill="#3653D9"/>
<path d="M474.84 0L495.84 32.6695H453.84L474.84 0Z" fill="#7D0AD7"/>
<rect x="488.2" y="306.86" width="9.6497" height="44.772" fill="#FF700D"/>
<rect x="369.991" y="306.86" width="9.6497" height="44.772" fill="#FF700D"/>
<rect x="429.096" y="306.86" width="9.6497" height="44.772" fill="#FF700D"/>
<rect x="400.147" y="306.86" width="9.6497" height="44.772" fill="#FF700D"/>
<rect x="459.252" y="306.86" width="9.6497" height="44.772" fill="#FF700D"/>
<rect x="365.42" y="317.851" width="142.79" height="6.14205" fill="#7D0AD7"/>
<rect x="365.42" y="333.206" width="142.79" height="6.14205" fill="#7D0AD7"/>
<path d="M489.833 169.181C489.833 176.822 483.639 183.016 475.999 183.016C468.36 183.016 462.166 176.822 462.166 169.181C462.166 161.541 468.36 155.347 475.999 155.347C483.639 155.347 489.833 161.541 489.833 169.181Z" fill="#FF700D" stroke="#7D0AD7" stroke-width="5"/>
<rect x="508.209" y="302.496" width="138.184" height="49.1364" fill="#FF700D"/>
<rect x="610.168" y="218.2" width="15.1666" height="22.2386" fill="#3653D9"/>
<rect x="607.833" y="213.519" width="19.8333" height="4.68181" fill="#7D0AD7"/>
<rect x="564.667" y="317.689" width="25.6666" height="18.7273" fill="#7D0AD7"/>
<rect x="522.666" y="317.689" width="25.6666" height="18.7273" fill="#7D0AD7"/>
<rect x="24.5664" y="302.776" width="25.6666" height="25.75" fill="#7D0AD7"/>
<rect x="91.0654" y="302.776" width="25.6666" height="25.75" fill="#7D0AD7"/>
<rect x="606.667" y="317.689" width="25.6666" height="18.7273" fill="#7D0AD7"/>
<rect x="410.374" y="200.045" width="25.6666" height="74.6738" fill="#FF700D" stroke="#7D0AD7" stroke-width="7"/>
<rect x="413.848" y="218.939" width="18.993" height="7.99777" fill="#7D0AD7"/>
<rect x="302.469" y="316.315" width="15.3537" height="35.3168" fill="#7D0AD7"/>
<rect x="290.186" y="340.884" width="41.4551" height="10.7486" fill="#7D0AD7"/>
<rect x="463.33" y="200.445" width="25.6666" height="74.6738" fill="#FF700D" stroke="#7D0AD7" stroke-width="7"/>
<rect x="466.804" y="219.338" width="18.993" height="7.99777" fill="#7D0AD7"/>
<rect x="514.312" y="200.445" width="25.6666" height="74.6738" fill="#FF700D" stroke="#7D0AD7" stroke-width="7"/>
<rect x="517.785" y="219.338" width="18.993" height="7.99777" fill="#7D0AD7"/>
<rect x="504" y="240.439" width="147" height="7.02272" fill="#FF700D"/>
<path d="M507.501 247.462H647.501L650.83 302.473H504L507.501 247.462Z" fill="#7D0AD7"/>
</svg>
