<svg width="569" height="467" viewBox="0 0 569 467" fill="none" xmlns="http://www.w3.org/2000/svg">
<g filter="url(#filter0_d_519_2)">
<path fill-rule="evenodd" clip-rule="evenodd" d="M425.41 388.862C415.174 387.682 407.229 379.06 407.229 368.601C407.229 357.335 416.446 348.202 427.816 348.202C430.163 348.202 432.419 348.591 434.52 349.308C434.507 348.941 434.5 348.572 434.5 348.201C434.5 331.522 448.146 318 464.979 318C481.583 318 495.086 331.157 495.45 347.523C498.706 349.292 501.426 351.908 503.31 355.071C507.081 350.857 512.586 348.201 518.717 348.201C530.087 348.201 539.304 357.335 539.304 368.601C539.304 379.06 531.36 387.681 521.124 388.862V389H425.41V388.862Z" fill="#00B574"/>
<path fill-rule="evenodd" clip-rule="evenodd" d="M497.897 379.97C497.897 380.049 497.897 380.128 497.898 380.207C490.937 381.783 485.743 387.956 485.743 395.332C485.743 403.793 492.578 410.672 501.076 410.843V411H549.327C549.332 411 549.337 411 549.343 411C549.348 411 549.353 411 549.358 411H551.302V410.88C559.024 409.925 565 403.396 565 395.485C565 386.916 557.99 379.97 549.343 379.97C547.557 379.97 545.842 380.266 544.244 380.812C544.254 380.532 544.259 380.252 544.259 379.97C544.259 367.284 533.88 357 521.078 357C508.275 357 497.897 367.284 497.897 379.97Z" fill="#20EFA5"/>
</g>
<g filter="url(#filter1_d_519_2)">
<rect x="196.003" y="348.514" width="180.426" height="79.4857" fill="#C455E0"/>
<rect x="202.119" y="284.314" width="180.426" height="64.2" fill="#7D0AD7"/>
<rect x="196.003" y="247.629" width="180.426" height="39.7429" fill="#FFC25E"/>
<rect x="192.945" y="152.857" width="180.426" height="94.7714" fill="#C455E0"/>
<rect x="270.926" y="214" width="24.4646" height="50.4429" fill="#7D0AD7"/>
<rect x="263.281" y="77.9572" width="41.284" height="74.9" fill="#7D0AD7"/>
<rect x="332.088" y="114.643" width="15.2904" height="38.2143" fill="#7D0AD7"/>
<path d="M281.569 244.245C281.967 243.666 282.821 243.666 283.219 244.245L344.219 333.192C344.674 333.855 344.199 334.757 343.394 334.757H221.394C220.589 334.757 220.114 333.855 220.569 333.192L281.569 244.245Z" fill="#C455E0"/>
<rect x="252.578" y="316.414" width="19.8775" height="18.3429" fill="#FFC25E"/>
<path d="M174.495 85.5708C174.88 84.9043 175.842 84.9043 176.227 85.5708L234.745 186.896C235.13 187.563 234.649 188.396 233.879 188.396H116.843C116.073 188.396 115.592 187.563 115.977 186.896L174.495 85.5708Z" fill="#FFC25E"/>
<path fill-rule="evenodd" clip-rule="evenodd" d="M134.842 177.314H147.074V186.486H157.777V177.314H170.01V186.486H180.713V177.314H192.945V186.486H203.648V177.314H215.881V186.486H215.881V206.357H134.842V192.6H134.842V177.314Z" fill="#7D0AD7"/>
<path fill-rule="evenodd" clip-rule="evenodd" d="M134.842 206.829C134.842 205.724 135.738 204.829 136.842 204.829H213.881C214.986 204.829 215.881 205.724 215.881 206.829V221.171C215.881 222.276 214.986 223.171 213.881 223.171H136.842C135.738 223.171 134.842 222.276 134.842 221.171V206.829ZM223.683 215.386C224.468 214.603 224.466 213.33 223.678 212.55L219.289 208.203C218.027 206.953 215.882 207.847 215.882 209.624V218.35C215.882 220.131 218.034 221.024 219.295 219.766L223.683 215.386ZM134.842 209.631C134.842 207.853 132.696 206.959 131.433 208.211L127.082 212.529C126.297 213.308 126.293 214.576 127.072 215.359L131.424 219.735C132.682 221 134.842 220.109 134.842 218.325V209.631Z" fill="#FFC25E"/>
<path d="M124.078 224.378C124.475 223.797 125.331 223.797 125.728 224.378L174.814 296.125C175.268 296.788 174.793 297.689 173.988 297.689H75.8178C75.0136 297.689 74.5384 296.788 74.9924 296.125L124.078 224.378Z" fill="#C455E0"/>
<path fill-rule="evenodd" clip-rule="evenodd" d="M99.6737 284.314H87.4414V296.543V299.6V428H140.958V296.543H136.371V284.314H124.139V296.543H118.022V284.314H105.79V296.543H99.6737V284.314Z" fill="#FFC25E"/>
<path d="M237.287 334.757H329.029V428H237.287V334.757Z" fill="#FFC25E"/>
<rect x="136.371" y="223.171" width="79.51" height="204.829" fill="#7D0AD7"/>
<path d="M391.822 85.5708C391.437 84.9043 390.475 84.9043 390.09 85.5708L331.572 186.896C331.187 187.563 331.668 188.396 332.438 188.396H449.474C450.244 188.396 450.725 187.563 450.34 186.896L391.822 85.5708Z" fill="#FFC25E"/>
<path fill-rule="evenodd" clip-rule="evenodd" d="M431.476 177.314H419.243V186.486H408.54V177.314H396.308V186.486H385.604V177.314H373.372V186.486H362.669V177.314H350.437V186.486H350.437V206.357H431.476V192.6H431.476V177.314Z" fill="#7D0AD7"/>
<path fill-rule="evenodd" clip-rule="evenodd" d="M431.476 206.829C431.476 205.724 430.581 204.829 429.476 204.829H352.437C351.333 204.829 350.437 205.724 350.437 206.829V221.171C350.437 222.276 351.333 223.171 352.437 223.171H429.476C430.581 223.171 431.476 222.276 431.476 221.171V206.829ZM342.635 215.386C341.85 214.603 341.852 213.33 342.641 212.55L347.029 208.203C348.292 206.953 350.436 207.847 350.436 209.624V218.35C350.436 220.131 348.284 221.024 347.024 219.766L342.635 215.386ZM431.476 209.631C431.476 207.853 433.623 206.959 434.885 208.211L439.237 212.529C440.022 213.308 440.026 214.576 439.246 215.359L434.894 219.735C433.636 221 431.476 220.109 431.476 218.325V209.631Z" fill="#FFC25E"/>
<path d="M442.24 224.378C441.842 223.797 440.986 223.797 440.589 224.378L391.504 296.125C391.049 296.788 391.525 297.689 392.329 297.689H490.5C491.304 297.689 491.779 296.788 491.325 296.125L442.24 224.378Z" fill="#C455E0"/>
<path fill-rule="evenodd" clip-rule="evenodd" d="M466.643 284.314H478.875V299.6H478.875V428H425.359V296.543H429.945V284.314H442.178V296.543H448.294V284.314H460.526V296.543H466.643V284.314Z" fill="#FFC25E"/>
<rect width="79.51" height="204.829" transform="matrix(-1 0 0 1 429.946 223.171)" fill="#7D0AD7"/>
<rect width="79.51" height="204.829" transform="matrix(-1 0 0 1 429.946 223.171)" fill="#7D0AD7"/>
<path d="M261.651 291.928C262.036 291.261 262.998 291.261 263.383 291.928L276.878 315.296C277.263 315.963 276.782 316.796 276.012 316.796H249.021C248.251 316.796 247.77 315.963 248.155 315.296L261.651 291.928Z" fill="#7D0AD7"/>
<rect x="293.862" y="316.414" width="19.8775" height="18.3429" fill="#FFC25E"/>
<path d="M302.935 291.928C303.32 291.261 304.282 291.261 304.667 291.928L318.163 315.296C318.548 315.963 318.066 316.796 317.297 316.796H290.305C289.535 316.796 289.054 315.963 289.439 315.296L302.935 291.928Z" fill="#7D0AD7"/>
<path d="M282.198 165.356C282.476 164.392 283.841 164.392 284.119 165.356L301.328 224.951C301.513 225.591 301.033 226.229 300.367 226.229H265.95C265.284 226.229 264.804 225.591 264.989 224.951L282.198 165.356Z" fill="#FFC25E"/>
<path d="M282.341 43.9609C282.739 43.3953 283.578 43.3953 283.976 43.9609L315.153 88.2278C315.62 88.8903 315.146 89.8036 314.336 89.8036H251.981C251.171 89.8036 250.697 88.8903 251.164 88.2278L282.341 43.9609Z" fill="#C455E0"/>
<path d="M282.198 3.32711C282.476 2.36368 283.841 2.36368 284.119 3.32711L301.328 62.9226C301.513 63.562 301.033 64.2 300.367 64.2H265.95C265.284 64.2 264.804 63.562 264.989 62.9226L282.198 3.32711Z" fill="#7D0AD7"/>
<path d="M338.916 98.986C339.314 98.4216 340.151 98.4216 340.549 98.986L353.186 116.888C353.653 117.55 353.179 118.464 352.369 118.464H327.096C326.286 118.464 325.812 117.55 326.279 116.888L338.916 98.986Z" fill="#C455E0"/>
<path d="M338.781 80.8991C339.08 79.9761 340.386 79.9761 340.684 80.8991L348.579 105.31C348.788 105.956 348.306 106.618 347.627 106.618H331.838C331.159 106.618 330.677 105.956 330.886 105.31L338.781 80.8991Z" fill="#FFC25E"/>
<rect x="217.41" y="114.643" width="15.2904" height="38.2143" fill="#7D0AD7"/>
<path d="M224.238 98.986C224.636 98.4216 225.473 98.4216 225.872 98.986L238.508 116.888C238.975 117.55 238.502 118.464 237.691 118.464H212.419C211.608 118.464 211.134 117.55 211.602 116.888L224.238 98.986Z" fill="#C455E0"/>
<path d="M224.103 80.8991C224.402 79.9761 225.708 79.9761 226.006 80.8991L233.901 105.31C234.11 105.956 233.629 106.618 232.95 106.618H217.16C216.481 106.618 216 105.956 216.208 105.31L224.103 80.8991Z" fill="#FFC25E"/>
<rect x="162.364" y="238.457" width="25.9936" height="36.6857" fill="#FFC25E"/>
<path fill-rule="evenodd" clip-rule="evenodd" d="M235.759 193.319C235.772 193.262 238.748 180.371 244.933 180.371C251.118 180.371 254.094 193.262 254.107 193.319H254.107V219.215H235.759V193.319H235.759C235.759 193.319 235.759 193.319 235.759 193.319Z" fill="#7D0AD7"/>
<path fill-rule="evenodd" clip-rule="evenodd" d="M310.682 193.319V193.319H310.682C310.695 193.261 313.672 180.371 319.856 180.371C326.04 180.371 329.017 193.261 329.03 193.319H329.03V193.319V219.215H310.682V193.319Z" fill="#7D0AD7"/>
<rect x="162.364" y="304.186" width="25.9936" height="36.6857" fill="#FFC25E"/>
<rect x="269.397" y="391.314" width="25.9936" height="36.6857" fill="#7D0AD7"/>
<rect x="377.959" y="238.457" width="25.9936" height="36.6857" fill="#FFC25E"/>
<rect x="377.959" y="304.186" width="25.9936" height="36.6857" fill="#FFC25E"/>
</g>
<g filter="url(#filter2_d_519_2)">
<path fill-rule="evenodd" clip-rule="evenodd" d="M75.0401 389C75.0401 390.904 75.2038 392.77 75.5181 394.585C71.3897 396.29 67.9418 399.29 65.6902 403.071C61.9189 398.857 56.4137 396.201 50.2825 396.201C38.9129 396.201 29.6959 405.335 29.6959 416.601C29.6959 427.06 37.64 435.681 47.8755 436.862V437H143.59V436.862C153.826 435.682 161.771 427.06 161.771 416.601C161.771 405.366 152.604 396.252 141.278 396.202C141.802 393.884 142.078 391.474 142.078 389C142.078 370.775 127.071 356 108.559 356C90.047 356 75.0401 370.775 75.0401 389Z" fill="#20EFA5"/>
<path fill-rule="evenodd" clip-rule="evenodd" d="M71.1034 427.97C71.1034 428.049 71.103 428.128 71.1022 428.207C78.0634 429.783 83.2572 435.956 83.2572 443.332C83.2572 451.793 76.4217 458.672 67.924 458.843V459H19.6731C19.6679 459 19.6626 459 19.6574 459C19.6522 459 19.6469 459 19.6417 459H17.6982V458.88C9.97558 457.925 4 451.396 4 443.485C4 434.916 11.0101 427.97 19.6574 427.97C21.4426 427.97 23.1581 428.266 24.7565 428.812C24.7463 428.532 24.7412 428.252 24.7412 427.97C24.7412 415.284 35.1197 405 47.9223 405C60.7249 405 71.1034 415.284 71.1034 427.97Z" fill="#00B574"/>
</g>
<defs>
<filter id="filter0_d_519_2" x="403.229" y="318" width="165.771" height="101" filterUnits="userSpaceOnUse" color-interpolation-filters="sRGB">
<feFlood flood-opacity="0" result="BackgroundImageFix"/>
<feColorMatrix in="SourceAlpha" type="matrix" values="0 0 0 0 0 0 0 0 0 0 0 0 0 0 0 0 0 0 127 0" result="hardAlpha"/>
<feOffset dy="4"/>
<feGaussianBlur stdDeviation="2"/>
<feComposite in2="hardAlpha" operator="out"/>
<feColorMatrix type="matrix" values="0 0 0 0 0 0 0 0 0 0 0 0 0 0 0 0 0 0 0.25 0"/>
<feBlend mode="normal" in2="BackgroundImageFix" result="effect1_dropShadow_519_2"/>
<feBlend mode="normal" in="SourceGraphic" in2="effect1_dropShadow_519_2" result="shape"/>
</filter>
<filter id="filter1_d_519_2" x="70.8164" y="2.60449" width="424.685" height="433.396" filterUnits="userSpaceOnUse" color-interpolation-filters="sRGB">
<feFlood flood-opacity="0" result="BackgroundImageFix"/>
<feColorMatrix in="SourceAlpha" type="matrix" values="0 0 0 0 0 0 0 0 0 0 0 0 0 0 0 0 0 0 127 0" result="hardAlpha"/>
<feOffset dy="4"/>
<feGaussianBlur stdDeviation="2"/>
<feComposite in2="hardAlpha" operator="out"/>
<feColorMatrix type="matrix" values="0 0 0 0 0 0 0 0 0 0 0 0 0 0 0 0 0 0 0.25 0"/>
<feBlend mode="normal" in2="BackgroundImageFix" result="effect1_dropShadow_519_2"/>
<feBlend mode="normal" in="SourceGraphic" in2="effect1_dropShadow_519_2" result="shape"/>
</filter>
<filter id="filter2_d_519_2" x="0" y="356" width="165.771" height="111" filterUnits="userSpaceOnUse" color-interpolation-filters="sRGB">
<feFlood flood-opacity="0" result="BackgroundImageFix"/>
<feColorMatrix in="SourceAlpha" type="matrix" values="0 0 0 0 0 0 0 0 0 0 0 0 0 0 0 0 0 0 127 0" result="hardAlpha"/>
<feOffset dy="4"/>
<feGaussianBlur stdDeviation="2"/>
<feComposite in2="hardAlpha" operator="out"/>
<feColorMatrix type="matrix" values="0 0 0 0 0 0 0 0 0 0 0 0 0 0 0 0 0 0 0.25 0"/>
<feBlend mode="normal" in2="BackgroundImageFix" result="effect1_dropShadow_519_2"/>
<feBlend mode="normal" in="SourceGraphic" in2="effect1_dropShadow_519_2" result="shape"/>
</filter>
</defs>
</svg>
