<svg width="434" height="436" viewBox="0 0 434 436" fill="none" xmlns="http://www.w3.org/2000/svg">
<g filter="url(#filter0_d_328_12622)">
<rect x="129.895" y="348.514" width="180.324" height="79.4857" fill="#20EFA5"/>
<rect x="136.007" y="284.314" width="180.324" height="64.2" fill="#59C2FD"/>
<rect x="129.895" y="247.629" width="180.324" height="39.7429" fill="#FFC25E"/>
<rect x="126.838" y="152.857" width="180.324" height="94.7714" fill="#20EFA5"/>
<rect x="204.774" y="214" width="24.4507" height="50.4429" fill="#59C2FD"/>
<rect x="197.134" y="77.9572" width="41.2606" height="74.9" fill="#59C2FD"/>
<rect x="265.901" y="114.643" width="15.2817" height="38.2143" fill="#59C2FD"/>
<path d="M215.411 244.246C215.808 243.667 216.663 243.667 217.06 244.246L278.026 333.192C278.48 333.855 278.005 334.757 277.201 334.757H155.27C154.466 334.757 153.99 333.855 154.445 333.192L215.411 244.246Z" fill="#20EFA5"/>
<rect x="186.437" y="316.414" width="19.8662" height="18.3429" fill="#FFC25E"/>
<path d="M108.398 85.5719C108.783 84.9051 109.745 84.9051 110.13 85.5719L168.615 186.897C168.999 187.563 168.518 188.396 167.749 188.396H50.7797C50.01 188.396 49.5288 187.563 49.9136 186.897L108.398 85.5719Z" fill="#FFC25E"/>
<path fill-rule="evenodd" clip-rule="evenodd" d="M68.7686 177.314H80.9939V186.486H91.6912V177.314H103.917V186.486H114.614V177.314H126.839V186.486H137.537V177.314H149.762V192.6H149.762V206.357H68.7686V192.6V186.486V177.314Z" fill="#59C2FD"/>
<path fill-rule="evenodd" clip-rule="evenodd" d="M68.7673 204.829C68.7673 204.829 68.7674 204.829 68.7674 204.829H149.76C149.76 204.829 149.76 204.829 149.76 204.829V204.829C149.76 204.829 149.76 204.829 149.76 204.829L157.552 212.55C158.34 213.33 158.342 214.602 157.558 215.386L150.346 222.587C149.971 222.961 149.463 223.171 148.933 223.171H68.7675C68.7674 223.171 68.7674 223.171 68.7674 223.171V223.171C68.7674 223.171 68.7674 223.171 68.7674 223.171L68.7673 223.171C68.7673 223.171 68.7673 223.171 68.7673 223.171L61.0015 215.359C60.2224 214.575 60.2266 213.308 61.0108 212.53L68.7673 204.829C68.7673 204.829 68.7673 204.829 68.7673 204.829V204.829Z" fill="#FFC25E"/>
<path d="M58.009 224.379C58.4061 223.798 59.2629 223.798 59.66 224.379L108.717 296.125C109.171 296.789 108.696 297.689 107.892 297.689H9.7775C8.97348 297.689 8.49821 296.789 8.95202 296.125L58.009 224.379Z" fill="#20EFA5"/>
<path fill-rule="evenodd" clip-rule="evenodd" d="M33.6199 284.314H21.3945V296.543V299.6V428H74.8804V296.543H70.2958V284.314H58.0704V296.543H51.9578V284.314H39.7325V296.543H33.6199V284.314Z" fill="#FFC25E"/>
<path d="M171.155 334.757H262.845V428H171.155V334.757Z" fill="#FFC25E"/>
<rect x="70.2959" y="223.171" width="79.4648" height="204.829" fill="#59C2FD"/>
<path d="M325.602 85.5719C325.217 84.9051 324.255 84.9051 323.87 85.5719L265.385 186.897C265.001 187.563 265.482 188.396 266.251 188.396H383.22C383.99 188.396 384.471 187.563 384.086 186.897L325.602 85.5719Z" fill="#FFC25E"/>
<path fill-rule="evenodd" clip-rule="evenodd" d="M365.231 177.314H353.006V186.486H342.309V177.314H330.083V186.486H319.386V177.314H307.161V186.486H296.463V177.314H284.238V192.6H284.238V206.357H365.231V192.6V186.486V177.314Z" fill="#59C2FD"/>
<path fill-rule="evenodd" clip-rule="evenodd" d="M365.234 204.829C365.234 204.829 365.234 204.829 365.234 204.829L372.99 212.53C373.774 213.308 373.779 214.575 372.999 215.359L365.234 223.171C365.234 223.171 365.234 223.171 365.234 223.171L365.234 223.171C365.234 223.171 365.234 223.171 365.234 223.171V223.171C365.234 223.171 365.234 223.171 365.234 223.171H285.068C284.538 223.171 284.03 222.961 283.655 222.587L276.443 215.386C275.659 214.602 275.661 213.33 276.449 212.55L284.241 204.829C284.241 204.829 284.241 204.829 284.241 204.829V204.829C284.241 204.829 284.241 204.829 284.241 204.829L365.234 204.829L365.234 204.829C365.234 204.829 365.234 204.829 365.234 204.829V204.829Z" fill="#FFC25E"/>
<path d="M375.991 224.379C375.594 223.798 374.737 223.798 374.34 224.379L325.283 296.125C324.829 296.789 325.304 297.689 326.108 297.689H424.223C425.027 297.689 425.502 296.789 425.048 296.125L375.991 224.379Z" fill="#20EFA5"/>
<path fill-rule="evenodd" clip-rule="evenodd" d="M400.38 284.314H412.605V296.543V299.6V428H359.12V296.543H363.704V284.314H375.93V296.543H382.042V284.314H394.268V296.543H400.38V284.314Z" fill="#FFC25E"/>
<rect width="79.4648" height="204.829" transform="matrix(-1 0 0 1 363.704 223.171)" fill="#59C2FD"/>
<rect width="79.4648" height="204.829" transform="matrix(-1 0 0 1 363.704 223.171)" fill="#59C2FD"/>
<path d="M195.504 291.929C195.889 291.262 196.851 291.262 197.236 291.929L210.724 315.296C211.108 315.963 210.627 316.796 209.858 316.796H182.882C182.112 316.796 181.631 315.963 182.016 315.296L195.504 291.929Z" fill="#59C2FD"/>
<rect x="227.697" y="316.414" width="19.8662" height="18.3429" fill="#FFC25E"/>
<path d="M236.765 291.929C237.149 291.262 238.112 291.262 238.497 291.929L251.984 315.296C252.369 315.963 251.888 316.796 251.118 316.796H224.143C223.373 316.796 222.892 315.963 223.277 315.296L236.765 291.929Z" fill="#59C2FD"/>
<path d="M216.039 165.358C216.317 164.394 217.683 164.394 217.961 165.358L235.159 224.951C235.344 225.591 234.864 226.229 234.198 226.229H199.801C199.136 226.229 198.656 225.591 198.84 224.951L216.039 165.358Z" fill="#FFC25E"/>
<path d="M216.182 43.9617C216.581 43.3958 217.42 43.3958 217.818 43.9617L248.977 88.228C249.443 88.8905 248.969 89.8036 248.159 89.8036H185.841C185.031 89.8036 184.557 88.8905 185.023 88.228L216.182 43.9617Z" fill="#20EFA5"/>
<path d="M216.039 3.32915C216.317 2.36552 217.683 2.36552 217.961 3.32914L235.159 62.9227C235.344 63.5621 234.864 64.2 234.198 64.2H199.801C199.136 64.2 198.656 63.5621 198.84 62.9227L216.039 3.32915Z" fill="#59C2FD"/>
<path d="M272.725 98.9868C273.124 98.4221 273.961 98.4221 274.359 98.9868L286.988 116.888C287.455 117.55 286.981 118.464 286.171 118.464H260.914C260.103 118.464 259.629 117.55 260.097 116.888L272.725 98.9868Z" fill="#20EFA5"/>
<path d="M272.59 80.901C272.889 79.9777 274.195 79.9777 274.493 80.901L282.383 105.31C282.592 105.956 282.11 106.618 281.432 106.618H265.652C264.973 106.618 264.492 105.956 264.701 105.31L272.59 80.901Z" fill="#FFC25E"/>
<rect x="151.288" y="114.643" width="15.2817" height="38.2143" fill="#59C2FD"/>
<path d="M158.113 98.9868C158.511 98.4221 159.349 98.4221 159.747 98.9868L172.376 116.888C172.843 117.55 172.369 118.464 171.558 118.464H146.301C145.491 118.464 145.017 117.55 145.484 116.888L158.113 98.9868Z" fill="#20EFA5"/>
<path d="M157.978 80.901C158.277 79.9777 159.583 79.9777 159.881 80.901L167.771 105.31C167.98 105.956 167.498 106.618 166.819 106.618H151.04C150.361 106.618 149.879 105.956 150.088 105.31L157.978 80.901Z" fill="#FFC25E"/>
<rect x="96.2744" y="238.457" width="25.9789" height="36.6857" fill="#FFC25E"/>
<path fill-rule="evenodd" clip-rule="evenodd" d="M169.628 193.319V193.319H169.628C169.642 193.26 172.616 180.371 178.797 180.371C184.978 180.371 187.952 193.26 187.966 193.319H187.966L187.966 193.319L187.966 219.215H169.628V193.319Z" fill="#59C2FD"/>
<path fill-rule="evenodd" clip-rule="evenodd" d="M244.507 193.319V193.319H244.507C244.52 193.261 247.495 180.371 253.676 180.371C259.857 180.371 262.831 193.261 262.845 193.319H262.845L262.845 193.319L262.845 219.215H244.507V193.319Z" fill="#59C2FD"/>
<rect x="96.2744" y="304.186" width="25.9789" height="36.6857" fill="#FFC25E"/>
<rect x="203.246" y="391.314" width="25.9789" height="36.6857" fill="#59C2FD"/>
<rect x="311.746" y="238.457" width="25.9789" height="36.6857" fill="#FFC25E"/>
<rect x="311.746" y="304.186" width="25.9789" height="36.6857" fill="#FFC25E"/>
</g>
<defs>
<filter id="filter0_d_328_12622" x="4.77539" y="2.60645" width="424.449" height="433.394" filterUnits="userSpaceOnUse" color-interpolation-filters="sRGB">
<feFlood flood-opacity="0" result="BackgroundImageFix"/>
<feColorMatrix in="SourceAlpha" type="matrix" values="0 0 0 0 0 0 0 0 0 0 0 0 0 0 0 0 0 0 127 0" result="hardAlpha"/>
<feOffset dy="4"/>
<feGaussianBlur stdDeviation="2"/>
<feComposite in2="hardAlpha" operator="out"/>
<feColorMatrix type="matrix" values="0 0 0 0 0 0 0 0 0 0 0 0 0 0 0 0 0 0 0.25 0"/>
<feBlend mode="normal" in2="BackgroundImageFix" result="effect1_dropShadow_328_12622"/>
<feBlend mode="normal" in="SourceGraphic" in2="effect1_dropShadow_328_12622" result="shape"/>
</filter>
</defs>
</svg>
