<svg width="319" height="551" viewBox="0 0 319 551" fill="none" xmlns="http://www.w3.org/2000/svg">
<path fill-rule="evenodd" clip-rule="evenodd" d="M78.9756 327.918H243.121L275.641 399.358H243.121H78.9756V327.918ZM78.9755 327.918V399.358H46.4561L78.9755 327.918Z" fill="#20EFA5"/>
<rect y="399.727" width="79" height="85.155" fill="#7D0AD7"/>
<rect x="238" y="399.727" width="81" height="85.155" fill="#7D0AD7"/>
<path fill-rule="evenodd" clip-rule="evenodd" d="M263.253 425.76H291.963V484.695H263.253V425.76ZM26.3252 425.76H55.0352V484.695H319V550.002H0V484.695H26.3252V425.76Z" fill="#59C2FD"/>
<path fill-rule="evenodd" clip-rule="evenodd" d="M238.475 484.775H78.9746V550.002H238.475V484.775ZM103.305 508.638V508.639V550.002H124.932V508.638H124.932C124.931 501.17 120.09 494.32 114.118 494.32C108.146 494.32 103.305 501.17 103.305 508.638ZM147.911 508.639V508.638C147.911 501.17 152.752 494.32 158.724 494.32C164.697 494.32 169.538 501.17 169.538 508.638H169.538V550.002H147.911V508.639ZM192.517 508.638V508.639V550.002H214.144V508.638H214.143C214.143 501.17 209.302 494.32 203.33 494.32C197.358 494.32 192.517 501.17 192.517 508.638Z" fill="#20EFA5"/>
<rect x="78.9756" y="411.782" width="159.5" height="72.9925" fill="#59C2FD"/>
<rect x="139.368" y="424.207" width="38.7136" height="60.5683" fill="#7D0AD7"/>
<rect x="109.946" y="411.782" width="10.8398" height="72.9925" fill="#20EFA5"/>
<rect x="196.664" y="411.782" width="10.8398" height="72.9925" fill="#20EFA5"/>
<rect x="78.9756" y="399.358" width="159.5" height="12.4243" fill="#20EFA5"/>
<rect x="108.398" y="298.411" width="100.655" height="88.5229" fill="#7D0AD7"/>
<path d="M158.726 346.555L238.476 399.358H78.9756L158.726 346.555Z" fill="#59C2FD"/>
<path fill-rule="evenodd" clip-rule="evenodd" d="M196.665 124.471H120.786V298.411H196.665V124.471ZM179.631 221.013C179.631 207.109 170.618 194.357 159.5 194.357C148.382 194.357 139.369 207.109 139.369 221.013V298.018H179.631V221.013H179.631Z" fill="#59C2FD"/>
<path fill-rule="evenodd" clip-rule="evenodd" d="M159.718 0.886068C159.579 -0.291132 157.871 -0.29112 157.732 0.886081L147.9 84.271C132.221 89.4208 120.786 105.47 120.786 124.471H196.665C196.665 105.47 185.23 89.4204 169.55 84.2708L159.718 0.886068Z" fill="#20EFA5"/>
</svg>
