<svg width="1440" height="968" viewBox="0 0 1440 968" fill="none" xmlns="http://www.w3.org/2000/svg">
<mask id="mask0_484_4" style="mask-type:alpha" maskUnits="userSpaceOnUse" x="-2" y="0" width="1668" height="968">
<path d="M194 927.527C49.9372 908.048 -2 943.806 -2 943.806V15C-2 15 278.5 -35.0646 321.5 52.2177C364.5 139.5 849.597 92.751 1023 64.5C1334.5 13.75 1439 64.5 1439 64.5C1439 64.5 1980.5 306.5 1389 474.5C1238.43 517.265 1200.76 651.098 1141 665C1001.24 697.512 1064.2 624.056 921.5 644C814.401 658.969 518.998 609.059 557 699.5C580.867 756.301 650.482 727.954 676.5 784C707.806 851.437 711.902 876.235 653.628 927.527C561.534 1008.58 322.001 944.834 194 927.527Z" fill="#0CAEF3"/>
</mask>
<g mask="url(#mask0_484_4)">
<rect y="-28" width="1440" height="1018" fill="#0CAEF3"/>
</g>
<mask id="mask1_484_4" style="mask-type:alpha" maskUnits="userSpaceOnUse" x="-2" y="75" width="1474" height="893">
<path d="M194 927.527C49.9372 908.048 -2 943.806 -2 943.806V92.5C-2 92.5 129 67.2177 172 154.5C215 241.782 703 257 911.5 136C1120 15 1470 111.5 1470 111.5C1470 111.5 1477.5 406 1455.5 361.5C1433.5 317 1359.52 385.196 1262 380.5C1161.86 375.677 1094.02 320.78 1006.5 355.5C861.006 413.22 1023 459.5 972.5 503.5C864.316 597.76 557.5 440.5 410 503.5C310.551 545.976 306.498 553.559 344.5 644C368.367 700.801 580.482 741.454 606.5 797.5C637.806 864.937 640.774 876.235 582.5 927.527C490.407 1008.58 322.001 944.834 194 927.527Z" fill="#0CF2F3"/>
</mask>
<g mask="url(#mask1_484_4)">
<rect y="-28" width="1440" height="1018" fill="#0CF2F3"/>
</g>
</svg>
