<svg width="933" height="319" viewBox="0 0 933 319" fill="none" xmlns="http://www.w3.org/2000/svg">
<path d="M497.053 176.602L422.654 97.8611L377.072 176.602L318.915 205.528L287.478 256.951H397.243H507.008L497.053 176.602Z" fill="#59C2FD"/>
<path fill-rule="evenodd" clip-rule="evenodd" d="M422.654 97.8611L497.053 176.602L507.008 256.951H397.243L431.741 185.256L422.654 97.8611Z" fill="#3653D9"/>
<path d="M852.506 176.359L804.941 126.12L709.812 0L678.973 53.9021L662.77 39.4406L645.521 53.9021L678.45 256.951H933L865.573 189.442L852.506 176.359Z" fill="#59C2FD"/>
<path fill-rule="evenodd" clip-rule="evenodd" d="M678.973 53.9021H645.521L804.941 176.359L852.506 189.442H865.573L933 256.951H678.45L645.521 53.9021L662.77 39.4406L678.973 53.9021Z" fill="#7D0AD7"/>
<path fill-rule="evenodd" clip-rule="evenodd" d="M709.812 0L678.973 53.9021H709.812V0ZM645.521 53.9021H678.973L662.77 39.4406L645.521 53.9021Z" fill="#3653D9"/>
<path d="M622.523 256.951H698.313H774.103H814.35L793.965 187.349L698.313 119.841L646.044 54.4254L576.003 127.69L509.099 154.903L442.195 256.951H509.099H622.523Z" fill="#59C2FD"/>
<path d="M622.523 256.951H698.313H774.103H814.35L793.965 187.349L698.313 119.841L646.044 54.4254L576.003 127.69L509.099 154.903L442.195 256.951H509.099H622.523Z" fill="#59C2FD"/>
<path fill-rule="evenodd" clip-rule="evenodd" d="M698.313 256.951H622.523H509.099H442.195L509.099 154.903L576.003 127.69L646.044 54.4254L698.313 119.841L793.965 187.349L814.35 256.951H774.103L689.95 165.893L685.768 212.992L716.084 229.215L698.313 256.951Z" fill="#59C2FD"/>
<path fill-rule="evenodd" clip-rule="evenodd" d="M698.313 256.951H622.523H509.099H442.195L509.099 154.903L576.003 127.69L646.044 54.4254L698.313 119.841L793.965 187.349L814.35 256.951H774.103L689.95 165.893L685.768 212.992L716.084 229.215L698.313 256.951Z" fill="#7D0AD7"/>
<path fill-rule="evenodd" clip-rule="evenodd" d="M622.523 256.951H509.099L614.16 138.68L646.044 54.4254L698.313 119.841L793.965 187.349L814.35 256.951H774.103L689.95 165.893L627.75 243.344L622.523 256.951Z" fill="#59C2FD"/>
<path fill-rule="evenodd" clip-rule="evenodd" d="M622.523 256.951H509.099L614.16 138.68L646.044 54.4254L698.313 119.841L793.965 187.349L814.35 256.951H774.103L689.95 165.893L627.75 243.344L622.523 256.951Z" fill="#3653D9"/>
<path fill-rule="evenodd" clip-rule="evenodd" d="M509.099 256.951H442.195L509.099 154.903L576.003 127.69L646.044 54.4254L614.16 138.68L509.099 256.951Z" fill="#59C2FD"/>
<path fill-rule="evenodd" clip-rule="evenodd" d="M509.099 256.951H442.195L509.099 154.903L576.003 127.69L646.044 54.4254L614.16 138.68L509.099 256.951Z" fill="#7D0AD7"/>
<path d="M398.96 238.652L467.047 159.91L508.762 238.652L538.775 272.963L528.28 319H490.302H389.85L398.96 238.652Z" fill="#59C2FD"/>
<path fill-rule="evenodd" clip-rule="evenodd" d="M467.047 159.91L398.96 238.652L389.85 319H448.813L458.731 247.305L467.047 159.91Z" fill="#3653D9"/>
<path d="M73.6648 238.408L117.194 188.17L204.252 62.0491L232.475 115.951L247.303 101.49L263.089 115.951L232.953 319H0L61.7062 251.491L73.6648 238.408Z" fill="#59C2FD"/>
<path fill-rule="evenodd" clip-rule="evenodd" d="M232.475 115.951H263.089L117.194 238.408L73.6648 251.491H61.7062L0 319H232.953L263.089 115.951L247.303 101.49L232.475 115.951Z" fill="#7D0AD7"/>
<path fill-rule="evenodd" clip-rule="evenodd" d="M204.252 62.0491L232.475 115.951H204.252V62.0491ZM263.089 115.951H232.475L247.303 101.49L263.089 115.951Z" fill="#3653D9"/>
<path d="M284.136 319H214.776H145.416H108.584L127.239 249.398L214.776 181.89L262.61 116.475L326.708 189.74L387.936 216.952L449.164 319H387.936H284.136Z" fill="#59C2FD"/>
<path d="M284.136 319H214.776H145.416H108.584L127.239 249.398L214.776 181.89L262.61 116.475L326.708 189.74L387.936 216.952L449.164 319H387.936H284.136Z" fill="#59C2FD"/>
<path fill-rule="evenodd" clip-rule="evenodd" d="M214.776 319H284.136H387.936H449.164L387.936 216.952L326.708 189.74L262.61 116.475L214.776 181.89L127.239 249.398L108.584 319H145.416L222.43 227.942L226.256 275.041L198.512 291.264L214.776 319Z" fill="#59C2FD"/>
<path fill-rule="evenodd" clip-rule="evenodd" d="M214.776 319H284.136H387.936H449.164L387.936 216.952L326.708 189.74L262.61 116.475L214.776 181.89L127.239 249.398L108.584 319H145.416L222.43 227.942L226.256 275.041L198.512 291.264L214.776 319Z" fill="#7D0AD7"/>
<path fill-rule="evenodd" clip-rule="evenodd" d="M284.136 319H387.936L291.789 200.729L262.61 116.475L214.776 181.89L127.239 249.398L108.584 319H145.416L222.43 227.942L279.352 305.394L284.136 319Z" fill="#59C2FD"/>
<path fill-rule="evenodd" clip-rule="evenodd" d="M284.136 319H387.936L291.789 200.729L262.61 116.475L214.776 181.89L127.239 249.398L108.584 319H145.416L222.43 227.942L279.352 305.394L284.136 319Z" fill="#3653D9"/>
<path fill-rule="evenodd" clip-rule="evenodd" d="M387.936 319H449.164L387.936 216.952L326.708 189.74L262.61 116.475L291.789 200.729L387.936 319Z" fill="#59C2FD"/>
<path fill-rule="evenodd" clip-rule="evenodd" d="M387.936 319H449.164L387.936 216.952L326.708 189.74L262.61 116.475L291.789 200.729L387.936 319Z" fill="#7D0AD7"/>
</svg>
