<svg width="532" height="407" viewBox="0 0 532 407" fill="none" xmlns="http://www.w3.org/2000/svg">
<g filter="url(#filter0_d_423_2672)">
<g filter="url(#filter1_d_423_2672)">
<circle cx="130.933" cy="212.933" r="42.5" transform="rotate(9.50217 130.933 212.933)" fill="#00B574"/>
</g>
<path fill-rule="evenodd" clip-rule="evenodd" d="M363.396 176.692L363.377 176.801C364.41 176.898 365.447 177.032 366.486 177.204C389.927 181.087 405.749 203.039 401.825 226.236C397.902 249.433 375.719 265.091 352.278 261.208C342.558 259.598 334.149 254.881 327.914 248.257C327.86 248.724 327.794 249.192 327.715 249.662C325.588 262.235 314.716 270.913 303.432 269.044C292.147 267.175 284.723 255.466 286.85 242.893C288.977 230.32 299.849 221.642 311.133 223.511C313.156 223.846 315.055 224.497 316.797 225.413C316.16 221.129 316.178 216.676 316.939 212.176C318.801 201.17 324.772 191.862 333.038 185.532C330.395 181.617 329.199 176.492 330.098 171.176C331.831 160.931 340.69 153.86 349.885 155.384C359.079 156.907 365.128 166.447 363.396 176.692Z" fill="#00B574"/>
<ellipse rx="22.776" ry="22.5523" transform="matrix(0.986557 0.163417 -0.166769 0.985996 377.128 158.485)" fill="#20EFA5"/>
<ellipse rx="25.3066" ry="25.0581" transform="matrix(0.986557 0.163417 -0.166769 0.985996 417.924 134.843)" fill="#20EFA5"/>
<ellipse rx="25.3066" ry="25.0581" transform="matrix(0.986557 0.163417 -0.166769 0.985996 146.145 158.843)" fill="#20EFA5"/>
<path fill-rule="evenodd" clip-rule="evenodd" d="M438.45 201.72C432.017 206.875 423.5 209.372 414.73 207.904C398.389 205.169 387.359 189.704 390.094 173.363C392.829 157.022 408.294 145.992 424.635 148.727C431.406 149.86 437.265 153.179 441.611 157.84C443.935 157.49 446.354 157.494 448.8 157.899C461.209 159.954 469.585 171.576 467.508 183.857C465.431 196.138 453.687 204.427 441.277 202.372C440.31 202.211 439.366 201.993 438.45 201.72Z" fill="#00B574"/>
<path fill-rule="evenodd" clip-rule="evenodd" d="M387.112 222.703C384.234 216.966 383.09 210.327 384.237 203.548C387.151 186.317 403.756 174.709 421.324 177.619C434.362 179.778 444.267 189.327 447.317 201.15C476.325 208.134 495.413 236.007 490.45 265.349C485.251 296.084 455.632 316.792 424.294 311.601C393.082 306.431 371.936 277.521 376.902 246.923C373.613 248.329 369.883 248.845 366.076 248.215C355.63 246.484 348.566 236.776 350.299 226.531C352.032 216.286 361.905 209.384 372.351 211.114C379.233 212.254 384.647 216.857 387.045 222.794C387.067 222.764 387.09 222.733 387.112 222.703Z" fill="#20EFA5"/>
</g>
<path fill-rule="evenodd" clip-rule="evenodd" d="M267.857 52.2817C267.857 39.6919 277.943 29.4859 290.384 29.4859C302.826 29.4859 312.912 39.6919 312.912 52.2817H267.857Z" fill="#3653D9"/>
<rect width="183" height="18" transform="matrix(-1 0 0 1 382 255)" fill="#3653D9"/>
<rect width="183.192" height="17.8402" transform="matrix(-1 0 0 1 381.98 171.712)" fill="#FFC25E"/>
<rect width="45.0553" height="17.8402" transform="matrix(-1 0 0 1 312.912 52.2817)" fill="#FFC25E"/>
<rect width="183.192" height="65.4141" transform="matrix(-1 0 0 1 381.98 189.552)" fill="#FF700D"/>
<rect width="183" height="113" transform="matrix(-1 0 0 1 382 273)" fill="#FFC25E"/>
<rect width="28.469" height="36.9193" transform="matrix(-1 0 0 1 304.743 218.047)" fill="#FFC25E"/>
<path fill-rule="evenodd" clip-rule="evenodd" d="M276.274 218.171C276.274 209.208 282.647 201.941 290.509 201.941C298.37 201.941 304.743 209.208 304.743 218.171H276.274Z" fill="#FFC25E"/>
<rect width="28.469" height="36.9193" transform="matrix(-1 0 0 1 360.938 218.047)" fill="#FFC25E"/>
<path fill-rule="evenodd" clip-rule="evenodd" d="M332.469 218.171C332.469 209.208 338.842 201.941 346.704 201.941C354.565 201.941 360.938 209.208 360.938 218.171H332.469Z" fill="#FFC25E"/>
<path fill-rule="evenodd" clip-rule="evenodd" d="M247.804 218.147C247.804 218.155 247.804 218.163 247.804 218.171H247.804V254.966H219.335V218.047H219.335C219.393 209.141 225.744 201.941 233.569 201.941C241.394 201.941 247.745 209.141 247.803 218.047H247.804V218.147Z" fill="#FFC25E"/>
<path fill-rule="evenodd" clip-rule="evenodd" d="M198.684 153.996C198.684 105.347 239.717 65.9095 290.332 65.9095C340.948 65.9095 381.98 105.347 381.98 153.996H198.684Z" fill="#3653D9"/>
<rect width="183.192" height="17.8402" transform="matrix(-1 0 0 1 381.98 153.872)" fill="#3653D9"/>
<rect width="6.18892" height="27.0081" transform="matrix(-1 0 0 1 293.603 8.9201)" fill="#3653D9"/>
<ellipse rx="5.94136" ry="5.94674" transform="matrix(-1 0 0 1 290.385 5.94674)" fill="#FFC25E"/>
<rect width="6.15179" height="26.971" transform="matrix(-1 0 0 1 179.576 109.857)" fill="#FF700D"/>
<rect width="47" height="113" transform="matrix(-1 0 0 1 200 273)" fill="#3653D9"/>
<rect width="47" height="25" transform="matrix(-1 0 0 1 200 248)" fill="#FFC25E"/>
<rect width="46.9997" height="27.4659" transform="matrix(-1 0 0 1 200 220.71)" fill="#FFC25E"/>
<rect width="46.9997" height="8.66041" transform="matrix(-1 0 0 1 200 212.049)" fill="#FF700D"/>
<rect width="46.9997" height="27.4659" transform="matrix(-1 0 0 1 200 184.584)" fill="#FFC25E"/>
<rect width="46.9997" height="8.66041" transform="matrix(-1 0 0 1 200 175.923)" fill="#FF700D"/>
<path fill-rule="evenodd" clip-rule="evenodd" d="M200 153.282V153.159H200C199.926 141.531 189.433 132.126 176.5 132.126C163.567 132.126 153.075 141.531 153.001 153.159H153V153.282V175.923H200V153.282Z" fill="#FFC25E"/>
<path fill-rule="evenodd" clip-rule="evenodd" d="M173.178 193.646C173.178 193.646 173.178 193.646 173.178 193.646V212.05H179.576V193.646C179.576 193.646 179.576 193.646 179.576 193.646C179.576 192.194 178.144 191.017 176.377 191.017C174.611 191.017 173.178 192.194 173.178 193.646Z" fill="#3653D9"/>
<path fill-rule="evenodd" clip-rule="evenodd" d="M185.199 191C183.432 191 182 192.177 182 193.629V212.032H188.397V193.629C188.397 192.177 186.965 191 185.199 191Z" fill="#3653D9"/>
<path fill-rule="evenodd" clip-rule="evenodd" d="M167.199 191C165.432 191 164 192.177 164 193.629V212.032H170.397V193.629C170.397 192.177 168.965 191 167.199 191Z" fill="#3653D9"/>
<rect width="12.0911" height="12.0911" transform="matrix(-0.705143 -0.709065 -0.705143 0.709065 184.989 104.573)" fill="#FF700D"/>
<path fill-rule="evenodd" clip-rule="evenodd" d="M57.9999 313.244H180.293V386H57.9999V313.244ZM119.147 330.874C93.4431 330.874 72.6061 355.555 72.6061 386H165.688C165.688 355.555 144.851 330.874 119.147 330.874Z" fill="#FF700D"/>
<rect width="122.293" height="5.94674" transform="matrix(-1 0 0 1 180.293 307.297)" fill="#FFC25E"/>
<rect width="88.3778" height="51.2906" transform="matrix(-1 0 0 1 163.459 256.007)" fill="#FF700D"/>
<rect width="88.3778" height="5.94674" transform="matrix(-1 0 0 1 163.459 250.06)" fill="#3653D9"/>
<rect width="88" height="30" transform="matrix(-1 0 0 1 163 220)" fill="#3653D9"/>
<path fill-rule="evenodd" clip-rule="evenodd" d="M149.102 225.529H128.554V244.113H149.102V225.529ZM163.459 244.113H75.0812V250.06H163.459V244.113ZM89.192 225.529H109.739V244.113H89.192V225.529Z" fill="#FF700D"/>
<path fill-rule="evenodd" clip-rule="evenodd" d="M114.142 272.387C114.142 272.387 114.142 272.387 114.142 272.387V307.263H124.098V272.387C124.098 272.387 124.098 272.387 124.098 272.387C124.098 269.635 121.869 267.405 119.12 267.405C116.371 267.405 114.142 269.635 114.142 272.387Z" fill="#3653D9"/>
<path fill-rule="evenodd" clip-rule="evenodd" d="M139.392 272.387C139.392 269.635 141.621 267.404 144.37 267.404C147.119 267.404 149.348 269.635 149.348 272.387H149.348V307.263H139.392V272.387H139.392Z" fill="#3653D9"/>
<path fill-rule="evenodd" clip-rule="evenodd" d="M88.891 272.387C88.891 269.635 91.1196 267.404 93.8688 267.404C96.618 267.404 98.8467 269.635 98.8467 272.387H98.8466V307.263H88.8909V272.387H88.891Z" fill="#3653D9"/>
<rect width="82.9315" height="14.8668" transform="matrix(-1 0 0 1 359.205 289.656)" fill="#FF700D"/>
<path fill-rule="evenodd" clip-rule="evenodd" d="M280.235 289.656C280.235 269.813 296.971 253.727 317.616 253.727C338.261 253.727 354.997 269.813 354.997 289.656H280.235Z" fill="#FF700D"/>
<path fill-rule="evenodd" clip-rule="evenodd" d="M332.222 321.619H334.45V333.869C338.374 334.566 341.381 338.523 341.381 343.3H325.042C325.042 338.423 328.177 334.4 332.222 333.83V321.619Z" fill="#FF700D"/>
<path fill-rule="evenodd" clip-rule="evenodd" d="M300.534 320.628H302.762V332.878C306.686 333.575 309.693 337.532 309.693 342.309H293.355C293.355 337.432 296.489 333.41 300.534 332.839V320.628Z" fill="#FF700D"/>
<path fill-rule="evenodd" clip-rule="evenodd" d="M353.264 304.522H282.215V385.547H291.127V336.739H291.127L291.127 336.685V336.6H291.127C291.179 328.34 295.869 321.668 301.648 321.668C307.426 321.668 312.117 328.34 312.168 336.6H312.169V385.547H322.814V336.6H322.815C322.866 328.34 327.557 321.668 333.335 321.668C339.114 321.668 343.804 328.34 343.856 336.6H343.856V336.678L343.856 336.739H343.856V385.547H353.264V304.522Z" fill="#3653D9"/>
<rect width="71.0488" height="26.7603" transform="matrix(-1 0 0 1 353.264 358.786)" fill="#FF700D"/>
<rect width="6.18892" height="33.4504" transform="matrix(-1 0 0 1 320.834 211.605)" fill="#3653D9"/>
<ellipse rx="5.94136" ry="5.94674" transform="matrix(-1 0 0 1 317.615 206.897)" fill="#FFC25E"/>
<path fill-rule="evenodd" clip-rule="evenodd" d="M303.753 257.32C303.753 249.588 310.015 243.321 317.74 243.321C325.464 243.321 331.727 249.588 331.727 257.32H303.753Z" fill="#FFC25E"/>
<rect width="9.92089" height="9.92089" transform="matrix(-0.70578 -0.708431 -0.70578 0.708431 519.127 233.5)" fill="#FF700D"/>
<path fill-rule="evenodd" clip-rule="evenodd" d="M492.391 297.845C492.391 284.638 501.258 273.932 512.195 273.932C523.133 273.932 532 284.638 532 297.845H492.391Z" fill="#3653D9"/>
<rect width="39.6091" height="39.2609" transform="matrix(-1 0 0 1 532 346.739)" fill="#FF700D"/>
<rect width="39.6091" height="7.4546" transform="matrix(-1 0 0 1 532 339.284)" fill="#3653D9"/>
<rect width="39.6091" height="7.4546" transform="matrix(-1 0 0 1 532 297.787)" fill="#3653D9"/>
<path fill-rule="evenodd" clip-rule="evenodd" d="M492.391 305.242H532V339.284H521.851V325.055V324.441H521.841C521.613 317.214 517.387 311.454 512.206 311.454C507.025 311.454 502.799 317.214 502.571 324.441H502.541V339.284H492.391V305.242Z" fill="#FFC25E"/>
<rect width="5.94136" height="39.5094" transform="matrix(-1 0 0 1 515.166 237.156)" fill="#FF700D"/>
<ellipse rx="4.95114" ry="4.96973" transform="matrix(-1 0 0 1 512.195 273.933)" fill="#3653D9"/>
<ellipse rx="6.06514" ry="6.08792" transform="matrix(-1 0 0 1 512.319 252.19)" fill="#3653D9"/>
<rect width="82.684" height="39.3971" transform="matrix(-1 0 0 1 464.664 273.054)" fill="#FF700D"/>
<path fill-rule="evenodd" clip-rule="evenodd" d="M449.315 282.47H432.234V306.505H449.315V282.47ZM464.664 306.505H381.98V313.938H464.664V306.505ZM397.328 282.47H414.409V306.505H397.328V282.47Z" fill="#3653D9"/>
<rect width="17.0814" height="17.5924" transform="matrix(-1 0 0 1 410.944 255.462)" fill="#FF700D"/>
<rect x="435.699" y="255.462" width="17.0814" height="17.5924" fill="#FFC25E"/>
<rect width="17.0814" height="3.46893" transform="matrix(-1 0 0 1 410.944 251.993)" fill="#3653D9"/>
<path fill-rule="evenodd" clip-rule="evenodd" d="M393.862 252.117C393.862 244.796 397.686 238.86 402.403 238.86C407.12 238.86 410.943 244.796 410.943 252.117H393.862Z" fill="#3653D9"/>
<rect width="17.0814" height="17.5924" transform="matrix(-1 0 0 1 410.944 255.462)" fill="#FF700D"/>
<path fill-rule="evenodd" clip-rule="evenodd" d="M393.862 252.117C393.862 244.796 397.686 238.86 402.403 238.86C407.12 238.86 410.943 244.796 410.943 252.117H393.862Z" fill="#3653D9"/>
<rect width="17.0814" height="3.46893" transform="matrix(-1 0 0 1 452.781 251.993)" fill="#3653D9"/>
<rect width="17.0814" height="17.5924" transform="matrix(-1 0 0 1 410.944 255.462)" fill="#FFC25E"/>
<rect width="82.684" height="13.6279" transform="matrix(-1 0 0 1 464.664 313.938)" fill="#3653D9"/>
<rect width="82.684" height="24.5303" transform="matrix(-1 0 0 1 464.664 327.566)" fill="#FF700D"/>
<path fill-rule="evenodd" clip-rule="evenodd" d="M464.664 352.096H381.98V386H464.664V352.096ZM440.774 359.379C433.46 359.379 427.53 366.013 427.53 374.196H454.019C454.019 366.013 448.089 359.379 440.774 359.379ZM427.53 386V374.196H454.019V386H427.53ZM392.625 374.196C392.625 366.013 398.554 359.379 405.869 359.379C413.184 359.379 419.113 366.013 419.113 374.196V386H392.625V374.196Z" fill="#3653D9"/>
<rect width="2.97068" height="13.6279" transform="matrix(-1 0 0 1 445.603 226.967)" fill="#FF700D"/>
<ellipse rx="2.97068" ry="2.97337" transform="matrix(-1 0 0 1 444.117 225.48)" fill="#3653D9"/>
<rect width="2.97068" height="13.6279" transform="matrix(-1 0 0 1 403.765 226.967)" fill="#FF700D"/>
<ellipse rx="2.97068" ry="2.97337" transform="matrix(-1 0 0 1 402.279 225.48)" fill="#3653D9"/>
<path fill-rule="evenodd" clip-rule="evenodd" d="M435.7 252.117C435.7 244.796 439.524 238.861 444.241 238.861C448.957 238.861 452.781 244.796 452.781 252.117H435.7Z" fill="#3653D9"/>
<path fill-rule="evenodd" clip-rule="evenodd" d="M393.862 252.117C393.862 244.796 397.686 238.86 402.403 238.86C407.12 238.86 410.943 244.796 410.943 252.117H393.862Z" fill="#3653D9"/>
<rect width="58" height="40.7876" transform="matrix(-1 0 0 1 58 327.803)" fill="#3653D9"/>
<rect width="58" height="28.3524" transform="matrix(-1 0 0 1 58 290)" fill="#3653D9"/>
<rect width="58" height="17.4093" transform="matrix(-1 0 0 1 58 368.591)" fill="#FFC25E"/>
<rect width="23.6936" height="23.3783" transform="matrix(-1 0 0 1 40.7227 294.974)" fill="#FFC25E"/>
<rect width="58" height="9.45079" transform="matrix(-1 0 0 1 58 318.352)" fill="#FFC25E"/>
<rect width="8.6383" height="13.9275" transform="matrix(-1 0 0 1 33.3193 343.471)" fill="#FF700D"/>
<rect width="8.6383" height="13.9275" transform="matrix(-1 0 0 1 52.3242 343.471)" fill="#FF700D"/>
<rect width="8.6383" height="13.9275" transform="matrix(-1 0 0 1 14.3154 343.471)" fill="#FF700D"/>
<path fill-rule="evenodd" clip-rule="evenodd" d="M113 183L119 178L125 183L122 185.5V210H116V185.5L113 183Z" fill="#FF700D"/>
<path fill-rule="evenodd" clip-rule="evenodd" d="M77 186L83 191L79 195V213H75V195L71 191L77 186Z" fill="#FF700D"/>
<path fill-rule="evenodd" clip-rule="evenodd" d="M161 186L167 191L163 195V213H159V195L155 191L161 186Z" fill="#FF700D"/>
<path d="M75 220V206L90 220H75Z" fill="#3653D9"/>
<path d="M119 220V206L134 220H119Z" fill="#3653D9"/>
<path d="M119 220V206L104 220H119Z" fill="#3653D9"/>
<path d="M163 220V206L148 220H163Z" fill="#3653D9"/>
<g filter="url(#filter2_d_423_2672)">
<path fill-rule="evenodd" clip-rule="evenodd" d="M118.148 367.97C118.148 368.049 118.148 368.128 118.149 368.207C111.192 369.783 106.001 375.956 106.001 383.332C106.001 391.793 112.832 398.672 121.325 398.843V399H169.529C169.541 399 169.553 399 169.564 399C169.576 399 169.588 399 169.599 399H171.522V398.88C179.241 397.925 185.213 391.396 185.213 383.485C185.213 374.916 178.207 367.97 169.564 367.97C167.78 367.97 166.066 368.266 164.468 368.812C164.478 368.532 164.483 368.252 164.483 367.97C164.483 355.284 154.111 345 141.315 345C128.52 345 118.148 355.284 118.148 367.97Z" fill="#20EFA5"/>
</g>
<defs>
<filter id="filter0_d_423_2672" x="84.4268" y="109.788" width="410.808" height="210.61" filterUnits="userSpaceOnUse" color-interpolation-filters="sRGB">
<feFlood flood-opacity="0" result="BackgroundImageFix"/>
<feColorMatrix in="SourceAlpha" type="matrix" values="0 0 0 0 0 0 0 0 0 0 0 0 0 0 0 0 0 0 127 0" result="hardAlpha"/>
<feOffset dy="4"/>
<feGaussianBlur stdDeviation="2"/>
<feComposite in2="hardAlpha" operator="out"/>
<feColorMatrix type="matrix" values="0 0 0 0 0 0 0 0 0 0 0 0 0 0 0 0 0 0 0.25 0"/>
<feBlend mode="normal" in2="BackgroundImageFix" result="effect1_dropShadow_423_2672"/>
<feBlend mode="normal" in="SourceGraphic" in2="effect1_dropShadow_423_2672" result="shape"/>
</filter>
<filter id="filter1_d_423_2672" x="84.4268" y="170.426" width="93.0127" height="93.0133" filterUnits="userSpaceOnUse" color-interpolation-filters="sRGB">
<feFlood flood-opacity="0" result="BackgroundImageFix"/>
<feColorMatrix in="SourceAlpha" type="matrix" values="0 0 0 0 0 0 0 0 0 0 0 0 0 0 0 0 0 0 127 0" result="hardAlpha"/>
<feOffset dy="4"/>
<feGaussianBlur stdDeviation="2"/>
<feComposite in2="hardAlpha" operator="out"/>
<feColorMatrix type="matrix" values="0 0 0 0 0 0 0 0 0 0 0 0 0 0 0 0 0 0 0.25 0"/>
<feBlend mode="normal" in2="BackgroundImageFix" result="effect1_dropShadow_423_2672"/>
<feBlend mode="normal" in="SourceGraphic" in2="effect1_dropShadow_423_2672" result="shape"/>
</filter>
<filter id="filter2_d_423_2672" x="102.001" y="345" width="87.2119" height="62" filterUnits="userSpaceOnUse" color-interpolation-filters="sRGB">
<feFlood flood-opacity="0" result="BackgroundImageFix"/>
<feColorMatrix in="SourceAlpha" type="matrix" values="0 0 0 0 0 0 0 0 0 0 0 0 0 0 0 0 0 0 127 0" result="hardAlpha"/>
<feOffset dy="4"/>
<feGaussianBlur stdDeviation="2"/>
<feComposite in2="hardAlpha" operator="out"/>
<feColorMatrix type="matrix" values="0 0 0 0 0 0 0 0 0 0 0 0 0 0 0 0 0 0 0.25 0"/>
<feBlend mode="normal" in2="BackgroundImageFix" result="effect1_dropShadow_423_2672"/>
<feBlend mode="normal" in="SourceGraphic" in2="effect1_dropShadow_423_2672" result="shape"/>
</filter>
</defs>
</svg>
