<svg width="400" height="343" viewBox="0 0 400 343" fill="none" xmlns="http://www.w3.org/2000/svg">
<rect x="46.3652" y="14.9132" width="11.002" height="14.1281" fill="#EA61E5"/>
<rect x="341.846" y="14.9132" width="11.002" height="14.1281" fill="#EA61E5"/>
<path fill-rule="evenodd" clip-rule="evenodd" d="M349.703 2.35469C349.703 3.37973 349.048 4.25179 348.132 4.5752V9.47441C350.798 9.85515 352.848 12.1451 352.848 14.9131H341.846C341.846 12.1453 343.895 9.85547 346.561 9.47449V4.57559C345.645 4.2525 344.988 3.38015 344.988 2.35469C344.988 1.05423 346.044 0 347.346 0C348.648 0 349.703 1.05423 349.703 2.35469Z" fill="#59C2FD"/>
<path fill-rule="evenodd" clip-rule="evenodd" d="M80.9419 55.7277C80.9419 40.1222 68.2757 27.4714 52.6511 27.4714C37.0266 27.4714 24.3604 40.1222 24.3604 55.7277H80.9419Z" fill="#3653D9"/>
<path fill-rule="evenodd" clip-rule="evenodd" d="M375.639 55.7277C375.639 40.1222 362.973 27.4714 347.348 27.4714C331.724 27.4714 319.058 40.1222 319.058 55.7277H375.639Z" fill="#3653D9"/>
<rect x="315.912" y="55.7275" width="62.8684" height="3.92449" fill="#EA61E5"/>
<rect x="10.2168" y="127.938" width="379.568" height="192.3" fill="#EA61E5"/>
<rect x="3.93066" y="119.305" width="392.141" height="8.63387" fill="#59C2FD"/>
<rect x="10.2168" y="219.771" width="379.568" height="8.63387" fill="#59C2FD"/>
<rect x="3.93066" y="320.238" width="392.141" height="22.762" fill="#59C2FD"/>
<rect x="10.2168" y="127.938" width="14.1454" height="192.3" fill="#3653D9"/>
<rect x="151.67" y="127.938" width="14.1454" height="192.3" fill="#3653D9"/>
<rect x="304.911" y="127.938" width="14.1454" height="192.3" fill="#3653D9"/>
<rect x="80.9424" y="127.938" width="14.1454" height="192.3" fill="#3653D9"/>
<rect x="234.185" y="127.938" width="14.1454" height="192.3" fill="#3653D9"/>
<rect x="375.638" y="127.938" width="14.1454" height="192.3" fill="#3653D9"/>
<rect x="45.0078" y="155.625" width="14.5029" height="37.2449" fill="#59C2FD" stroke="white" stroke-width="2"/>
<rect x="192.748" y="155.625" width="14.5029" height="37.2449" fill="#59C2FD" stroke="white" stroke-width="2"/>
<rect x="340.488" y="155.625" width="14.5029" height="37.2449" fill="#59C2FD" stroke="white" stroke-width="2"/>
<rect x="123.594" y="155.625" width="14.5029" height="37.2449" fill="#3653D9" stroke="white" stroke-width="2"/>
<rect x="108.66" y="155.625" width="14.5029" height="37.2449" fill="#3653D9" stroke="white" stroke-width="2"/>
<rect x="277.621" y="155.625" width="14.5029" height="37.2449" fill="#3653D9" stroke="white" stroke-width="2"/>
<rect x="262.689" y="155.625" width="14.5029" height="37.2449" fill="#3653D9" stroke="white" stroke-width="2"/>
<rect x="45.0078" y="256.091" width="14.5029" height="37.2449" fill="#59C2FD" stroke="white" stroke-width="2"/>
<rect x="340.488" y="256.091" width="14.5029" height="37.2449" fill="#59C2FD" stroke="white" stroke-width="2"/>
<rect x="123.594" y="256.091" width="14.5029" height="37.2449" fill="#3653D9" stroke="white" stroke-width="2"/>
<rect x="108.66" y="256.091" width="14.5029" height="37.2449" fill="#3653D9" stroke="white" stroke-width="2"/>
<rect x="277.621" y="256.091" width="14.5029" height="37.2449" fill="#3653D9" stroke="white" stroke-width="2"/>
<rect x="262.689" y="256.091" width="14.5029" height="37.2449" fill="#3653D9" stroke="white" stroke-width="2"/>
<path fill-rule="evenodd" clip-rule="evenodd" d="M224.756 263.725C224.756 263.725 212.061 246.458 200.395 246.458C188.729 246.458 176.033 263.725 176.033 263.725V320.238H224.756V263.725Z" fill="#3653D9"/>
<path fill-rule="evenodd" clip-rule="evenodd" d="M182.907 241.748C182.907 236.98 179.081 233.114 174.361 233.114C169.641 233.114 165.814 236.98 165.814 241.748H182.907Z" fill="#59C2FD"/>
<path fill-rule="evenodd" clip-rule="evenodd" d="M217.091 241.748C217.091 236.98 213.265 233.114 208.545 233.114C203.825 233.114 199.999 236.98 199.999 241.748H217.091Z" fill="#59C2FD"/>
<path fill-rule="evenodd" clip-rule="evenodd" d="M234.184 241.748C234.184 236.98 230.358 233.114 225.638 233.114C220.918 233.114 217.092 236.98 217.092 241.748H234.184Z" fill="#59C2FD"/>
<path fill-rule="evenodd" clip-rule="evenodd" d="M200 241.748C200 236.98 196.173 233.114 191.453 233.114C186.733 233.114 182.907 236.98 182.907 241.748H200Z" fill="#59C2FD"/>
<path d="M139.882 132.647H151.67V145.991L139.882 132.647Z" fill="#3653D9"/>
<path d="M177.603 132.647H165.815V145.991L177.603 132.647Z" fill="#3653D9"/>
<rect x="139.882" y="127.938" width="37.721" height="4.70938" fill="#3653D9"/>
<path d="M222.397 132.647H234.185V145.991L222.397 132.647Z" fill="#3653D9"/>
<path d="M260.118 132.647H248.33V145.991L260.118 132.647Z" fill="#3653D9"/>
<rect x="222.397" y="127.938" width="37.721" height="4.70938" fill="#3653D9"/>
<rect x="3.93066" y="107.531" width="95.0884" height="11.7735" fill="#EA61E5"/>
<rect y="100.467" width="102.947" height="7.06407" fill="#3653D9"/>
<rect x="21.2178" y="55.7275" width="62.8684" height="3.92449" fill="#EA61E5"/>
<rect x="297.053" y="100.467" width="102.947" height="7.06407" fill="#3653D9"/>
<rect x="300.981" y="107.531" width="95.0884" height="11.7735" fill="#EA61E5"/>
<path fill-rule="evenodd" clip-rule="evenodd" d="M24.3612 86.3387V100.467H10.2158L24.3612 86.3387ZM80.9435 86.3387V100.467H95.0889L80.9435 86.3387ZM80.9429 86.3387H24.3613V100.467H80.9429V86.3387Z" fill="#EA61E5"/>
<path fill-rule="evenodd" clip-rule="evenodd" d="M319.057 86.3387H319.057V86.3396L304.912 100.467H319.057H319.057H375.638V86.3387H319.057ZM375.64 86.3387V100.467H389.785L375.64 86.3387Z" fill="#EA61E5"/>
<rect x="24.3604" y="59.6523" width="56.5815" height="26.6865" fill="#59C2FD"/>
<rect x="319.058" y="59.6523" width="56.5815" height="26.6865" fill="#59C2FD"/>
<path fill-rule="evenodd" clip-rule="evenodd" d="M46.3652 70.9233V70.3582H46.3812C46.596 66.5648 48.9556 63.5767 51.8348 63.5767C54.714 63.5767 57.0735 66.5648 57.2884 70.3582H57.3043V70.9233V82.4142H46.3652V70.9233Z" fill="#EA61E5"/>
<path fill-rule="evenodd" clip-rule="evenodd" d="M341.846 70.9233V70.3582H341.862C342.076 66.5648 344.436 63.5767 347.315 63.5767C350.194 63.5767 352.554 66.5648 352.769 70.3582H352.785V70.9233V82.4142H341.846V70.9233Z" fill="#EA61E5"/>
<mask id="path-52-inside-1_423_2575" fill="white">
<path fill-rule="evenodd" clip-rule="evenodd" d="M164.247 94.9727H143.772C125.566 94.9727 110.807 109.732 110.807 127.938H284.48C284.48 109.732 269.721 94.9727 251.515 94.9727H236.542C236.329 75.4299 220.227 59.6523 200.394 59.6523C180.562 59.6523 164.46 75.4299 164.247 94.9727Z"/>
</mask>
<path fill-rule="evenodd" clip-rule="evenodd" d="M164.247 94.9727H143.772C125.566 94.9727 110.807 109.732 110.807 127.938H284.48C284.48 109.732 269.721 94.9727 251.515 94.9727H236.542C236.329 75.4299 220.227 59.6523 200.394 59.6523C180.562 59.6523 164.46 75.4299 164.247 94.9727Z" fill="#3653D9"/>
<path d="M164.247 94.9727V100.973H170.182L170.247 95.0381L164.247 94.9727ZM110.807 127.938H104.807V133.938H110.807V127.938ZM284.48 127.938V133.938H290.48V127.938H284.48ZM236.542 94.9727L230.542 95.0381L230.607 100.973H236.542V94.9727ZM143.772 100.973H164.247V88.9727H143.772V100.973ZM116.807 127.938C116.807 113.046 128.88 100.973 143.772 100.973V88.9727C122.252 88.9727 104.807 106.418 104.807 127.938H116.807ZM284.48 121.938H110.807V133.938H284.48V121.938ZM251.515 100.973C266.408 100.973 278.48 113.046 278.48 127.938H290.48C290.48 106.418 273.035 88.9727 251.515 88.9727V100.973ZM236.542 100.973H251.515V88.9727H236.542V100.973ZM242.541 94.9073C242.292 72.0126 223.451 53.6523 200.394 53.6523V65.6523C217.003 65.6523 230.365 78.8471 230.542 95.0381L242.541 94.9073ZM200.394 53.6523C177.338 53.6523 158.497 72.0126 158.248 94.9073L170.247 95.0381C170.423 78.8471 183.786 65.6523 200.394 65.6523V53.6523Z" fill="#59C2FD" mask="url(#path-52-inside-1_423_2575)"/>
<path fill-rule="evenodd" clip-rule="evenodd" d="M54.2249 2.35469C54.2249 3.38009 53.5687 4.25241 52.6528 4.57554V9.47455C55.3183 9.85571 57.3672 12.1454 57.3672 14.9131H46.3652C46.3652 12.1449 48.4149 9.85491 51.0811 9.47435V4.57525C50.1656 4.25188 49.5098 3.37978 49.5098 2.35469C49.5098 1.05423 50.5653 0 51.8673 0C53.1694 0 54.2249 1.05423 54.2249 2.35469Z" fill="#59C2FD"/>
</svg>
