<svg width="1422" height="572" viewBox="0 0 1422 572" fill="none" xmlns="http://www.w3.org/2000/svg">
<g filter="url(#filter0_i_636_6)">
<path d="M648.635 36.2992C885.3 -62.8465 1420 72.536 1420 72.536V572H0C0 572 116.337 453.896 230.549 395.949C351.074 334.8 507.668 324.57 475.247 238.112C458.849 194.382 475.643 232.285 457.084 188.796C427.356 119.132 542.52 80.7536 648.635 36.2992Z" fill="#0CAEF3"/>
</g>
<path d="M983.21 344.906C974.491 311.246 919.895 310.509 910.027 277.034C901.784 249.07 1013.27 190.353 1142.06 175.545C1260.24 161.957 1395 207.991 1422 191.617V572H667C667 572 728.855 481.091 789.581 436.488C853.662 389.419 1000.45 411.457 983.21 344.906Z" fill="#0CF2F3"/>
<defs>
<filter id="filter0_i_636_6" x="0" y="0" width="1420" height="576" filterUnits="userSpaceOnUse" color-interpolation-filters="sRGB">
<feFlood flood-opacity="0" result="BackgroundImageFix"/>
<feBlend mode="normal" in="SourceGraphic" in2="BackgroundImageFix" result="shape"/>
<feColorMatrix in="SourceAlpha" type="matrix" values="0 0 0 0 0 0 0 0 0 0 0 0 0 0 0 0 0 0 127 0" result="hardAlpha"/>
<feOffset dy="4"/>
<feGaussianBlur stdDeviation="2"/>
<feComposite in2="hardAlpha" operator="arithmetic" k2="-1" k3="1"/>
<feColorMatrix type="matrix" values="0 0 0 0 0 0 0 0 0 0 0 0 0 0 0 0 0 0 0.25 0"/>
<feBlend mode="normal" in2="shape" result="effect1_innerShadow_636_6"/>
</filter>
</defs>
</svg>
