<svg width="591" height="547" viewBox="0 0 591 547" fill="none" xmlns="http://www.w3.org/2000/svg">
<mask id="mask0_423_16497" style="mask-type:alpha" maskUnits="userSpaceOnUse" x="0" y="0" width="591" height="547">
<path fill-rule="evenodd" clip-rule="evenodd" d="M343.94 143.426C348.445 136.737 350.904 132.7 353.194 124.974C355.179 118.277 354.387 112.862 353.572 107.302C352.869 102.495 352.149 97.5796 353.194 91.6334C353.494 89.9286 353.747 88.316 353.989 86.7745L353.989 86.774C355.227 78.8824 356.172 72.8524 361.607 65.8418C366.539 59.4801 371.865 57.1843 378.191 54.4573L378.192 54.4572L378.192 54.4571L378.192 54.4569C380.574 53.4304 383.097 52.3427 385.794 50.954C390.785 48.3847 395.476 47.3084 399.961 46.2793C406.365 44.8101 412.349 43.4372 418.184 37.9534C429.804 27.0326 433.117 0 433.117 0C433.117 0 442.665 22.8163 441.53 37.9534C440.679 49.2947 438.436 55.7812 433.117 65.8418C430.309 71.1514 426.16 74.2964 422.152 77.3348C417.281 81.0273 412.618 84.5623 410.822 91.6334C408.892 99.2332 411.305 104.838 413.898 110.862C415.715 115.083 417.621 119.51 418.184 124.974C418.426 127.322 418.702 129.489 418.964 131.542C420.028 139.89 420.854 146.37 418.184 155.588C414.783 167.327 409.487 173.017 401.283 181.83L400.727 182.428C393.172 190.548 378.433 200.042 378.433 200.042L325.432 162.927C325.432 162.927 338.078 152.13 343.94 143.426ZM314.837 136.838C315.145 133.616 315.419 130.736 314.495 126.861C313.304 121.87 309.027 114.909 309.027 114.909C309.027 114.909 318.912 100.524 319.753 89.9558C320.788 76.9454 309.027 58.293 309.027 58.293C309.027 58.293 329.044 66.8278 336.999 77.3746C344.106 86.7964 346.832 93.9133 347.515 105.682C348.142 116.474 346.3 122.978 341.626 132.732C340.27 135.564 338.77 137.509 337.261 139.467C335.81 141.349 334.351 143.241 333.003 145.942C331.148 149.659 329.007 155.798 329.007 155.798H314.495V142.587C314.495 140.429 314.671 138.583 314.837 136.838ZM204.224 173.945C201.558 172.099 199.174 170.448 195.333 169.352C190.387 167.939 182.204 168.244 182.204 168.244C182.204 168.244 174.475 152.602 165.648 146.69C154.782 139.412 132.709 140.489 132.709 140.489C132.709 140.489 149.984 127.279 163.104 125.536C174.825 123.979 182.383 125.1 193.007 130.276C202.748 135.022 207.532 139.811 213.767 148.654C215.578 151.221 216.543 153.479 217.515 155.749C218.449 157.932 219.388 160.128 221.089 162.624C223.428 166.058 227.745 170.928 227.745 170.928L220.631 183.538L209.082 177.062C207.195 176.004 205.668 174.946 204.224 173.946L204.224 173.945ZM168.707 277.465C172.045 275.275 174.854 274.548 177.995 273.735C179.698 273.295 181.498 272.829 183.532 272.092L195.985 267.578L191.168 254.369L207.021 192.711C207.021 192.711 192.902 182.322 182.613 178.148L181.855 177.84C170.686 173.306 163.474 170.378 151.258 171.358C141.665 172.127 135.878 175.188 128.422 179.132C126.588 180.102 124.653 181.126 122.535 182.182C117.608 184.639 114.128 187.981 110.811 191.168L110.811 191.168L110.811 191.168L110.81 191.168C106.075 195.716 101.669 199.948 93.8565 200.835C86.5872 201.661 81.6218 198.562 76.4352 195.325C72.1673 192.661 67.7496 189.904 61.7753 189.163C50.4551 187.759 43.5764 187.961 32.6348 191.178C18.0311 195.471 0 212.443 0 212.443C0 212.443 26.5341 205.974 40.8892 212.95C48.0975 216.453 51.5012 221.548 55.1439 227C57.6953 230.819 60.3638 234.814 64.5389 238.559C66.7958 240.584 68.7086 242.553 70.514 244.411C75.3094 249.347 79.3465 253.502 87.0591 255.852C95.5583 258.441 101.55 257.191 109.392 255.556C110.924 255.236 112.527 254.902 114.232 254.578C120.181 253.451 124.538 251.042 128.799 248.686C133.728 245.961 138.528 243.307 145.513 242.79C153.572 242.194 158.23 243.06 166.098 244.896C173.783 246.69 183.925 251.63 188.507 253.983C186.232 253.965 182.868 253.886 180.371 253.604C177.364 253.263 175.081 252.543 172.812 251.827C170.451 251.082 168.105 250.341 164.972 250.037C154.18 248.991 147.419 249.488 137.461 253.762C126.6 258.423 120.823 263.409 114.369 273.287C107.145 284.345 105.94 306.017 105.94 306.017C105.94 306.017 119.504 288.624 132.122 285.148C142.372 282.325 159.309 286.673 159.309 286.673C159.309 286.673 164.409 280.286 168.707 277.465ZM248.799 355.924C247.273 358.781 245.909 361.334 245.269 365.266C244.444 370.33 245.71 378.396 245.71 378.396C245.71 378.396 231.039 387.887 226.188 397.322C220.217 408.937 223.885 430.663 223.885 430.663C223.885 430.663 208.695 415.114 205.416 402.329C202.487 390.908 202.714 383.293 206.62 372.166C210.202 361.963 214.41 356.664 222.484 349.45C224.829 347.356 226.963 346.134 229.111 344.905C231.175 343.724 233.252 342.535 235.538 340.558C238.683 337.838 243.026 332.991 243.026 332.991L256.424 338.552L251.331 350.748C250.499 352.74 249.625 354.376 248.799 355.924L248.799 355.924ZM361.185 372.152C358.6 369.115 357.535 366.424 356.344 363.413C355.699 361.782 355.017 360.057 354.036 358.134L348.03 346.358L335.094 352.916C335.094 352.916 335.976 359.356 336.013 363.507C336.039 366.524 335.599 368.87 335.161 371.203C334.706 373.629 334.254 376.042 334.332 379.179C334.6 389.985 335.915 396.615 341.38 405.952C347.339 416.133 353.005 421.246 363.623 426.433C375.509 432.239 397.233 430.801 397.233 430.801C397.233 430.801 378.268 419.49 373.277 407.424C369.221 397.624 371.494 380.335 371.494 380.335C371.494 380.335 364.516 376.063 361.185 372.152ZM423.223 289.64C426.107 291.123 428.687 292.45 432.638 293.037C437.728 293.793 445.801 292.425 445.801 292.425C445.801 292.425 455.513 306.926 465.039 311.638C476.766 317.438 498.508 313.497 498.508 313.497C498.508 313.497 483.112 328.843 470.333 332.279C458.916 335.349 451.276 335.223 440.065 331.475C429.785 328.038 424.415 323.913 417.074 315.958C414.943 313.648 413.69 311.536 412.429 309.411C411.217 307.369 409.998 305.314 407.986 303.061C405.216 299.962 400.298 295.696 400.298 295.696L405.699 282.267L417.998 287.183C420.007 287.987 421.66 288.836 423.223 289.64ZM411.007 179.802C408.458 182.87 405.985 184.384 403.219 186.077C401.72 186.994 400.135 187.964 398.406 189.263L387.821 197.209L396.551 208.767C396.551 208.767 402.758 206.78 406.852 206.021C409.827 205.47 412.221 205.494 414.601 205.517C417.077 205.541 419.539 205.565 422.624 204.942C433.25 202.797 439.57 200.351 447.84 193.361C456.859 185.737 460.921 179.285 464.195 167.957C467.86 155.276 462.657 134.2 462.657 134.2C462.657 134.2 454.788 154.788 443.74 161.79C434.766 167.477 417.294 168.257 417.294 168.257C417.294 168.257 414.29 175.852 411.007 179.802ZM220.719 139.17C225.767 145.461 227.684 149.781 230.613 157.29C234.424 167.061 236.079 183.578 236.079 183.578L296.924 161.445C296.924 161.445 297.538 143.96 295.175 133.139L295.001 132.341C292.439 120.593 290.784 113.007 283.068 103.514C277.009 96.0599 271.204 93.0306 263.727 89.1287L263.726 89.1284C261.887 88.1684 259.946 87.1556 257.875 86.0111C253.057 83.3481 248.325 82.3758 243.812 81.4487C237.372 80.1254 231.381 78.8944 226.23 72.9707C221.438 67.459 221.195 61.6236 220.941 55.5283C220.732 50.5127 220.516 45.3211 217.752 39.989C212.514 29.8857 208.458 24.343 199.612 17.1629C187.804 7.57974 163.569 2.34513 163.569 2.34513C163.569 2.34513 183.921 20.5099 186.264 36.2589C187.441 44.1671 185.149 49.8465 182.697 55.9245C180.98 60.1816 179.183 64.6343 178.444 70.1853C178.045 73.1859 177.497 75.8719 176.981 78.407C175.608 85.141 174.452 90.81 176.867 98.4812C179.529 106.935 183.951 111.156 189.737 116.68C190.868 117.76 192.05 118.889 193.282 120.109C197.578 124.363 202.034 126.585 206.392 128.757C211.433 131.27 216.342 133.718 220.719 139.17ZM195.944 354.546C200.255 347.731 203.722 344.512 209.882 339.297C217.897 332.509 233.011 325.548 233.011 325.548L192.128 275.464C192.128 275.464 175.355 280.605 165.87 286.371L165.172 286.795C154.874 293.053 148.225 297.093 141.752 307.468C136.668 315.615 135.696 322.075 134.443 330.396L134.443 330.396C134.135 332.444 133.81 334.603 133.403 336.929C132.455 342.339 133.081 347.116 133.678 351.67C134.531 358.171 135.324 364.218 131.394 371.008C127.738 377.326 122.286 379.464 116.592 381.697C111.906 383.535 107.056 385.436 102.906 389.785C95.0433 398.025 91.1163 403.659 87.2047 414.342C81.9839 428.601 84.9502 453.146 84.9502 453.146C84.9502 453.146 95.5099 428.03 109.671 420.671C116.782 416.975 122.914 417.276 129.478 417.598C134.075 417.824 138.883 418.059 144.386 416.94C147.36 416.335 150.085 415.972 152.657 415.63L152.658 415.629C159.489 414.72 165.241 413.954 171.722 409.169C178.864 403.896 181.418 398.35 184.762 391.091L184.762 391.091L184.762 391.09L184.762 391.09C185.415 389.672 186.098 388.189 186.851 386.63C189.479 381.191 190.127 376.266 190.761 371.449C191.493 365.878 192.207 360.452 195.944 354.546ZM427.338 212.039C435.222 210.269 439.792 209.023 446.783 204.982C452.842 201.479 456 197.004 459.243 192.408C462.047 188.435 464.914 184.372 469.773 180.77C471.167 179.738 472.462 178.74 473.701 177.786C480.042 172.904 484.887 169.173 493.668 167.807C501.636 166.568 507.087 168.551 513.561 170.907C515.999 171.794 518.582 172.733 521.498 173.574C526.894 175.129 531.043 177.562 535.01 179.889C540.673 183.212 545.965 186.316 553.984 186.333C569.954 186.367 591 169.007 591 169.007C591 169.007 582.2 192.121 570.938 202.335C562.499 209.988 556.398 213.161 545.597 216.821C539.897 218.752 534.716 218.193 529.71 217.652C523.626 216.995 517.803 216.366 511.622 220.27C504.98 224.466 502.867 230.189 500.596 236.342C499.005 240.652 497.336 245.173 493.978 249.527C492.534 251.398 491.24 253.161 490.014 254.832C485.031 261.623 481.163 266.895 472.867 271.759C462.303 277.953 454.533 278.454 442.498 279.232L441.682 279.285C430.597 280.003 413.346 276.795 413.346 276.795L400.45 213.515C400.45 213.515 417.079 214.342 427.338 212.039ZM432.212 334.103C424.75 331.011 420.985 328.143 414.793 322.966C406.736 316.228 397.313 302.544 397.313 302.544L354.659 351.136C354.659 351.136 362.559 366.758 369.853 375.111L370.391 375.726C378.308 384.796 383.419 390.652 394.765 395.272C403.674 398.899 410.225 398.77 418.663 398.603C420.739 398.562 422.929 398.519 425.297 398.529C430.806 398.552 435.424 397.134 439.827 395.782C446.111 393.852 451.958 392.057 459.332 394.779C466.193 397.311 469.222 402.31 472.387 407.531C474.991 411.828 477.686 416.275 482.683 419.623C492.151 425.967 498.381 428.88 509.602 430.93C524.578 433.666 548.349 426.628 548.349 426.628C548.349 426.628 521.741 420.469 512.085 407.787C507.237 401.419 506.505 395.341 505.721 388.837C505.171 384.281 504.597 379.516 502.566 374.295C501.467 371.473 500.651 368.856 499.881 366.386C497.834 359.824 496.111 354.3 490.291 348.734C483.877 342.601 477.964 341.022 470.225 338.955L470.222 338.954C468.711 338.551 467.131 338.129 465.463 337.65C459.644 335.981 454.665 336.172 449.797 336.358H449.796C444.164 336.574 438.68 336.784 432.212 334.103ZM317.524 378.705C316.64 386.713 316.337 391.427 317.898 399.332C319.251 406.184 322.47 410.616 325.775 415.167C328.632 419.102 331.554 423.126 333.391 428.878C333.918 430.528 334.443 432.074 334.945 433.552C337.515 441.117 339.479 446.897 337.921 455.621C336.507 463.536 332.854 468.031 328.514 473.37C326.881 475.38 325.15 477.509 323.405 479.986C320.176 484.568 316.519 487.689 313.022 490.673C308.03 494.933 303.365 498.913 300.742 506.468C295.519 521.514 305.146 547 305.146 547C305.146 547 286.081 531.19 280.053 517.252C275.537 506.808 274.51 500.024 274.549 488.651C274.57 482.649 276.785 477.945 278.925 473.401C281.526 467.879 284.015 462.593 282.321 455.497C280.5 447.87 275.757 444.018 270.659 439.876C267.088 436.975 263.342 433.932 260.304 429.351C258.998 427.381 257.747 425.589 256.56 423.89C251.738 416.984 247.995 411.623 246.078 402.22C243.636 390.247 245.685 382.758 248.86 371.158L249.075 370.371C251.997 359.686 260.647 344.464 260.647 344.464L324.864 352.874C324.864 352.874 318.674 368.283 317.524 378.705Z" fill="#FF700D"/>
</mask>
<g mask="url(#mask0_423_16497)">
<mask id="path-2-inside-1_423_16497" fill="white">
<ellipse cx="293.125" cy="255.819" rx="296.133" ry="295.24"/>
</mask>
<path d="M161.259 255.819C161.259 181.279 221.518 123.058 293.125 123.058V979.058C691.833 979.058 1017.26 656.471 1017.26 255.819H161.259ZM293.125 123.058C364.733 123.058 424.992 181.279 424.992 255.819H-431.008C-431.008 656.471 -105.582 979.058 293.125 979.058V123.058ZM424.992 255.819C424.992 330.359 364.733 388.579 293.125 388.579V-467.421C-105.582 -467.421 -431.008 -144.834 -431.008 255.819H424.992ZM293.125 388.579C221.518 388.579 161.259 330.359 161.259 255.819H1017.26C1017.26 -144.834 691.833 -467.421 293.125 -467.421V388.579Z" fill="#FF700D" mask="url(#path-2-inside-1_423_16497)"/>
</g>
<ellipse cx="294" cy="255.73" rx="125" ry="124.612" fill="#FFC25E"/>
<mask id="mask1_423_16497" style="mask-type:alpha" maskUnits="userSpaceOnUse" x="0" y="0" width="591" height="547">
<path fill-rule="evenodd" clip-rule="evenodd" d="M353.194 124.974C350.904 132.7 348.445 136.737 343.94 143.426C338.078 152.13 325.432 162.927 325.432 162.927L378.433 200.042C378.433 200.042 393.172 190.548 400.727 182.428L401.283 181.83C409.487 173.017 414.783 167.327 418.184 155.588C420.854 146.37 420.028 139.89 418.964 131.542C418.702 129.489 418.426 127.322 418.184 124.974C417.621 119.51 415.715 115.083 413.898 110.862C411.305 104.838 408.892 99.2332 410.822 91.6334C412.618 84.5623 417.281 81.0273 422.152 77.3348C426.16 74.2964 430.309 71.1514 433.117 65.8418C438.436 55.7812 440.679 49.2947 441.53 37.9534C442.665 22.8163 433.117 0 433.117 0C433.117 0 429.804 27.0326 418.184 37.9534C412.349 43.4372 406.365 44.8101 399.961 46.2793C395.476 47.3084 390.785 48.3847 385.794 50.954C383.097 52.3427 380.574 53.4304 378.192 54.4569L378.192 54.4571L378.192 54.4572L378.191 54.4573C371.865 57.1843 366.539 59.4801 361.607 65.8418C356.172 72.8524 355.227 78.8824 353.989 86.774L353.989 86.7745C353.747 88.316 353.494 89.9286 353.194 91.6334C352.149 97.5796 352.869 102.495 353.572 107.302C354.387 112.862 355.179 118.277 353.194 124.974ZM220.719 139.17C225.767 145.461 227.684 149.781 230.613 157.29C234.424 167.061 236.079 183.578 236.079 183.578L296.924 161.445C296.924 161.445 297.538 143.96 295.175 133.139L295.001 132.341C292.439 120.593 290.784 113.007 283.068 103.514C277.009 96.0599 271.204 93.0306 263.727 89.1287L263.726 89.1284C261.887 88.1684 259.946 87.1556 257.875 86.0111C253.057 83.3481 248.325 82.3758 243.812 81.4487C237.372 80.1254 231.381 78.8944 226.23 72.9707C221.438 67.459 221.195 61.6236 220.941 55.5283C220.732 50.5127 220.516 45.3211 217.752 39.989C212.514 29.8857 208.458 24.343 199.612 17.1629C187.804 7.57974 163.569 2.34513 163.569 2.34513C163.569 2.34513 183.921 20.5099 186.264 36.2589C187.441 44.1671 185.149 49.8465 182.697 55.9245C180.98 60.1816 179.183 64.6343 178.444 70.1853C178.045 73.1859 177.497 75.8719 176.981 78.407C175.608 85.141 174.452 90.81 176.867 98.4812C179.529 106.935 183.951 111.156 189.737 116.68C190.868 117.76 192.05 118.889 193.282 120.109C197.578 124.363 202.034 126.585 206.392 128.757C211.433 131.27 216.342 133.718 220.719 139.17ZM166.098 244.896C158.23 243.06 153.572 242.194 145.513 242.79C138.528 243.307 133.728 245.961 128.799 248.686C124.538 251.042 120.181 253.451 114.232 254.578C112.527 254.902 110.924 255.236 109.392 255.556C101.55 257.191 95.5583 258.441 87.0591 255.852C79.3465 253.502 75.3094 249.347 70.514 244.411C68.7086 242.553 66.7958 240.584 64.5389 238.559C60.3638 234.814 57.6953 230.819 55.1439 227C51.5012 221.548 48.0975 216.453 40.8892 212.95C26.5341 205.974 0 212.443 0 212.443C0 212.443 18.0311 195.471 32.6348 191.178C43.5764 187.961 50.4551 187.759 61.7753 189.163C67.7496 189.904 72.1673 192.661 76.4352 195.325C81.6218 198.562 86.5872 201.661 93.8565 200.835C101.669 199.948 106.075 195.716 110.81 191.168L110.811 191.168L110.811 191.168C114.128 187.981 117.608 184.639 122.535 182.182C124.653 181.126 126.588 180.102 128.422 179.132C135.878 175.188 141.665 172.127 151.258 171.358C163.474 170.378 170.686 173.306 181.855 177.84L182.613 178.148C192.902 182.322 207.021 192.711 207.021 192.711L190.939 255.262C190.939 255.262 176.338 247.286 166.098 244.896ZM195.944 354.546C200.255 347.731 203.722 344.512 209.882 339.297C217.897 332.509 233.011 325.548 233.011 325.548L192.128 275.464C192.128 275.464 175.355 280.605 165.87 286.371L165.172 286.795C154.874 293.053 148.225 297.093 141.752 307.468C136.668 315.615 135.696 322.075 134.443 330.396L134.443 330.396C134.135 332.444 133.81 334.603 133.403 336.929C132.455 342.339 133.081 347.116 133.678 351.67C134.531 358.171 135.324 364.218 131.394 371.008C127.738 377.326 122.286 379.464 116.592 381.697C111.906 383.535 107.056 385.436 102.906 389.785C95.0433 398.025 91.1163 403.659 87.2047 414.342C81.9839 428.601 84.9502 453.146 84.9502 453.146C84.9502 453.146 95.5099 428.03 109.671 420.671C116.782 416.975 122.914 417.276 129.478 417.598C134.075 417.824 138.883 418.059 144.386 416.94C147.36 416.335 150.085 415.972 152.657 415.63L152.658 415.629C159.489 414.72 165.241 413.954 171.722 409.169C178.864 403.896 181.418 398.35 184.762 391.091L184.762 391.091L184.762 391.09L184.762 391.09C185.415 389.672 186.098 388.189 186.851 386.63C189.479 381.191 190.127 376.266 190.761 371.449C191.493 365.878 192.207 360.452 195.944 354.546ZM427.338 212.039C435.222 210.269 439.792 209.023 446.783 204.982C452.842 201.479 456 197.004 459.243 192.408C462.047 188.435 464.914 184.372 469.773 180.77C471.167 179.738 472.462 178.74 473.701 177.786C480.042 172.904 484.887 169.173 493.668 167.807C501.636 166.568 507.087 168.551 513.561 170.907C515.999 171.794 518.582 172.733 521.498 173.574C526.894 175.129 531.043 177.562 535.01 179.889C540.673 183.212 545.965 186.316 553.984 186.333C569.954 186.367 591 169.007 591 169.007C591 169.007 582.2 192.121 570.938 202.335C562.499 209.988 556.398 213.161 545.597 216.821C539.897 218.752 534.716 218.193 529.71 217.652C523.626 216.995 517.803 216.366 511.622 220.27C504.98 224.466 502.867 230.189 500.596 236.342C499.005 240.652 497.336 245.173 493.978 249.527C492.534 251.398 491.24 253.161 490.014 254.832C485.031 261.623 481.163 266.895 472.867 271.759C462.303 277.953 454.533 278.454 442.498 279.232L441.682 279.285C430.597 280.003 413.346 276.795 413.346 276.795L400.45 213.515C400.45 213.515 417.079 214.342 427.338 212.039ZM432.212 334.103C424.75 331.011 420.985 328.143 414.793 322.966C406.736 316.228 397.313 302.544 397.313 302.544L354.659 351.136C354.659 351.136 362.559 366.758 369.853 375.111L370.391 375.726C378.308 384.796 383.419 390.652 394.765 395.272C403.674 398.899 410.225 398.77 418.663 398.603C420.739 398.562 422.929 398.519 425.297 398.529C430.806 398.552 435.424 397.134 439.827 395.782C446.111 393.852 451.958 392.057 459.332 394.779C466.193 397.311 469.222 402.31 472.387 407.531C474.991 411.828 477.686 416.275 482.683 419.623C492.151 425.967 498.381 428.88 509.602 430.93C524.578 433.666 548.349 426.628 548.349 426.628C548.349 426.628 521.741 420.469 512.085 407.787C507.237 401.419 506.505 395.341 505.721 388.837C505.171 384.281 504.597 379.516 502.566 374.295C501.467 371.473 500.651 368.856 499.881 366.386C497.834 359.824 496.111 354.3 490.291 348.734C483.877 342.601 477.964 341.022 470.225 338.955L470.222 338.954C468.711 338.551 467.131 338.129 465.463 337.65C459.644 335.981 454.665 336.172 449.797 336.358H449.796C444.164 336.574 438.68 336.784 432.212 334.103ZM317.524 378.705C316.64 386.713 316.337 391.427 317.898 399.332C319.251 406.184 322.47 410.616 325.775 415.167C328.632 419.102 331.554 423.126 333.391 428.878C333.918 430.528 334.443 432.074 334.945 433.552C337.515 441.117 339.479 446.897 337.921 455.621C336.507 463.536 332.854 468.031 328.514 473.37C326.881 475.38 325.15 477.509 323.405 479.986C320.176 484.568 316.519 487.689 313.022 490.673C308.03 494.933 303.365 498.913 300.742 506.468C295.519 521.514 305.146 547 305.146 547C305.146 547 286.081 531.19 280.053 517.252C275.537 506.808 274.51 500.024 274.549 488.651C274.57 482.649 276.785 477.945 278.925 473.401C281.526 467.879 284.015 462.593 282.321 455.497C280.5 447.87 275.757 444.018 270.659 439.876C267.088 436.975 263.342 433.932 260.304 429.351C258.998 427.381 257.747 425.589 256.56 423.89C251.738 416.984 247.995 411.623 246.078 402.22C243.636 390.247 245.685 382.758 248.86 371.158L249.075 370.371C251.997 359.686 260.647 344.464 260.647 344.464L324.864 352.874C324.864 352.874 318.674 368.283 317.524 378.705Z" fill="#FFC25E"/>
</mask>
<g mask="url(#mask1_423_16497)">
<mask id="path-6-inside-2_423_16497" fill="white">
<ellipse cx="293.125" cy="255.819" rx="296.133" ry="295.24"/>
</mask>
<path d="M161.259 255.819C161.259 181.279 221.518 123.058 293.125 123.058V979.058C691.833 979.058 1017.26 656.471 1017.26 255.819H161.259ZM293.125 123.058C364.733 123.058 424.992 181.279 424.992 255.819H-431.008C-431.008 656.471 -105.582 979.058 293.125 979.058V123.058ZM424.992 255.819C424.992 330.359 364.733 388.579 293.125 388.579V-467.421C-105.582 -467.421 -431.008 -144.834 -431.008 255.819H424.992ZM293.125 388.579C221.518 388.579 161.259 330.359 161.259 255.819H1017.26C1017.26 -144.834 691.833 -467.421 293.125 -467.421V388.579Z" fill="#FFC25E" mask="url(#path-6-inside-2_423_16497)"/>
</g>
</svg>
