<svg width="330" height="291" viewBox="0 0 330 291" fill="none" xmlns="http://www.w3.org/2000/svg">
<mask id="mask0_618_3" style="mask-type:alpha" maskUnits="userSpaceOnUse" x="0" y="0" width="330" height="291">
<rect width="330" height="291" fill="black"/>
</mask>
<g mask="url(#mask0_618_3)">
<mask id="mask1_618_3" style="mask-type:alpha" maskUnits="userSpaceOnUse" x="-330" y="0" width="660" height="634">
<path fill-rule="evenodd" clip-rule="evenodd" d="M43.4272 166.215C48.6526 158.463 51.5048 153.784 54.1614 144.83C56.4641 137.069 55.5444 130.794 54.6001 124.35C53.7837 118.78 52.9488 113.084 54.1614 106.193C54.5089 104.218 54.8022 102.35 55.0826 100.564L55.083 100.561C56.5187 91.4157 57.6157 84.4277 63.9198 76.3032C69.6403 68.9307 75.818 66.2701 83.1562 63.1098C85.9188 61.92 88.8459 60.6594 91.975 59.0499C97.7636 56.0724 103.205 54.8251 108.408 53.6325C115.836 51.9298 122.776 50.3388 129.545 43.9837C143.024 31.3277 146.866 0 146.866 0C146.866 0 157.941 26.4415 156.624 43.9837C155.637 57.127 153.036 64.644 146.866 76.3032C143.609 82.4564 138.797 86.1011 134.148 89.6223C128.498 93.9014 123.089 97.998 121.006 106.193C118.767 115 121.566 121.495 124.574 128.477C126.681 133.368 128.891 138.499 129.545 144.83C129.825 147.552 130.146 150.063 130.449 152.443C131.684 162.116 132.642 169.626 129.545 180.309C125.601 193.913 119.457 200.507 109.941 210.72L109.296 211.413C100.533 220.823 83.4364 231.826 83.4364 231.826L21.9589 188.814C21.9589 188.814 36.6273 176.302 43.4272 166.215ZM9.67068 158.58C10.027 154.846 10.3456 151.508 9.27344 147.017C7.89255 141.233 2.93051 133.166 2.93051 133.166C2.93051 133.166 14.3969 116.497 15.3724 104.249C16.5733 89.171 2.93051 67.5551 2.93051 67.5551C2.93051 67.5551 26.1491 77.4459 35.377 89.6684C43.6206 100.587 46.7823 108.835 47.575 122.474C48.3018 134.98 46.1653 142.518 40.7441 153.821C39.1702 157.103 37.4305 159.358 35.6804 161.626C33.9978 163.807 32.3056 166 30.7418 169.131C28.59 173.438 26.1066 180.552 26.1066 180.552H9.27344V165.243C9.27344 162.741 9.4776 160.603 9.67068 158.58ZM-101.234 201.583C-104.326 199.443 -107.091 197.53 -111.546 196.26C-117.284 194.623 -126.775 194.976 -126.775 194.976C-126.775 194.976 -135.74 176.849 -145.979 169.997C-158.583 161.563 -184.186 162.81 -184.186 162.81C-184.186 162.81 -164.148 147.502 -148.93 145.482C-135.334 143.678 -126.567 144.977 -114.244 150.975C-102.945 156.475 -97.3967 162.025 -90.1638 172.273C-88.064 175.248 -86.9438 177.864 -85.8169 180.496C-84.7336 183.026 -83.644 185.57 -81.6717 188.462C-78.9579 192.442 -73.9504 198.086 -73.9504 198.086L-82.2028 212.7L-95.5985 205.194C-97.7871 203.968 -99.5585 202.742 -101.234 201.583ZM-142.431 321.551C-138.56 319.012 -135.302 318.17 -131.657 317.228C-129.683 316.718 -127.595 316.178 -125.235 315.323L-110.791 310.093L-116.542 294.334C-116.542 294.334 -124.103 294.44 -128.902 293.898C-132.39 293.503 -135.037 292.669 -137.67 291.839L-137.67 291.839C-140.408 290.975 -143.13 290.117 -146.764 289.765C-159.281 288.552 -167.123 289.128 -178.675 294.081C-191.272 299.483 -197.974 305.261 -205.459 316.709C-213.838 329.524 -215.237 354.639 -215.237 354.639C-215.237 354.639 -199.504 334.482 -184.867 330.454C-172.978 327.183 -153.332 332.221 -153.332 332.221C-153.332 332.221 -147.416 324.82 -142.431 321.551ZM-58.8106 412.476C-60.58 415.786 -62.1621 418.746 -62.9051 423.302C-63.862 429.171 -62.3936 438.518 -62.3936 438.518C-62.3936 438.518 -79.4111 449.517 -85.0374 460.451C-91.9636 473.911 -87.7088 499.09 -87.7088 499.09C-87.7088 499.09 -105.328 481.07 -109.131 466.253C-112.529 453.017 -112.265 444.193 -107.735 431.298C-103.58 419.474 -98.6995 413.333 -89.3335 404.973C-86.6143 402.546 -84.1382 401.13 -81.6472 399.706C-79.2525 398.337 -76.8439 396.96 -74.1925 394.669C-70.5441 391.516 -65.5065 385.899 -65.5065 385.899L-49.9662 392.343L-55.8731 406.477C-56.8381 408.785 -57.8518 410.682 -58.8104 412.475L-58.8106 412.476ZM63.4311 431.282C60.4318 427.763 59.1969 424.643 57.8157 421.155C57.0674 419.264 56.2761 417.266 55.1379 415.036L48.1717 401.39L33.1669 408.99C33.1669 408.99 34.1904 416.452 34.2322 421.263C34.2626 424.759 33.7523 427.478 33.2448 430.182C32.7169 432.994 32.1923 435.789 32.2826 439.425C32.5937 451.948 34.1193 459.632 40.4579 470.452C47.3707 482.251 53.942 488.176 66.2586 494.187C80.0459 500.916 105.243 499.249 105.243 499.249C105.243 499.249 83.2462 486.141 77.4558 472.159C72.7522 460.801 75.3878 440.765 75.3878 440.765C75.3878 440.765 67.2939 435.814 63.4311 431.282ZM135.39 335.66C138.736 337.379 141.728 338.916 146.312 339.596C152.216 340.472 161.579 338.887 161.579 338.887C161.579 338.887 172.845 355.692 183.894 361.153C197.497 367.875 222.716 363.307 222.716 363.307C222.716 363.307 204.858 381.092 190.035 385.074C176.792 388.632 167.93 388.485 154.926 384.142C143.003 380.159 136.774 375.378 128.259 366.159C125.787 363.483 124.333 361.035 122.871 358.573L122.871 358.573C121.465 356.206 120.051 353.825 117.716 351.214C114.504 347.621 108.799 342.678 108.799 342.678L115.064 327.115L129.33 332.813C131.66 333.744 133.577 334.729 135.39 335.66ZM121.22 208.37C118.264 211.925 115.395 213.68 112.187 215.642C110.448 216.705 108.61 217.829 106.604 219.334L94.3267 228.543L104.453 241.938C104.453 241.938 111.652 239.634 116.401 238.755C119.852 238.117 122.629 238.144 125.39 238.171C128.262 238.199 131.116 238.227 134.695 237.505C147.021 235.019 154.352 232.184 163.944 224.083C174.405 215.248 179.118 207.77 182.915 194.643C187.166 179.947 181.131 155.522 181.131 155.522C181.131 155.522 172.003 179.381 159.188 187.496C148.779 194.087 128.513 194.991 128.513 194.991C128.513 194.991 125.028 203.792 121.22 208.37ZM-82.101 161.282C-76.2448 168.573 -74.0217 173.579 -70.6245 182.281C-66.2037 193.605 -64.2844 212.746 -64.2844 212.746L6.29147 187.096C6.29147 187.096 7.004 166.834 4.26334 154.292L4.06165 153.369C1.08942 139.753 -0.82959 130.962 -9.77957 119.961C-16.8079 111.322 -23.5412 107.812 -32.2145 103.29C-34.3484 102.177 -36.5999 101.004 -39.002 99.677C-44.5906 96.5909 -50.0799 95.4641 -55.3136 94.3897C-62.7841 92.8562 -69.7339 91.4296 -75.7082 84.5646C-81.2669 78.1773 -81.5487 71.4147 -81.843 64.351C-82.0852 58.5384 -82.336 52.5219 -85.5423 46.3426C-91.6177 34.634 -96.3221 28.2106 -106.584 19.8897C-120.279 8.78397 -148.391 2.71765 -148.391 2.71765C-148.391 2.71765 -124.784 23.7686 -122.066 42.0198C-120.701 51.1845 -123.359 57.7663 -126.203 64.81C-128.195 69.7436 -130.279 74.9037 -131.136 81.3367C-131.599 84.814 -132.234 87.9269 -132.834 90.8648C-134.426 98.6686 -135.767 105.238 -132.965 114.128C-129.877 123.925 -124.749 128.817 -118.037 135.219L-118.037 135.219L-118.037 135.22L-118.033 135.223L-118.032 135.224C-116.722 136.473 -115.352 137.78 -113.925 139.192C-108.943 144.123 -103.774 146.697 -98.7187 149.215C-92.8714 152.127 -87.1769 154.963 -82.101 161.282ZM-137.338 283.807C-146.465 281.679 -151.867 280.676 -161.215 281.366C-169.317 281.965 -174.885 285.04 -180.602 288.199C-185.544 290.929 -190.599 293.721 -197.499 295.027C-199.477 295.402 -201.336 295.789 -203.113 296.16C-212.209 298.056 -219.159 299.504 -229.018 296.503C-237.964 293.78 -242.646 288.964 -248.209 283.244C-250.303 281.091 -252.522 278.809 -255.139 276.463C-259.982 272.122 -263.078 267.493 -266.037 263.067C-270.262 256.749 -274.21 250.844 -282.571 246.785C-299.222 238.701 -330 246.197 -330 246.197C-330 246.197 -309.085 226.529 -292.146 221.554C-279.454 217.826 -271.476 217.592 -258.345 219.219C-251.415 220.077 -246.291 223.272 -241.341 226.359C-235.324 230.11 -229.565 233.702 -221.133 232.745C-212.071 231.717 -206.961 226.813 -201.468 221.542C-197.619 217.849 -193.583 213.976 -187.868 211.128C-185.412 209.904 -183.167 208.718 -181.039 207.593C-172.392 203.023 -165.678 199.475 -154.551 198.584C-140.381 197.449 -132.017 200.842 -119.061 206.096L-118.182 206.453C-106.247 211.29 -89.8697 223.33 -89.8697 223.33L-108.524 295.819C-108.524 295.819 -125.461 286.576 -137.338 283.807ZM-110.838 410.878C-105.838 402.981 -101.816 399.251 -94.6715 393.206C-85.3743 385.341 -67.8432 377.273 -67.8432 377.273L-115.264 319.231C-115.264 319.231 -134.72 325.189 -145.721 331.871L-146.532 332.363C-158.477 339.615 -166.189 344.297 -173.698 356.32C-179.594 365.762 -180.722 373.248 -182.175 382.891L-182.175 382.892C-182.532 385.264 -182.909 387.767 -183.382 390.462C-184.481 396.732 -183.755 402.268 -183.062 407.546C-182.073 415.079 -181.153 422.087 -185.711 429.957C-189.953 437.278 -196.276 439.756 -202.881 442.344C-208.316 444.473 -213.942 446.677 -218.755 451.717C-227.876 461.265 -232.431 467.795 -236.968 480.176C-243.024 496.7 -239.583 525.145 -239.583 525.145C-239.583 525.145 -227.335 496.038 -210.909 487.51C-202.661 483.227 -195.547 483.576 -187.934 483.949C-182.602 484.21 -177.025 484.483 -170.642 483.186C-167.192 482.484 -164.031 482.064 -161.047 481.667C-153.123 480.613 -146.452 479.726 -138.934 474.181C-130.65 468.07 -127.687 461.642 -123.809 453.23C-123.051 451.586 -122.259 449.867 -121.385 448.06C-118.337 441.757 -117.586 436.049 -116.851 430.467C-116.001 424.011 -115.173 417.723 -110.838 410.878ZM140.164 245.729C149.308 243.678 154.609 242.234 162.718 237.551C169.747 233.492 173.41 228.305 177.172 222.979C180.423 218.375 183.749 213.666 189.385 209.492C191.002 208.296 192.505 207.139 193.941 206.034C201.296 200.376 206.916 196.052 217.101 194.469C226.344 193.033 232.666 195.331 240.177 198.062C243.004 199.089 246 200.178 249.383 201.152C255.642 202.954 260.454 205.775 265.055 208.471C271.624 212.322 277.763 215.919 287.064 215.939C305.588 215.979 330 195.86 330 195.86C330 195.86 319.793 222.646 306.729 234.483C296.941 243.352 289.864 247.029 277.336 251.271C270.724 253.509 264.714 252.86 258.908 252.234C251.851 251.472 245.096 250.743 237.928 255.268C230.223 260.13 227.772 266.763 225.138 273.893C223.292 278.889 221.356 284.128 217.461 289.173C215.787 291.341 214.287 293.384 212.865 295.319L212.864 295.321C207.084 303.191 202.596 309.301 192.974 314.937C180.721 322.115 171.708 322.697 157.748 323.598L156.801 323.659C143.943 324.492 123.934 320.774 123.934 320.774L108.976 247.439C108.976 247.439 128.263 248.398 140.164 245.729ZM145.817 387.188C137.162 383.604 132.795 380.281 125.613 374.281C116.267 366.473 105.337 350.614 105.337 350.614L55.8611 406.927C55.8611 406.927 65.025 425.031 73.486 434.711L74.1091 435.424C83.2921 445.935 89.2212 452.721 102.381 458.075C112.716 462.279 120.314 462.129 130.102 461.936H130.102C132.51 461.888 135.051 461.838 137.797 461.85C144.187 461.876 149.543 460.233 154.65 458.666C161.94 456.43 168.721 454.349 177.275 457.503C185.233 460.438 188.747 466.231 192.418 472.282C195.438 477.262 198.564 482.416 204.36 486.296C215.342 493.647 222.569 497.023 235.584 499.399C252.955 502.57 280.528 494.414 280.528 494.414C280.528 494.414 249.665 487.275 238.465 472.579C232.841 465.199 231.992 458.156 231.082 450.618C230.445 445.338 229.779 439.816 227.423 433.766C226.149 430.495 225.202 427.462 224.308 424.599C221.934 416.995 219.936 410.594 213.185 404.143C205.745 397.035 198.886 395.205 189.91 392.81L189.908 392.81C188.155 392.342 186.321 391.853 184.386 391.298C177.637 389.364 171.862 389.585 166.214 389.801C159.681 390.051 153.319 390.294 145.817 387.188ZM20.9059 438.876C19.8806 448.157 19.5291 453.619 21.3395 462.78C22.9086 470.721 26.6423 475.857 30.4763 481.132C33.7907 485.692 37.18 490.355 39.3105 497.021C39.9214 498.933 40.5307 500.724 41.1132 502.437C44.0945 511.204 46.3726 517.903 44.5648 528.013C42.9243 537.186 38.6871 542.395 33.6539 548.582C31.7591 550.911 29.7514 553.379 27.727 556.25C23.982 561.56 19.7399 565.176 15.684 568.634C9.8934 573.571 4.48251 578.184 1.44028 586.939C-4.61826 604.375 6.54791 633.911 6.54791 633.911C6.54791 633.911 -15.5656 615.589 -22.5576 599.436C-27.7963 587.333 -28.9875 579.471 -28.9421 566.291C-28.9182 559.335 -26.3488 553.884 -23.8665 548.618C-20.8499 542.219 -17.9619 536.092 -19.9274 527.869C-22.0399 519.031 -27.5407 514.566 -33.4539 509.767C-37.5965 506.405 -41.9414 502.878 -45.4653 497.569C-46.98 495.286 -48.4318 493.209 -49.808 491.24C-55.401 483.237 -59.7431 477.024 -61.9671 466.127C-64.7991 452.252 -62.4218 443.572 -58.7397 430.13L-58.49 429.218C-55.1011 416.835 -45.0673 399.195 -45.0673 399.195L29.4198 408.941C29.4198 408.941 22.2402 426.798 20.9059 438.876Z" fill="#FF700D"/>
</mask>
<g mask="url(#mask1_618_3)">
<path d="M237.999 296.465C237.999 421.213 136.351 523.114 10.0055 523.114C-116.339 523.114 -217.988 421.213 -217.988 296.465C-217.988 171.716 -116.339 69.8153 10.0055 69.8153C136.351 69.8153 237.999 171.716 237.999 296.465Z" stroke="#FF700D" stroke-width="231"/>
</g>
<ellipse cx="-7.5" cy="314" rx="127.5" ry="127" fill="#FFC25E"/>
<mask id="mask2_618_3" style="mask-type:alpha" maskUnits="userSpaceOnUse" x="-330" y="0" width="660" height="634">
<path fill-rule="evenodd" clip-rule="evenodd" d="M54.1614 144.83C51.5048 153.784 48.6526 158.463 43.4272 166.215C36.6273 176.302 21.9589 188.814 21.9589 188.814L83.4364 231.826C83.4364 231.826 100.533 220.823 109.296 211.413L109.941 210.72C119.457 200.507 125.601 193.913 129.545 180.309C132.642 169.626 131.684 162.116 130.449 152.443C130.146 150.063 129.825 147.552 129.545 144.83C128.891 138.499 126.681 133.368 124.574 128.477C121.566 121.495 118.767 115 121.006 106.193C123.089 97.998 128.498 93.9014 134.148 89.6223C138.797 86.1011 143.609 82.4564 146.866 76.3032C153.036 64.644 155.637 57.127 156.624 43.9837C157.941 26.4415 146.866 0 146.866 0C146.866 0 143.024 31.3277 129.545 43.9837C122.776 50.3388 115.836 51.9298 108.408 53.6325C103.205 54.8251 97.7636 56.0724 91.975 59.0499C88.8459 60.6594 85.9188 61.92 83.1562 63.1098C75.818 66.2701 69.6403 68.9307 63.9198 76.3032C57.6157 84.4277 56.5187 91.4157 55.083 100.561L55.0826 100.564C54.8022 102.35 54.5089 104.218 54.1614 106.193C52.9488 113.084 53.7837 118.78 54.6001 124.35C55.5444 130.794 56.4641 137.069 54.1614 144.83ZM-82.101 161.282C-76.2448 168.573 -74.0217 173.579 -70.6245 182.281C-66.2037 193.605 -64.2844 212.746 -64.2844 212.746L6.29147 187.096C6.29147 187.096 7.004 166.834 4.26334 154.292L4.06165 153.369C1.08942 139.753 -0.82959 130.962 -9.77957 119.961C-16.8079 111.322 -23.5412 107.812 -32.2145 103.29C-34.3484 102.177 -36.5999 101.004 -39.002 99.677C-44.5906 96.5909 -50.0799 95.4641 -55.3136 94.3897C-62.7841 92.8562 -69.7339 91.4296 -75.7082 84.5646C-81.2669 78.1773 -81.5487 71.4147 -81.843 64.351C-82.0852 58.5384 -82.336 52.5219 -85.5423 46.3426C-91.6177 34.634 -96.3221 28.2106 -106.584 19.8897C-120.279 8.78397 -148.391 2.71765 -148.391 2.71765C-148.391 2.71765 -124.784 23.7686 -122.066 42.0198C-120.701 51.1845 -123.359 57.7663 -126.203 64.81C-128.195 69.7436 -130.279 74.9037 -131.136 81.3367C-131.599 84.814 -132.234 87.9269 -132.834 90.8648C-134.426 98.6686 -135.767 105.238 -132.965 114.128C-129.877 123.925 -124.749 128.817 -118.037 135.219L-118.037 135.219L-118.037 135.22L-118.033 135.223L-118.032 135.224C-116.722 136.473 -115.352 137.78 -113.925 139.192C-108.943 144.123 -103.774 146.697 -98.7187 149.215C-92.8714 152.127 -87.1769 154.963 -82.101 161.282ZM-137.338 283.807C-146.465 281.679 -151.867 280.676 -161.215 281.366C-169.317 281.965 -174.885 285.04 -180.602 288.199C-185.544 290.929 -190.599 293.721 -197.499 295.027C-199.477 295.402 -201.336 295.789 -203.113 296.16C-212.209 298.056 -219.159 299.504 -229.018 296.503C-237.964 293.78 -242.646 288.964 -248.209 283.244C-250.303 281.091 -252.522 278.809 -255.139 276.463C-259.982 272.122 -263.078 267.493 -266.037 263.067C-270.262 256.749 -274.21 250.844 -282.571 246.785C-299.222 238.701 -330 246.197 -330 246.197C-330 246.197 -309.085 226.529 -292.146 221.554C-279.454 217.826 -271.476 217.592 -258.345 219.219C-251.415 220.077 -246.291 223.272 -241.341 226.359C-235.324 230.11 -229.565 233.702 -221.133 232.745C-212.071 231.717 -206.961 226.813 -201.468 221.542C-197.619 217.849 -193.583 213.976 -187.868 211.128C-185.412 209.904 -183.167 208.718 -181.039 207.593C-172.392 203.023 -165.678 199.475 -154.551 198.584C-140.381 197.449 -132.017 200.842 -119.061 206.096L-118.182 206.453C-106.247 211.29 -89.8697 223.33 -89.8697 223.33L-108.524 295.819C-108.524 295.819 -125.461 286.576 -137.338 283.807ZM-110.838 410.878C-105.838 402.981 -101.816 399.251 -94.6715 393.206C-85.3743 385.341 -67.8432 377.273 -67.8432 377.273L-115.264 319.231C-115.264 319.231 -134.72 325.189 -145.721 331.871L-146.532 332.363C-158.477 339.615 -166.189 344.297 -173.698 356.32C-179.594 365.762 -180.722 373.248 -182.175 382.891L-182.175 382.892C-182.532 385.264 -182.909 387.767 -183.382 390.462C-184.481 396.732 -183.755 402.268 -183.062 407.546C-182.073 415.079 -181.153 422.087 -185.711 429.957C-189.953 437.278 -196.276 439.756 -202.881 442.344C-208.316 444.473 -213.942 446.677 -218.755 451.717C-227.876 461.265 -232.431 467.795 -236.968 480.176C-243.024 496.7 -239.583 525.145 -239.583 525.145C-239.583 525.145 -227.335 496.038 -210.909 487.51C-202.661 483.227 -195.547 483.576 -187.934 483.949C-182.602 484.21 -177.025 484.483 -170.642 483.186C-167.192 482.484 -164.031 482.064 -161.047 481.667C-153.123 480.613 -146.452 479.726 -138.934 474.181C-130.65 468.07 -127.687 461.642 -123.809 453.23C-123.051 451.586 -122.259 449.867 -121.385 448.06C-118.337 441.757 -117.586 436.049 -116.851 430.467C-116.001 424.011 -115.173 417.723 -110.838 410.878ZM140.164 245.729C149.308 243.678 154.609 242.234 162.718 237.551C169.747 233.492 173.41 228.305 177.172 222.979C180.423 218.375 183.749 213.666 189.385 209.492C191.002 208.296 192.505 207.139 193.941 206.034C201.296 200.376 206.916 196.052 217.101 194.469C226.344 193.033 232.666 195.331 240.177 198.062C243.004 199.089 246 200.178 249.383 201.152C255.642 202.954 260.454 205.775 265.055 208.471C271.624 212.322 277.763 215.919 287.064 215.939C305.588 215.979 330 195.86 330 195.86C330 195.86 319.793 222.646 306.729 234.483C296.941 243.352 289.864 247.029 277.336 251.271C270.724 253.509 264.714 252.86 258.908 252.234C251.851 251.472 245.096 250.743 237.928 255.268C230.223 260.13 227.772 266.763 225.138 273.893C223.292 278.889 221.356 284.128 217.461 289.173C215.787 291.341 214.287 293.384 212.865 295.319L212.864 295.321C207.084 303.191 202.596 309.301 192.974 314.937C180.721 322.115 171.708 322.697 157.748 323.598L156.801 323.659C143.943 324.492 123.934 320.774 123.934 320.774L108.976 247.439C108.976 247.439 128.263 248.398 140.164 245.729ZM145.817 387.188C137.162 383.604 132.795 380.281 125.613 374.281C116.267 366.473 105.337 350.614 105.337 350.614L55.8611 406.927C55.8611 406.927 65.025 425.031 73.486 434.711L74.1091 435.424C83.2921 445.935 89.2212 452.721 102.381 458.075C112.716 462.279 120.314 462.129 130.102 461.936H130.102C132.51 461.888 135.051 461.838 137.797 461.85C144.187 461.876 149.543 460.233 154.65 458.666C161.94 456.43 168.721 454.349 177.275 457.503C185.233 460.438 188.747 466.231 192.418 472.282C195.438 477.262 198.564 482.416 204.36 486.296C215.342 493.647 222.569 497.023 235.584 499.399C252.955 502.57 280.528 494.414 280.528 494.414C280.528 494.414 249.665 487.275 238.465 472.579C232.841 465.199 231.992 458.156 231.082 450.618C230.445 445.338 229.779 439.816 227.423 433.766C226.149 430.495 225.202 427.462 224.308 424.599C221.934 416.995 219.936 410.594 213.185 404.143C205.745 397.035 198.886 395.205 189.91 392.81L189.908 392.81C188.155 392.342 186.321 391.853 184.386 391.298C177.637 389.364 171.862 389.585 166.214 389.801C159.681 390.051 153.319 390.294 145.817 387.188ZM20.9059 438.876C19.8806 448.157 19.5291 453.619 21.3395 462.78C22.9086 470.721 26.6423 475.857 30.4763 481.132C33.7907 485.692 37.18 490.355 39.3105 497.021C39.9214 498.933 40.5307 500.724 41.1132 502.437C44.0945 511.204 46.3726 517.903 44.5648 528.013C42.9243 537.186 38.6871 542.395 33.6539 548.582C31.7591 550.911 29.7514 553.379 27.727 556.25C23.982 561.56 19.7399 565.176 15.684 568.634C9.8934 573.571 4.48251 578.184 1.44028 586.939C-4.61826 604.375 6.54791 633.911 6.54791 633.911C6.54791 633.911 -15.5656 615.589 -22.5576 599.436C-27.7963 587.333 -28.9875 579.471 -28.9421 566.291C-28.9182 559.335 -26.3488 553.884 -23.8665 548.618C-20.8499 542.219 -17.9619 536.092 -19.9274 527.869C-22.0399 519.031 -27.5407 514.566 -33.4539 509.767C-37.5965 506.405 -41.9414 502.878 -45.4653 497.569C-46.98 495.286 -48.4318 493.209 -49.808 491.24C-55.401 483.237 -59.7431 477.024 -61.9671 466.127C-64.7991 452.252 -62.4218 443.572 -58.7397 430.13L-58.49 429.218C-55.1011 416.835 -45.0673 399.195 -45.0673 399.195L29.4198 408.941C29.4198 408.941 22.2402 426.798 20.9059 438.876Z" fill="#FFC25E"/>
</mask>
<g mask="url(#mask2_618_3)">
<path d="M237.499 296.465C237.499 420.935 136.076 522.614 10.0055 522.614C-116.065 522.614 -217.488 420.935 -217.488 296.465C-217.488 171.994 -116.065 70.3153 10.0055 70.3153C136.076 70.3153 237.499 171.994 237.499 296.465Z" stroke="#FFC25E" stroke-width="232"/>
</g>
</g>
</svg>
