<svg width="352" height="657" viewBox="0 0 352 657" fill="none" xmlns="http://www.w3.org/2000/svg">
<mask id="mask0_618_5" style="mask-type:alpha" maskUnits="userSpaceOnUse" x="0" y="0" width="352" height="657">
<rect width="352" height="657" fill="black"/>
</mask>
<g mask="url(#mask0_618_5)">
<mask id="mask1_618_5" style="mask-type:alpha" maskUnits="userSpaceOnUse" x="0" y="0" width="682" height="634">
<path fill-rule="evenodd" clip-rule="evenodd" d="M293.573 166.215C288.347 158.463 285.495 153.784 282.839 144.83C280.536 137.069 281.456 130.794 282.4 124.35C283.216 118.78 284.051 113.084 282.839 106.193C282.491 104.218 282.198 102.35 281.917 100.564L281.917 100.561C280.481 91.4157 279.384 84.4277 273.08 76.3032C267.36 68.9307 261.182 66.2701 253.844 63.1098C251.081 61.92 248.154 60.6594 245.025 59.0499C239.236 56.0724 233.795 54.8251 228.592 53.6325C221.164 51.9298 214.224 50.3388 207.455 43.9837C193.976 31.3277 190.134 0 190.134 0C190.134 0 179.059 26.4415 180.376 43.9837C181.363 57.127 183.964 64.644 190.134 76.3032C193.391 82.4564 198.203 86.1011 202.852 89.6223C208.502 93.9014 213.911 97.998 215.994 106.193C218.233 115 215.434 121.495 212.426 128.477C210.319 133.368 208.109 138.499 207.455 144.83C207.175 147.552 206.854 150.063 206.551 152.443C205.316 162.116 204.358 169.626 207.455 180.309C211.399 193.912 217.543 200.507 227.058 210.72L227.704 211.413C236.467 220.823 253.564 231.826 253.564 231.826L315.041 188.814C315.041 188.814 300.373 176.302 293.573 166.215ZM335.329 158.58C334.973 154.846 334.654 151.508 335.727 147.017C337.107 141.233 342.069 133.166 342.069 133.166C342.069 133.166 330.603 116.497 329.628 104.249C328.427 89.171 342.069 67.5551 342.069 67.5551C342.069 67.5551 318.851 77.4459 309.623 89.6684C301.379 100.587 298.218 108.835 297.425 122.474C296.698 134.98 298.835 142.518 304.256 153.821C305.83 157.103 307.569 159.358 309.32 161.626C311.002 163.807 312.694 166 314.258 169.131C316.41 173.438 318.893 180.552 318.893 180.552H335.727V165.243C335.727 162.741 335.522 160.603 335.329 158.58ZM453.234 201.583C456.326 199.443 459.09 197.53 463.546 196.26C469.284 194.623 478.775 194.976 478.775 194.976C478.775 194.976 487.74 176.849 497.979 169.997C510.583 161.563 536.186 162.81 536.186 162.81C536.186 162.81 516.148 147.502 500.929 145.482C487.334 143.678 478.567 144.977 466.244 150.975C454.945 156.475 449.397 162.025 442.164 172.273C440.064 175.248 438.944 177.864 437.817 180.496C436.733 183.026 435.644 185.57 433.672 188.462C430.958 192.442 425.95 198.086 425.95 198.086L434.203 212.7L447.598 205.194C449.787 203.968 451.558 202.742 453.234 201.583ZM494.431 321.551C490.56 319.013 487.302 318.17 483.657 317.228C481.683 316.718 479.595 316.178 477.235 315.323L462.791 310.093L468.542 294.335C468.542 294.335 476.103 294.44 480.902 293.898C484.39 293.503 487.037 292.669 489.67 291.839C492.408 290.975 495.13 290.117 498.764 289.765C511.281 288.552 519.123 289.128 530.675 294.081C543.272 299.483 549.974 305.261 557.459 316.709C565.838 329.524 567.237 354.639 567.237 354.639C567.237 354.639 551.504 334.482 536.867 330.454C524.978 327.183 505.332 332.221 505.332 332.221C505.332 332.221 499.416 324.82 494.431 321.551ZM410.811 412.476C412.58 415.786 414.162 418.746 414.905 423.302C415.862 429.171 414.394 438.518 414.394 438.518C414.394 438.518 431.411 449.517 437.037 460.451C443.964 473.911 439.709 499.09 439.709 499.09C439.709 499.09 457.328 481.07 461.131 466.253C464.529 453.017 464.265 444.193 459.735 431.298C455.58 419.474 450.699 413.333 441.333 404.973C438.614 402.546 436.138 401.13 433.647 399.706C431.252 398.337 428.844 396.96 426.192 394.669C422.544 391.516 417.507 385.899 417.507 385.899L401.966 392.343L407.873 406.477C408.838 408.785 409.852 410.682 410.81 412.475L410.811 412.476ZM281.569 431.282C284.568 427.763 285.803 424.643 287.184 421.155C287.933 419.264 288.724 417.266 289.862 415.036L296.828 401.39L311.833 408.99C311.833 408.99 310.81 416.452 310.768 421.263C310.737 424.759 311.248 427.478 311.755 430.182C312.283 432.994 312.808 435.789 312.717 439.425C312.406 451.948 310.881 459.632 304.542 470.452C297.629 482.251 291.058 488.176 278.741 494.187C264.954 500.916 239.757 499.249 239.757 499.249C239.757 499.249 261.754 486.141 267.544 472.159C272.248 460.801 269.612 440.765 269.612 440.765C269.612 440.765 277.706 435.814 281.569 431.282ZM201.61 335.66C198.264 337.379 195.272 338.916 190.688 339.596C184.784 340.472 175.421 338.887 175.421 338.887C175.421 338.887 164.155 355.692 153.106 361.153C139.503 367.875 114.284 363.307 114.284 363.307C114.284 363.307 132.142 381.092 146.965 385.074C160.208 388.632 169.07 388.485 182.074 384.142C193.997 380.159 200.226 375.378 208.741 366.159C211.213 363.483 212.667 361.035 214.129 358.573C215.535 356.206 216.949 353.825 219.284 351.214C222.496 347.621 228.201 342.678 228.201 342.678L221.936 327.115L207.67 332.813C205.34 333.744 203.423 334.728 201.611 335.66L201.61 335.66ZM215.78 208.37C218.736 211.925 221.605 213.68 224.813 215.642C226.552 216.705 228.39 217.829 230.396 219.334L242.673 228.543L232.547 241.938C232.547 241.938 225.348 239.634 220.599 238.755C217.148 238.117 214.371 238.144 211.61 238.171C208.738 238.199 205.883 238.227 202.305 237.505C189.979 235.019 182.648 232.184 173.056 224.083C162.595 215.248 157.882 207.77 154.085 194.643C149.834 179.947 155.869 155.522 155.869 155.522C155.869 155.522 164.997 179.381 177.812 187.496C188.221 194.087 208.487 194.991 208.487 194.991C208.487 194.991 211.972 203.792 215.78 208.37ZM427.101 161.282C421.245 168.573 419.022 173.579 415.625 182.281C411.204 193.605 409.284 212.746 409.284 212.746L338.708 187.096C338.708 187.096 337.996 166.834 340.737 154.292L340.938 153.369L340.938 153.369C343.911 139.753 345.83 130.962 354.78 119.961C361.808 111.322 368.541 107.812 377.214 103.29C379.348 102.177 381.6 101.003 384.002 99.677C389.591 96.5909 395.08 95.4641 400.314 94.3897C407.784 92.8562 414.734 91.4296 420.708 84.5646C426.267 78.1772 426.549 71.4147 426.843 64.3509C427.085 58.5384 427.336 52.5219 430.542 46.3426C436.618 34.634 441.322 28.2106 451.583 19.8897C465.279 8.78396 493.39 2.71765 493.39 2.71765C493.39 2.71765 469.784 23.7686 467.066 42.0198C465.701 51.1845 468.359 57.7663 471.203 64.81C473.195 69.7436 475.279 74.9037 476.136 81.3366C476.599 84.814 477.234 87.9268 477.834 90.8648C479.426 98.6686 480.767 105.238 477.965 114.128C474.877 123.925 469.749 128.817 463.037 135.219L463.037 135.219L463.036 135.22L463.033 135.223L463.032 135.224C461.722 136.473 460.352 137.78 458.925 139.192C453.943 144.123 448.774 146.697 443.719 149.215C437.871 152.127 432.177 154.963 427.101 161.282ZM489.338 283.807C498.465 281.679 503.867 280.676 513.215 281.366C521.317 281.965 526.885 285.04 532.602 288.199C537.544 290.929 542.599 293.721 549.499 295.027C551.477 295.402 553.336 295.789 555.113 296.16C564.209 298.056 571.159 299.504 581.018 296.503C589.964 293.78 594.646 288.964 600.209 283.244C602.303 281.091 604.522 278.809 607.139 276.463C611.982 272.122 615.078 267.493 618.037 263.067C622.262 256.749 626.21 250.844 634.571 246.785C651.222 238.701 682 246.197 682 246.197C682 246.197 661.085 226.529 644.146 221.554C631.454 217.826 623.476 217.592 610.345 219.219C603.415 220.077 598.291 223.272 593.341 226.359C587.324 230.11 581.565 233.702 573.133 232.745C564.071 231.717 558.961 226.813 553.468 221.542C549.619 217.849 545.583 213.976 539.868 211.128C537.412 209.904 535.167 208.718 533.039 207.593C524.392 203.023 517.678 199.475 506.551 198.584C492.381 197.449 484.017 200.842 471.061 206.096L470.182 206.453C458.247 211.29 441.87 223.33 441.87 223.33L460.524 295.819C460.524 295.819 477.461 286.576 489.338 283.807ZM462.838 410.878C457.838 402.981 453.816 399.251 446.671 393.206C437.374 385.341 419.843 377.273 419.843 377.273L467.264 319.231C467.264 319.231 486.72 325.189 497.721 331.871L498.532 332.363C510.477 339.615 518.189 344.297 525.697 356.32C531.594 365.762 532.722 373.248 534.175 382.891C534.532 385.264 534.909 387.767 535.382 390.462C536.481 396.732 535.755 402.268 535.062 407.546C534.073 415.079 533.153 422.087 537.711 429.957C541.953 437.278 548.276 439.756 554.881 442.344C560.316 444.473 565.942 446.677 570.755 451.717C579.876 461.265 584.431 467.795 588.968 480.176C595.024 496.7 591.583 525.145 591.583 525.145C591.583 525.145 579.335 496.038 562.909 487.51C554.661 483.227 547.547 483.576 539.934 483.949C534.602 484.21 529.025 484.483 522.642 483.186C519.192 482.484 516.031 482.064 513.047 481.667C505.123 480.613 498.452 479.726 490.934 474.181C482.65 468.07 479.687 461.642 475.809 453.23C475.051 451.586 474.259 449.867 473.385 448.06C470.337 441.757 469.586 436.049 468.851 430.467C468.001 424.011 467.173 417.723 462.838 410.878ZM189.836 245.729C180.692 243.678 175.391 242.234 167.282 237.551C160.253 233.492 156.59 228.305 152.828 222.979C149.577 218.375 146.251 213.666 140.615 209.492C138.998 208.296 137.495 207.139 136.059 206.034C128.704 200.376 123.084 196.052 112.899 194.469C103.656 193.033 97.3336 195.331 89.8234 198.062C86.996 199.089 84.0002 200.178 80.6171 201.152C74.3583 202.954 69.5458 205.775 64.9446 208.471C58.3755 212.322 52.2371 215.919 42.9357 215.939C24.4122 215.979 0 195.86 0 195.86C0 195.86 10.2068 222.646 23.2708 234.483C33.0588 243.352 40.1359 247.029 52.6639 251.271C59.2756 253.509 65.2858 252.86 71.0922 252.234C78.1485 251.472 84.9039 250.743 92.0724 255.268C99.7769 260.13 102.228 266.763 104.862 273.893C106.708 278.889 108.643 284.128 112.539 289.173C114.213 291.341 115.713 293.384 117.135 295.319L117.136 295.321C122.916 303.191 127.404 309.301 137.026 314.937C149.279 322.115 158.292 322.697 172.251 323.598H172.252L173.199 323.659C186.057 324.492 206.066 320.774 206.066 320.774L221.024 247.439C221.024 247.439 201.737 248.398 189.836 245.729ZM184.183 387.188C192.838 383.604 197.205 380.281 204.387 374.281C213.733 366.473 224.663 350.614 224.663 350.614L274.139 406.927C274.139 406.927 264.975 425.031 256.514 434.711L255.891 435.424C246.708 445.935 240.779 452.721 227.619 458.075C217.284 462.279 209.686 462.129 199.898 461.936H199.898C197.49 461.888 194.949 461.838 192.203 461.85C185.813 461.876 180.457 460.233 175.35 458.666C168.06 456.43 161.279 454.349 152.725 457.503C144.767 460.438 141.253 466.231 137.582 472.282C134.562 477.262 131.436 482.416 125.64 486.296C114.658 493.647 107.431 497.023 94.4158 499.399C77.0449 502.57 49.4717 494.414 49.4717 494.414C49.4717 494.414 80.3352 487.275 91.5348 472.579C97.1586 465.199 98.0083 458.156 98.9177 450.618C99.5547 445.338 100.221 439.816 102.577 433.766C103.851 430.495 104.798 427.462 105.692 424.599C108.066 416.995 110.064 410.594 116.815 404.143C124.255 397.035 131.113 395.205 140.09 392.81L140.092 392.81C141.845 392.342 143.679 391.853 145.614 391.298C152.363 389.364 158.138 389.585 163.786 389.801C170.319 390.051 176.681 390.294 184.183 387.188ZM324.094 438.876C325.119 448.157 325.471 453.619 323.66 462.78C322.091 470.721 318.358 475.857 314.524 481.132C311.209 485.692 307.82 490.355 305.689 497.021C305.079 498.933 304.469 500.724 303.887 502.437C300.905 511.204 298.627 517.903 300.435 528.013C302.076 537.186 306.313 542.395 311.346 548.582C313.241 550.911 315.249 553.379 317.273 556.25C321.018 561.56 325.26 565.176 329.316 568.634C335.107 573.571 340.517 578.184 343.56 586.939C349.618 604.375 338.452 633.911 338.452 633.911C338.452 633.911 360.566 615.589 367.558 599.436C372.796 587.333 373.987 579.471 373.942 566.291C373.918 559.335 371.349 553.884 368.866 548.618C365.85 542.219 362.962 536.092 364.927 527.869C367.04 519.031 372.541 514.566 378.454 509.767C382.596 506.405 386.941 502.878 390.465 497.569C391.98 495.286 393.432 493.209 394.808 491.24C400.401 483.237 404.743 477.024 406.967 466.127C409.799 452.252 407.422 443.572 403.74 430.13L403.49 429.218C400.101 416.835 390.067 399.195 390.067 399.195L315.58 408.941C315.58 408.941 322.76 426.798 324.094 438.876Z" fill="#FF700D"/>
</mask>
<g mask="url(#mask1_618_5)">
<path d="M91.5007 296.465C91.5007 421.491 193.375 523.614 319.994 523.614C446.614 523.614 548.488 421.491 548.488 296.465C548.488 171.438 446.614 69.3153 319.994 69.3153C193.375 69.3153 91.5007 171.438 91.5007 296.465Z" stroke="#FF700D" stroke-width="230"/>
</g>
<circle r="107" transform="matrix(-1 0 0 1 321 295)" fill="#FFC25E"/>
<mask id="mask2_618_5" style="mask-type:alpha" maskUnits="userSpaceOnUse" x="0" y="0" width="682" height="634">
<path fill-rule="evenodd" clip-rule="evenodd" d="M282.839 144.83C285.495 153.784 288.347 158.463 293.573 166.215C300.373 176.302 315.041 188.814 315.041 188.814L253.564 231.826C253.564 231.826 236.467 220.823 227.704 211.413L227.058 210.72C217.543 200.507 211.399 193.912 207.455 180.309C204.358 169.626 205.316 162.116 206.551 152.443C206.854 150.063 207.175 147.552 207.455 144.83C208.109 138.499 210.319 133.368 212.426 128.477C215.434 121.495 218.233 115 215.994 106.193C213.911 97.998 208.502 93.9014 202.852 89.6223C198.203 86.1011 193.391 82.4564 190.134 76.3032C183.964 64.644 181.363 57.127 180.376 43.9837C179.059 26.4415 190.134 0 190.134 0C190.134 0 193.976 31.3277 207.455 43.9837C214.224 50.3388 221.164 51.9298 228.592 53.6325C233.795 54.8251 239.236 56.0724 245.025 59.0499C248.154 60.6594 251.081 61.92 253.844 63.1098C261.182 66.2701 267.36 68.9307 273.08 76.3032C279.384 84.4277 280.481 91.4157 281.917 100.561L281.917 100.564C282.198 102.35 282.491 104.218 282.839 106.193C284.051 113.084 283.216 118.78 282.4 124.35C281.456 130.794 280.536 137.069 282.839 144.83ZM427.101 161.282C421.245 168.573 419.022 173.579 415.625 182.281C411.204 193.605 409.284 212.746 409.284 212.746L338.708 187.096C338.708 187.096 337.996 166.834 340.737 154.292L340.938 153.369L340.938 153.369C343.911 139.753 345.83 130.962 354.78 119.961C361.808 111.322 368.541 107.812 377.214 103.29C379.348 102.177 381.6 101.003 384.002 99.677C389.591 96.5909 395.08 95.4641 400.314 94.3897C407.784 92.8562 414.734 91.4296 420.708 84.5646C426.267 78.1772 426.549 71.4147 426.843 64.3509C427.085 58.5384 427.336 52.5219 430.542 46.3426C436.618 34.634 441.322 28.2106 451.583 19.8897C465.279 8.78396 493.39 2.71765 493.39 2.71765C493.39 2.71765 469.784 23.7686 467.066 42.0198C465.701 51.1845 468.359 57.7663 471.203 64.81C473.195 69.7436 475.279 74.9037 476.136 81.3366C476.599 84.814 477.234 87.9268 477.834 90.8648C479.426 98.6686 480.767 105.238 477.965 114.128C474.877 123.925 469.749 128.817 463.037 135.219L463.037 135.219L463.036 135.22L463.033 135.223L463.032 135.224C461.722 136.473 460.352 137.78 458.925 139.192C453.943 144.123 448.774 146.697 443.719 149.215C437.871 152.127 432.177 154.963 427.101 161.282ZM489.338 283.807C498.465 281.679 503.867 280.676 513.215 281.366C521.317 281.965 526.885 285.04 532.602 288.199C537.544 290.929 542.599 293.721 549.499 295.027C551.477 295.402 553.336 295.789 555.113 296.16C564.209 298.056 571.159 299.504 581.018 296.503C589.964 293.78 594.646 288.964 600.209 283.244C602.303 281.091 604.522 278.809 607.139 276.463C611.982 272.122 615.078 267.493 618.037 263.067C622.262 256.749 626.21 250.844 634.571 246.785C651.222 238.701 682 246.197 682 246.197C682 246.197 661.085 226.529 644.146 221.554C631.454 217.826 623.476 217.592 610.345 219.219C603.415 220.077 598.291 223.272 593.341 226.359C587.324 230.11 581.565 233.702 573.133 232.745C564.071 231.717 558.961 226.813 553.468 221.542C549.619 217.849 545.583 213.976 539.868 211.128C537.412 209.904 535.167 208.718 533.039 207.593C524.392 203.023 517.678 199.475 506.551 198.584C492.381 197.449 484.017 200.842 471.061 206.096L470.182 206.453C458.247 211.29 441.87 223.33 441.87 223.33L460.524 295.819C460.524 295.819 477.461 286.576 489.338 283.807ZM462.838 410.878C457.838 402.981 453.816 399.251 446.671 393.206C437.374 385.341 419.843 377.273 419.843 377.273L467.264 319.231C467.264 319.231 486.72 325.189 497.721 331.871L498.532 332.363C510.477 339.615 518.189 344.297 525.697 356.32C531.594 365.762 532.722 373.248 534.175 382.891C534.532 385.264 534.909 387.767 535.382 390.462C536.481 396.732 535.755 402.268 535.062 407.546C534.073 415.079 533.153 422.087 537.711 429.957C541.953 437.278 548.276 439.756 554.881 442.344C560.316 444.473 565.942 446.677 570.755 451.717C579.876 461.265 584.431 467.795 588.968 480.176C595.024 496.7 591.583 525.145 591.583 525.145C591.583 525.145 579.335 496.038 562.909 487.51C554.661 483.227 547.547 483.576 539.934 483.949C534.602 484.21 529.025 484.483 522.642 483.186C519.192 482.484 516.031 482.064 513.047 481.667C505.123 480.613 498.452 479.726 490.934 474.181C482.65 468.07 479.687 461.642 475.809 453.23C475.051 451.586 474.259 449.867 473.385 448.06C470.337 441.757 469.586 436.049 468.851 430.467C468.001 424.011 467.173 417.723 462.838 410.878ZM189.836 245.729C180.692 243.678 175.391 242.234 167.282 237.551C160.253 233.492 156.59 228.305 152.828 222.979C149.577 218.375 146.251 213.666 140.615 209.492C138.998 208.296 137.495 207.139 136.059 206.034C128.704 200.376 123.084 196.052 112.899 194.469C103.656 193.033 97.3336 195.331 89.8234 198.062C86.996 199.089 84.0002 200.178 80.6171 201.152C74.3583 202.954 69.5458 205.775 64.9446 208.471C58.3755 212.322 52.2371 215.919 42.9357 215.939C24.4122 215.979 0 195.86 0 195.86C0 195.86 10.2068 222.646 23.2708 234.483C33.0588 243.352 40.1359 247.029 52.6639 251.271C59.2756 253.509 65.2858 252.86 71.0922 252.234C78.1485 251.472 84.9039 250.743 92.0724 255.268C99.7769 260.13 102.228 266.763 104.862 273.893C106.708 278.889 108.643 284.128 112.539 289.173C114.213 291.341 115.713 293.384 117.135 295.319L117.136 295.321C122.916 303.191 127.404 309.301 137.026 314.937C149.279 322.115 158.292 322.697 172.251 323.598H172.252L173.199 323.659C186.057 324.492 206.066 320.774 206.066 320.774L221.024 247.439C221.024 247.439 201.737 248.398 189.836 245.729ZM184.183 387.188C192.838 383.604 197.205 380.281 204.387 374.281C213.733 366.473 224.663 350.614 224.663 350.614L274.139 406.927C274.139 406.927 264.975 425.031 256.514 434.711L255.891 435.424C246.708 445.935 240.779 452.721 227.619 458.075C217.284 462.279 209.686 462.129 199.898 461.936H199.898C197.49 461.888 194.949 461.838 192.203 461.85C185.813 461.876 180.457 460.233 175.35 458.666C168.06 456.43 161.279 454.349 152.725 457.503C144.767 460.438 141.253 466.231 137.582 472.282C134.562 477.262 131.436 482.416 125.64 486.296C114.658 493.647 107.431 497.023 94.4158 499.399C77.0449 502.57 49.4717 494.414 49.4717 494.414C49.4717 494.414 80.3352 487.275 91.5348 472.579C97.1586 465.199 98.0083 458.156 98.9177 450.618C99.5547 445.338 100.221 439.816 102.577 433.766C103.851 430.495 104.798 427.462 105.692 424.599C108.066 416.995 110.064 410.594 116.815 404.143C124.255 397.035 131.113 395.205 140.09 392.81L140.092 392.81C141.845 392.342 143.679 391.853 145.614 391.298C152.363 389.364 158.138 389.585 163.786 389.801C170.319 390.051 176.681 390.294 184.183 387.188ZM324.094 438.876C325.119 448.157 325.471 453.619 323.66 462.78C322.091 470.721 318.358 475.857 314.524 481.132C311.209 485.692 307.82 490.355 305.689 497.021C305.079 498.933 304.469 500.724 303.887 502.437C300.905 511.204 298.627 517.903 300.435 528.013C302.076 537.186 306.313 542.395 311.346 548.582C313.241 550.911 315.249 553.379 317.273 556.25C321.018 561.56 325.26 565.176 329.316 568.634C335.107 573.571 340.517 578.184 343.56 586.939C349.618 604.375 338.452 633.911 338.452 633.911C338.452 633.911 360.566 615.589 367.558 599.436C372.796 587.333 373.987 579.471 373.942 566.291C373.918 559.335 371.349 553.884 368.866 548.618C365.85 542.219 362.962 536.092 364.927 527.869C367.04 519.031 372.541 514.566 378.454 509.767C382.596 506.405 386.941 502.878 390.465 497.569C391.98 495.286 393.432 493.209 394.808 491.24C400.401 483.237 404.743 477.024 406.967 466.127C409.799 452.252 407.422 443.572 403.74 430.13L403.49 429.218C400.101 416.835 390.067 399.195 390.067 399.195L315.58 408.941C315.58 408.941 322.76 426.798 324.094 438.876Z" fill="#FFC25E"/>
</mask>
<g mask="url(#mask2_618_5)">
<path d="M91.5007 296.465C91.5007 421.491 193.375 523.614 319.994 523.614C446.614 523.614 548.488 421.491 548.488 296.465C548.488 171.438 446.614 69.3153 319.994 69.3153C193.375 69.3153 91.5007 171.438 91.5007 296.465Z" stroke="#FFC25E" stroke-width="230"/>
</g>
</g>
</svg>
