<svg width="112" height="157" viewBox="0 0 112 157" fill="none" xmlns="http://www.w3.org/2000/svg">
<g filter="url(#filter0_d_423_3347)">
<path fill-rule="evenodd" clip-rule="evenodd" d="M20.9575 75.7416C20.9575 75.7416 23.9151 88.1504 29.6443 93.1249C33.5344 96.5027 40.7423 98.224 44.5356 98.9308V149H50.7404V132.771C53.2581 132.392 62.7949 130.729 67.4929 126.65C73.2221 121.675 76.1797 109.267 76.1797 109.267L70.5954 106.783C70.5954 106.783 68.1179 117.487 63.1496 121.683C59.6519 124.638 52.8271 126.135 50.7404 126.537V76.9833H44.5356V92.6116C41.5966 91.9185 36.7526 90.4937 33.9876 88.1583C29.0193 83.9617 26.5418 73.2583 26.5418 73.2583L20.9575 75.7416Z" fill="#743109"/>
<ellipse rx="42.8132" ry="42.8375" transform="matrix(-1 0 0 1 47.6389 42.8375)" fill="#00B574"/>
<ellipse rx="26.6807" ry="26.6958" transform="matrix(-1 0 0 1 81.1455 86.296)" fill="#20EFA5"/>
</g>
<defs>
<filter id="filter0_d_423_3347" x="0.826172" y="0" width="111" height="157" filterUnits="userSpaceOnUse" color-interpolation-filters="sRGB">
<feFlood flood-opacity="0" result="BackgroundImageFix"/>
<feColorMatrix in="SourceAlpha" type="matrix" values="0 0 0 0 0 0 0 0 0 0 0 0 0 0 0 0 0 0 127 0" result="hardAlpha"/>
<feOffset dy="4"/>
<feGaussianBlur stdDeviation="2"/>
<feComposite in2="hardAlpha" operator="out"/>
<feColorMatrix type="matrix" values="0 0 0 0 0 0 0 0 0 0 0 0 0 0 0 0 0 0 0.25 0"/>
<feBlend mode="normal" in2="BackgroundImageFix" result="effect1_dropShadow_423_3347"/>
<feBlend mode="normal" in="SourceGraphic" in2="effect1_dropShadow_423_3347" result="shape"/>
</filter>
</defs>
</svg>
