<svg width="409" height="367" viewBox="0 0 409 367" fill="none" xmlns="http://www.w3.org/2000/svg">
<path d="M138.806 110.226H270.279V367H138.806V110.226Z" fill="#7D0AD7"/>
<mask id="path-2-inside-1_423_1963" fill="white">
<path fill-rule="evenodd" clip-rule="evenodd" d="M309 141.513V142H100V141.513H0L100 32.3361V32H100.308L100.349 31.9546V32H308.651V31.9546L308.692 32H309V32.3361L409 141.513H309Z"/>
</mask>
<path fill-rule="evenodd" clip-rule="evenodd" d="M309 141.513V142H100V141.513H0L100 32.3361V32H100.308L100.349 31.9546V32H308.651V31.9546L308.692 32H309V32.3361L409 141.513H309Z" fill="#FFC25E"/>
<path d="M309 141.513V135.513H303V141.513H309ZM309 142V148H315V142H309ZM100 142H94V148H100V142ZM100 141.513H106V135.513H100V141.513ZM0 141.513L-4.42451 137.46L-13.6322 147.513H0V141.513ZM100 32.3361L104.425 36.3887L106 34.6687V32.3361H100ZM100 32V26H94V32H100ZM100.308 32V38H102.949L104.732 36.0526L100.308 32ZM100.349 31.9546H106.349V16.5209L95.9249 27.902L100.349 31.9546ZM100.349 32H94.3494V38H100.349V32ZM308.651 32V38H314.651V32H308.651ZM308.651 31.9546L313.075 27.9019L302.651 16.5214V31.9546H308.651ZM308.692 32L304.268 36.0527L306.051 38H308.692V32ZM309 32H315V26H309V32ZM309 32.3361H303V34.6686L304.576 36.3887L309 32.3361ZM409 141.513V147.513H422.632L413.424 137.46L409 141.513ZM303 141.513V142H315V141.513H303ZM309 136H100V148H309V136ZM106 142V141.513H94V142H106ZM0 147.513H100V135.513H0V147.513ZM95.5755 28.2835L-4.42451 137.46L4.42451 145.566L104.425 36.3887L95.5755 28.2835ZM106 32.3361V32H94V32.3361H106ZM100 38H100.308V26H100V38ZM95.9249 27.902L95.8834 27.9474L104.732 36.0526L104.774 36.0072L95.9249 27.902ZM106.349 32V31.9546H94.3494V32H106.349ZM100.349 38H308.651V26H100.349V38ZM314.651 32V31.9546H302.651V32H314.651ZM304.226 36.0073L304.268 36.0527L313.117 27.9473L313.075 27.9019L304.226 36.0073ZM308.692 38H309V26H308.692V38ZM303 32V32.3361H315V32H303ZM304.576 36.3887L404.576 145.566L413.424 137.46L313.424 28.2835L304.576 36.3887ZM409 135.513H309V147.513H409V135.513Z" fill="#7D0AD7" mask="url(#path-2-inside-1_423_1963)"/>
<rect x="141.401" y="94.3418" width="126.197" height="66.9523" fill="#7D0AD7"/>
<path d="M120.839 111.299L202.604 13.6419L286.726 111.299H120.839Z" fill="#7D0AD7" stroke="#FF700D" stroke-width="6"/>
<rect x="37.7139" y="149.452" width="83.2842" height="12.5811" fill="#FFC25E"/>
<path d="M0 141.128H120.998V149.452H0V141.128Z" fill="#FF700D"/>
<rect width="86.7974" height="11.8453" transform="matrix(-1 0 0 1 370.862 149.835)" fill="#FFC25E"/>
<path d="M409 141.513H284.323V150.643H409V141.513Z" fill="#FF700D"/>
<rect x="37.7139" y="171.469" width="83.2842" height="193.959" fill="#FF700D"/>
<rect x="37.7139" y="162.033" width="83.2842" height="203.395" fill="#FF700D"/>
<rect x="280.118" y="161.681" width="90.7428" height="204.003" fill="#FF700D"/>
<rect x="14.668" y="337.644" width="103.189" height="29.3559" fill="#FFC25E"/>
<rect x="140.902" y="336.596" width="123.617" height="30.4043" fill="#FFC25E"/>
<rect x="285.471" y="337.644" width="108.427" height="29.3559" fill="#FFC25E"/>
<path fill-rule="evenodd" clip-rule="evenodd" d="M360.375 143.685H401.231V148.403H401.23L390.755 162.032V162.033H390.755L390.754 162.033V162.033H370.851V162.033H390.754H390.755V367H370.851V162.033H370.851L370.851 162.033H370.851V162.032L360.375 148.403H370.851V148.403H360.375V143.685Z" fill="#7D0AD7"/>
<path d="M120.998 133.201H140.902V336.596H120.998V133.201Z" fill="#FFC25E"/>
<path fill-rule="evenodd" clip-rule="evenodd" d="M7.33496 145.258H48.1914V149.976H48.1904L37.715 163.605V163.605V163.605V367H17.8105V163.605V163.605V163.605L7.33496 149.976H17.8105V149.976H37.7144V149.976H7.33496V145.258Z" fill="#7D0AD7"/>
<path fill-rule="evenodd" clip-rule="evenodd" d="M150.524 114.299H110.992V119.16H150.524V114.299ZM121.166 119.16H110.992L121.166 133.201V119.16Z" fill="#FF700D"/>
<rect x="121.166" y="119.16" width="19.2345" height="14.0412" fill="#FF700D"/>
<path d="M150.523 119.16H140.4V133.201L150.523 119.16Z" fill="#FF700D"/>
<rect x="161.641" y="219.505" width="80.8204" height="117.649" rx="12" fill="#FFC25E"/>
<path fill-rule="evenodd" clip-rule="evenodd" d="M176.52 283.24V280.57H176.595C177.614 262.647 188.799 248.528 202.448 248.528C216.096 248.528 227.282 262.647 228.3 280.57H228.376V283.24V337.534H176.52V283.24Z" fill="#FF700D"/>
<path fill-rule="evenodd" clip-rule="evenodd" d="M59.1885 282.341V280.505H59.2344C59.9395 266.45 68.6782 255.343 79.3548 255.343C90.0313 255.343 98.7701 266.45 99.4752 280.505H99.5211L99.5211 282.341L99.5211 313.53H59.1885V282.341Z" fill="#FFC25E"/>
<path fill-rule="evenodd" clip-rule="evenodd" d="M185.465 136.108V135.881H185.466C185.569 124.889 193.133 116.015 202.448 116.015C211.764 116.015 219.328 124.889 219.431 135.881H219.432V136.108V193.758H185.465V136.108Z" fill="#FFC25E"/>
<path d="M164.996 265.827H170.758V327.16H164.996V265.827Z" fill="#7D0AD7"/>
<rect x="161.853" y="263.206" width="12.0474" height="2.62106" fill="#7D0AD7"/>
<rect x="230.995" y="263.206" width="12.0474" height="2.62106" fill="#7D0AD7"/>
<path d="M234.137 265.827H239.899V327.16H234.137V265.827Z" fill="#7D0AD7"/>
<rect x="161.854" y="326.635" width="12.0474" height="9.96004" fill="#FF700D"/>
<rect x="230.995" y="326.635" width="12.0474" height="9.96004" fill="#FF700D"/>
<path fill-rule="evenodd" clip-rule="evenodd" d="M171.64 219.505C166.117 219.505 161.64 223.982 161.64 229.505V254.103H179.283C183.631 243.183 192.196 235.755 202.051 235.755C211.905 235.755 220.47 243.183 224.818 254.103H242.46V229.505C242.46 223.982 237.983 219.505 232.46 219.505H171.64Z" fill="#FF700D"/>
<path fill-rule="evenodd" clip-rule="evenodd" d="M57.1416 246.431C51.6188 246.431 47.1416 250.908 47.1416 256.431V266.351H61.284C64.7745 257.793 71.5581 251.988 79.3545 251.988C87.1509 251.988 93.9345 257.793 97.425 266.351H111.569V256.431C111.569 250.908 107.092 246.431 101.569 246.431H57.1416Z" fill="#7D0AD7"/>
<path fill-rule="evenodd" clip-rule="evenodd" d="M309.042 282.274C309.042 282.296 309.042 282.319 309.042 282.341H309.042V313.53H349.375V280.505H349.329C348.624 266.45 339.885 255.343 329.208 255.343C318.532 255.343 309.793 266.45 309.088 280.505H309.042V282.274Z" fill="#FFC25E"/>
<path fill-rule="evenodd" clip-rule="evenodd" d="M306.994 246.431C301.471 246.431 296.994 250.908 296.994 256.431V266.351H311.137C314.627 257.793 321.411 251.988 329.207 251.988C337.003 251.988 343.787 257.793 347.278 266.351H361.422V256.431C361.422 250.908 356.944 246.431 351.422 246.431H306.994Z" fill="#7D0AD7"/>
<rect x="161.853" y="209.212" width="81.189" height="3.66949" fill="#7D0AD7"/>
<ellipse cx="202.448" cy="76.5861" rx="10.2141" ry="10.4843" fill="#FFC25E"/>
<path d="M266.975 133.201H286.879V336.596H266.975V133.201Z" fill="#FFC25E"/>
<path fill-rule="evenodd" clip-rule="evenodd" d="M296.487 114.299H256.955V119.16V119.16L267.126 133.201V119.16H296.487V114.299Z" fill="#FF700D"/>
<rect x="267.127" y="119.16" width="19.3252" height="14.0412" fill="#FF700D"/>
<path d="M296.487 119.16H286.452V133.201L296.487 119.16Z" fill="#FF700D"/>
<rect x="127.808" y="12.0569" width="35.6184" height="19.9201" fill="#FF700D"/>
<rect x="117.854" width="55.5228" height="12.0569" fill="#7D0AD7"/>
<rect x="309.043" y="183.526" width="40.3326" height="50.3244" fill="#7D0AD7"/>
<path fill-rule="evenodd" clip-rule="evenodd" d="M360.374 174.09H296.994V193.384H303.804V180.904H353.565V193.384H360.374V174.09Z" fill="#FFC25E"/>
<rect x="60.2363" y="183.525" width="40.3326" height="50.3244" fill="#7D0AD7"/>
<path fill-rule="evenodd" clip-rule="evenodd" d="M111.566 174.09H48.1865V193.384H54.9961V180.904H104.757V193.384H111.566V174.09Z" fill="#FFC25E"/>
<rect x="117.854" y="334.499" width="26.19" height="32.5012" fill="#7D0AD7"/>
<rect x="264.52" y="334.499" width="26.19" height="32.5012" fill="#7D0AD7"/>
<rect x="150.524" y="104.994" width="106.431" height="10.6515" fill="#7D0AD7"/>
<path fill-rule="evenodd" clip-rule="evenodd" d="M165.998 125.744V126.174V206.959H179.253V132.399V132.111H179.254C179.385 117.121 189.697 105.017 202.398 105.017C215.099 105.017 225.411 117.121 225.541 132.111H225.543V132.399V206.959H238.902V126.174V125.744H238.899C238.642 107.95 222.422 93.5962 202.45 93.5962C182.479 93.5962 166.259 107.95 166.001 125.744H165.998Z" fill="#FF700D"/>
</svg>
