<svg width="482" height="494" viewBox="0 0 482 494" fill="none" xmlns="http://www.w3.org/2000/svg">
<path d="M279.808 26.4123L313.273 93.8482H246.344L279.808 26.4123Z" fill="#3653D9"/>
<rect x="246.344" y="104.526" width="66.9288" height="179.829" fill="#3653D9"/>
<rect x="246.344" y="284.354" width="66.9288" height="74.1795" fill="#20EFA5"/>
<rect x="242.406" y="131.5" width="74.8028" height="10.6774" rx="5.33868" fill="#CF4CE3"/>
<rect x="242.406" y="93.8482" width="74.8028" height="10.6774" rx="5.33868" fill="#CF4CE3"/>
<rect x="242.406" y="243.893" width="74.8028" height="10.6774" rx="5.33868" fill="#CF4CE3"/>
<rect x="242.406" y="187.696" width="74.8028" height="10.6774" rx="5.33868" fill="#CF4CE3"/>
<rect x="287.962" y="209.613" width="16.8728" height="22.4786" fill="#20EFA5"/>
<rect x="257.592" y="153.417" width="16.8728" height="22.4786" fill="#20EFA5"/>
<rect x="144.544" y="51.7007" width="43.8693" height="17.4209" fill="#CF4CE3"/>
<path d="M166.479 0L188.413 51.7009H144.544L166.479 0Z" fill="#3653D9"/>
<rect x="96.7373" y="210.175" width="137.232" height="10.6774" rx="5.33868" fill="#CF4CE3"/>
<rect x="102.361" y="292.784" width="125.984" height="103.964" fill="#3653D9"/>
<rect x="102.361" y="220.853" width="125.984" height="71.9316" fill="#20EFA5"/>
<path fill-rule="evenodd" clip-rule="evenodd" d="M102.361 208.932C128.969 168.861 144.487 120.8 144.543 69.1218L187.851 69.1218C187.906 119.698 202.77 166.808 228.345 206.357V210.175H102.361V208.932Z" fill="#20EFA5"/>
<path fill-rule="evenodd" clip-rule="evenodd" d="M156.355 168.376V167.398H156.381C156.723 160.835 160.484 155.665 165.073 155.665C169.662 155.665 173.423 160.835 173.765 167.398H173.791V168.376V188.258H156.355V168.376Z" fill="#CF4CE3"/>
<rect x="129.358" y="237.711" width="15.1855" height="35.4038" fill="#3653D9"/>
<rect x="188.413" y="237.711" width="15.1855" height="35.4038" fill="#3653D9"/>
<rect x="394.824" y="409.436" width="87.1762" height="10.6405" rx="5.32023" fill="#20EFA5"/>
<rect x="402.136" y="420.077" width="71.9907" height="73.9232" fill="#3653D9"/>
<path d="M438.131 341.113L474.126 409.436H402.136L438.131 341.113Z" fill="#CF4CE3"/>
<rect x="306.529" y="240.521" width="98.9872" height="179.829" fill="#3653D9"/>
<rect x="307" y="420" width="99" height="74" fill="#20EFA5"/>
<path fill-rule="evenodd" clip-rule="evenodd" d="M306.528 230.524C321.535 214.276 330.712 192.51 330.712 168.589L380.768 168.589C380.768 192.809 390.175 214.819 405.515 231.129V240.521H306.528V230.524Z" fill="#20EFA5"/>
<rect x="330.713" y="151.168" width="50.056" height="17.4209" fill="#CF4CE3"/>
<path d="M355.741 99.4673L380.769 151.168H330.713L355.741 99.4673Z" fill="#3653D9"/>
<rect x="300.342" y="289.412" width="111.361" height="10.6774" rx="5.33868" fill="#CF4CE3"/>
<rect x="300.342" y="409.673" width="111.361" height="10.6774" rx="5.33868" fill="#CF4CE3"/>
<path fill-rule="evenodd" clip-rule="evenodd" d="M329.026 269.529V268.551H329.052C329.394 261.988 333.155 256.818 337.744 256.818C342.333 256.818 346.094 261.988 346.436 268.551H346.462V269.529V289.411H329.026V269.529Z" fill="#CF4CE3"/>
<path fill-rule="evenodd" clip-rule="evenodd" d="M368.396 269.529V268.551H368.421C368.763 261.988 372.524 256.818 377.113 256.818C381.702 256.818 385.463 261.988 385.805 268.551H385.831V269.529V289.411H368.396V269.529Z" fill="#CF4CE3"/>
<path fill-rule="evenodd" clip-rule="evenodd" d="M329.026 329.659V328.682H329.052C329.394 322.118 333.155 316.948 337.744 316.948C342.333 316.948 346.094 322.118 346.436 328.682H346.462V329.659V349.542H329.026V329.659Z" fill="#CF4CE3"/>
<path fill-rule="evenodd" clip-rule="evenodd" d="M368.396 329.659V328.682H368.421C368.763 322.118 372.524 316.948 377.113 316.948C381.702 316.948 385.463 322.118 385.805 328.682H385.831V329.659V349.542H368.396V329.659Z" fill="#CF4CE3"/>
<path fill-rule="evenodd" clip-rule="evenodd" d="M329.026 389.79V388.812H329.052C329.394 382.248 333.155 377.078 337.744 377.078C342.333 377.078 346.094 382.248 346.436 388.812H346.462V389.79V409.672H329.026V389.79Z" fill="#CF4CE3"/>
<path fill-rule="evenodd" clip-rule="evenodd" d="M368.396 389.79V388.813H368.421C368.763 382.249 372.524 377.079 377.113 377.079C381.702 377.079 385.463 382.249 385.805 388.813H385.831V389.79V409.673H368.396V389.79Z" fill="#CF4CE3"/>
<rect x="300.342" y="349.542" width="111.361" height="10.6774" rx="5.33868" fill="#20EFA5"/>
<rect x="186.725" y="345.609" width="124.859" height="148.359" fill="#3653D9"/>
<path fill-rule="evenodd" clip-rule="evenodd" d="M203.598 456.62V451.258H203.899C206.509 428.166 225.775 410.235 249.154 410.235C272.533 410.235 291.799 428.166 294.41 451.258H294.711V456.62V493.968H203.598V456.62Z" fill="#20EFA5"/>
<rect x="181.101" y="332.684" width="136.107" height="12.9252" fill="#20EFA5"/>
<rect x="205.848" y="259.628" width="88.301" height="12.9252" fill="#20EFA5"/>
<path fill-rule="evenodd" clip-rule="evenodd" d="M233.778 381.916C233.778 381.918 233.778 381.92 233.778 381.923L233.778 401.805H209.783V381.923V380.945H209.818C210.29 374.381 215.465 369.211 221.781 369.211C228.096 369.211 233.272 374.381 233.743 380.945H233.778V381.916Z" fill="#20EFA5"/>
<path fill-rule="evenodd" clip-rule="evenodd" d="M287.962 381.916C287.962 381.918 287.962 381.92 287.962 381.923L287.962 401.805H263.967V381.923V380.945H264.002C264.473 374.381 269.649 369.211 275.964 369.211C282.28 369.211 287.455 374.381 287.927 380.945H287.962V381.916Z" fill="#20EFA5"/>
<path fill-rule="evenodd" clip-rule="evenodd" d="M205.847 272.553H294.148L311.583 332.684H186.725L205.847 272.553Z" fill="#CF4CE3"/>
<path fill-rule="evenodd" clip-rule="evenodd" d="M204.161 426.813C204.161 372.034 159.717 327.626 104.892 327.626C50.068 327.626 5.62402 372.034 5.62402 426.813H204.161Z" fill="#20EFA5"/>
<path fill-rule="evenodd" clip-rule="evenodd" d="M172.665 426.251C172.665 388.852 142.322 358.534 104.893 358.534C67.4629 358.534 37.1201 388.852 37.1201 426.251H172.665Z" fill="#3653D9"/>
<rect x="5.62402" y="437.771" width="198.537" height="56.1966" fill="#3653D9"/>
<rect x="98.9863" y="322.006" width="11.811" height="107.335" rx="5.90548" fill="#CF4CE3"/>
<rect width="11.9989" height="105.705" rx="5.99947" transform="matrix(0.696029 -0.718013 0.696029 0.718013 28.6836 353.25)" fill="#CF4CE3"/>
<rect width="11.9989" height="105.705" rx="5.99947" transform="matrix(-0.696029 -0.718013 -0.696029 0.718013 180.912 353.25)" fill="#CF4CE3"/>
<path fill-rule="evenodd" clip-rule="evenodd" d="M37.6822 415.855H19.1221V425.97H5.90064C2.64181 425.97 0 428.612 0 431.871C0 435.13 2.6418 437.772 5.90063 437.772H19.1221V437.772L37.6822 437.772L57.3682 437.772H75.9283H95.6113H114.171H133.857H152.418H172.103H190.663L203.885 437.772C207.143 437.772 209.785 435.13 209.785 431.871C209.785 428.612 207.143 425.97 203.885 425.97H190.663V415.855H172.103V425.97H152.418V415.855H133.857V425.97H114.171V415.855H95.6113V425.97H75.9283V415.855H57.3682V425.97H37.6822V415.855Z" fill="#CF4CE3"/>
<path fill-rule="evenodd" clip-rule="evenodd" d="M37.1201 466.544V465.195H37.1595C37.6897 456.142 43.5129 449.011 50.6184 449.011C57.7238 449.011 63.547 456.142 64.0773 465.195H64.1166V466.544V493.968H37.1201V466.544Z" fill="#20EFA5"/>
<path fill-rule="evenodd" clip-rule="evenodd" d="M91.6768 466.544V465.195H91.7161C92.2463 456.142 98.0695 449.011 105.175 449.011C112.28 449.011 118.104 456.142 118.634 465.195H118.673V466.544V493.968H91.6768V466.544Z" fill="#20EFA5"/>
<path fill-rule="evenodd" clip-rule="evenodd" d="M146.23 466.544V465.195H146.27C146.8 456.142 152.623 449.011 159.729 449.011C166.834 449.011 172.657 456.142 173.188 465.195H173.227V466.544V493.968H146.23V466.544Z" fill="#20EFA5"/>
</svg>
