<svg width="1397" height="309" viewBox="0 0 1397 309" fill="none" xmlns="http://www.w3.org/2000/svg">
<g filter="url(#filter0_d_423_2333)">
<path d="M396.801 40.4669L442.572 0.00163269L482.183 23.9729L519.372 7.25899L546.659 40.4669L568.005 59.6L586.489 70.1561L602.773 59.6L626.319 125.356L638.863 159.224H511.89L442.572 153.286L329.684 106.883L352.569 67.0772L396.801 40.4669Z" fill="#59C2FD"/>
<path fill-rule="evenodd" clip-rule="evenodd" d="M442.572 0.00163269L482.183 23.9729L491.205 47.0645L511.89 59.6L486.804 55.8613L470.96 43.5458H458.857L442.572 0.00163269Z" fill="#7D0AD7"/>
<path fill-rule="evenodd" clip-rule="evenodd" d="M396.801 40.4669L442.572 0.00163269V40.4669L450.935 59.6V87.3099L461.717 100.285H503.088L519.372 125.356L511.89 159.224L442.572 153.286L329.684 106.883L352.569 67.0772L396.801 40.4669ZM482.183 23.9729L491.205 47.0645L511.89 59.6V33.2096L519.372 7.25899L482.183 23.9729ZM586.489 100.285L568.004 59.6L586.489 70.1561L602.773 59.6L586.489 100.285Z" fill="#3653D9"/>
<path d="M460.396 132.833L499.346 159.444H405.602H120.189L143.075 118.319L195.889 75.6541L241.661 56.521L281.271 32.1099L313.179 63.3386L344.427 75.6541L387.338 111.501L460.396 132.833Z" fill="#59C2FD"/>
<path fill-rule="evenodd" clip-rule="evenodd" d="M120.189 159.444H405.602L346.847 122.057L313.179 106.003L281.271 71.0358L305.697 75.6541L288.753 56.521L281.271 32.1099L241.661 56.521L195.889 75.6541L143.075 118.319L120.189 159.444Z" fill="#7D0AD7"/>
<path d="M484.162 159.444L557.001 107.323L588.909 126.016L611.135 159.444H557.001H484.162Z" fill="#3653D9"/>
<path fill-rule="evenodd" clip-rule="evenodd" d="M557.001 107.323L484.162 159.444H557.001L564.263 136.792L557.001 107.323Z" fill="#7D0AD7"/>
<path fill-rule="evenodd" clip-rule="evenodd" d="M35.468 114.36L4 159.444H161.78L165.741 134.153L130.972 114.36L124.811 100.065V78.9529L112.488 66.6374L85.8609 49.7035V37.388L80.3595 22.4335L70.8971 30.5705L63.4152 58.5003L35.468 114.36Z" fill="#59C2FD"/>
<path fill-rule="evenodd" clip-rule="evenodd" d="M161.78 159.444H181.805L187.527 146.468L161.78 118.099V104.903L202.051 118.099L242.541 159.444H268.948L246.282 137.672L191.708 91.2684L165.741 78.9529L135.814 49.7035L124.811 54.5418L96.4236 44.4255L93.7829 33.8693L88.5016 25.3924L80.3595 22.4335L85.8609 37.388V49.7035L112.488 66.6374L124.811 78.9529V100.065L130.972 114.36L165.741 134.153L161.78 159.444Z" fill="#3653D9"/>
<path d="M187.527 146.468L181.805 159.444H242.541L202.051 118.099L161.78 104.903V118.099L187.527 146.468Z" fill="#3653D9"/>
<path fill-rule="evenodd" clip-rule="evenodd" d="M111.828 33.8693L137.794 49.7035L165.741 78.9529H124.811L85.8609 49.7035V37.388L80.3595 22.4335L111.828 33.8693Z" fill="#7D0AD7"/>
<path d="M26.8857 158.784L54.3928 114.872L88.0614 88.8493L117.769 114.872L143.736 158.784H93.7828H26.8857Z" fill="#3653D9"/>
<path fill-rule="evenodd" clip-rule="evenodd" d="M93.783 158.784H143.736L117.769 114.872L88.0616 88.8493L80.1396 123.329L93.783 158.784Z" fill="#7D0AD7"/>
<g filter="url(#filter1_d_423_2333)">
<path d="M732.21 96.5281L655.21 26.985L588.576 68.1818L526.014 39.4574L480.11 96.5281L444.202 129.41L413.106 147.552L385.712 129.41L346.101 242.417L325 300.622H538.6L655.21 290.417L845.118 210.67L806.618 142.26L732.21 96.5281Z" fill="#59C2FD"/>
<path fill-rule="evenodd" clip-rule="evenodd" d="M655.21 26.985L588.576 68.1818L573.398 107.867L538.6 129.41L580.802 122.985L607.456 101.819H627.816L655.21 26.985Z" fill="#7D0AD7"/>
<path fill-rule="evenodd" clip-rule="evenodd" d="M732.21 96.5462L655.21 27.0031V96.5462L641.143 129.428V177.05L623.004 199.349H553.408L526.014 242.436L538.6 300.64L655.21 290.435L845.118 210.688L806.618 142.278L732.21 96.5462ZM588.576 68.1998L573.398 107.885L538.6 129.428V84.0738L526.014 39.4755L588.576 68.1998ZM413.106 199.349L444.202 129.428L413.106 147.57L385.712 129.428L413.106 199.349Z" fill="#3653D9"/>
<path d="M625.225 255.268L559.702 301H717.403H1197.54L1159.04 230.323L1070.19 157L993.195 124.118L926.561 82.1658L872.883 135.835L820.316 157L748.129 218.606L625.225 255.268Z" fill="#59C2FD"/>
<path fill-rule="evenodd" clip-rule="evenodd" d="M1197.54 301H717.403L816.244 236.748L872.883 209.157L926.561 149.063L885.469 157L913.974 124.118L926.561 82.1658L993.195 124.118L1070.19 157L1159.04 230.323L1197.54 301Z" fill="#7D0AD7"/>
<path d="M585.244 301L462.711 211.425L409.033 243.551L371.644 301H462.711H585.244Z" fill="#3653D9"/>
<path fill-rule="evenodd" clip-rule="evenodd" d="M462.711 211.425L585.244 301H462.711L450.495 262.071L462.711 211.425Z" fill="#7D0AD7"/>
<path fill-rule="evenodd" clip-rule="evenodd" d="M1340.06 223.52L1393 301H1127.57L1120.91 257.535L1179.4 223.52L1189.77 198.953V162.669L1210.5 141.504L1255.29 112.402V91.2366L1264.54 65.5359L1280.46 79.5201L1293.05 127.52L1340.06 223.52Z" fill="#59C2FD"/>
<path fill-rule="evenodd" clip-rule="evenodd" d="M1127.57 301H1093.89L1084.26 278.701L1127.57 229.945V207.268L1059.83 229.945L991.713 301H947.291L985.42 263.582L1077.23 183.835L1120.91 162.669L1171.26 112.402L1189.77 120.717L1237.52 103.331L1241.96 85.1893L1250.85 70.621L1264.54 65.5359L1255.29 91.2366V112.402L1210.5 141.504L1189.77 162.669V198.953L1179.4 223.52L1120.91 257.535L1127.57 301Z" fill="#3653D9"/>
<path d="M1084.26 278.701L1093.89 301H991.713L1059.83 229.945L1127.57 207.268V229.945L1084.26 278.701Z" fill="#3653D9"/>
<path fill-rule="evenodd" clip-rule="evenodd" d="M1211.61 85.1893L1167.92 112.402L1120.91 162.669H1189.77L1255.29 112.402V91.2366L1264.54 65.5359L1211.61 85.1893Z" fill="#7D0AD7"/>
<path d="M1354.5 299.866L1308.23 224.399L1251.59 179.677L1201.61 224.399L1157.93 299.866H1241.96H1354.5Z" fill="#3653D9"/>
<path fill-rule="evenodd" clip-rule="evenodd" d="M1241.96 299.866H1157.93L1201.61 224.399L1251.59 179.677L1264.91 238.933L1241.96 299.866Z" fill="#7D0AD7"/>
</g>
</g>
<defs>
<filter id="filter0_d_423_2333" x="0" y="0.00163269" width="1397" height="308.998" filterUnits="userSpaceOnUse" color-interpolation-filters="sRGB">
<feFlood flood-opacity="0" result="BackgroundImageFix"/>
<feColorMatrix in="SourceAlpha" type="matrix" values="0 0 0 0 0 0 0 0 0 0 0 0 0 0 0 0 0 0 127 0" result="hardAlpha"/>
<feOffset dy="4"/>
<feGaussianBlur stdDeviation="2"/>
<feComposite in2="hardAlpha" operator="out"/>
<feColorMatrix type="matrix" values="0 0 0 0 0 0 0 0 0 0 0 0 0 0 0 0 0 0 0.25 0"/>
<feBlend mode="normal" in2="BackgroundImageFix" result="effect1_dropShadow_423_2333"/>
<feBlend mode="normal" in="SourceGraphic" in2="effect1_dropShadow_423_2333" result="shape"/>
</filter>
<filter id="filter1_d_423_2333" x="321" y="26.985" width="1076" height="282.015" filterUnits="userSpaceOnUse" color-interpolation-filters="sRGB">
<feFlood flood-opacity="0" result="BackgroundImageFix"/>
<feColorMatrix in="SourceAlpha" type="matrix" values="0 0 0 0 0 0 0 0 0 0 0 0 0 0 0 0 0 0 127 0" result="hardAlpha"/>
<feOffset dy="4"/>
<feGaussianBlur stdDeviation="2"/>
<feComposite in2="hardAlpha" operator="out"/>
<feColorMatrix type="matrix" values="0 0 0 0 0 0 0 0 0 0 0 0 0 0 0 0 0 0 0.25 0"/>
<feBlend mode="normal" in2="BackgroundImageFix" result="effect1_dropShadow_423_2333"/>
<feBlend mode="normal" in="SourceGraphic" in2="effect1_dropShadow_423_2333" result="shape"/>
</filter>
</defs>
</svg>
