<svg width="303" height="263" viewBox="0 0 303 263" fill="none" xmlns="http://www.w3.org/2000/svg">
<path d="M24.7719 173.383C11.1773 189.137 -10.9681 208.945 -17.2748 214.506C-18.2959 215.406 -18.5824 216.869 -17.9828 218.092L29.6739 315.234C30.0534 316.008 30.7472 316.581 31.5786 316.808L62.5411 325.244C65.0381 325.925 67.2225 323.313 66.1742 320.946C63.546 315.014 59.822 305.841 58.4257 298.65C55.808 285.17 52.4838 280.485 58.4257 268.103C67.4761 249.243 86.766 249.035 107.697 249.423C118.071 249.615 131.486 251.999 138.967 253.495C141.357 253.973 143.417 251.556 142.606 249.258C139.048 239.169 132.409 217.199 135.851 201.953C140.214 182.634 148.019 171.465 164.006 159.758C180.213 147.89 193.454 144.256 213.497 145.693C222.362 146.329 233.249 150.555 241.217 154.211C244.074 155.522 247.562 151.85 246.116 149.06C239.819 136.914 231.338 116.829 234.613 101.74C238.49 83.8729 247.196 75.0523 261.008 63.0608C271.554 53.9045 290.284 46.8337 299.528 43.7122C301.827 42.9359 302.393 39.8951 300.47 38.4155C295.386 34.5046 286.985 28.2553 280.365 24.382C249.083 6.07962 226.556 -1.10627 190.401 1.52631C162.226 3.57787 145.4 8.90649 121.774 24.382C94.8427 42.0228 86.1785 60.4704 68.9837 87.6746C48.6035 119.919 49.6962 144.502 24.7719 173.383Z" fill="#040000" stroke="#FFC25E"/>
</svg>
