<svg width="447" height="318" viewBox="0 0 447 318" fill="none" xmlns="http://www.w3.org/2000/svg">
<path d="M195.341 -30.0727C172.364 -46.2113 142.645 -73.5391 135.342 -80.3382C134.346 -81.2653 132.862 -81.4062 131.706 -80.6893L9.42988 -4.88196C8.69745 -4.42787 8.19566 -3.68074 8.05239 -2.83096L0.596113 41.3958C0.16588 43.9477 2.97107 45.8594 5.21188 44.5648C12.4714 40.3705 25.2534 33.4419 35.3179 30.4291C52.6696 25.2349 58.3846 20.2633 75.4123 26.4377C101.348 35.8423 104.14 61.1124 106.363 88.6117C107.536 103.126 105.898 122.486 104.914 131.995C104.663 134.419 107.262 136.219 109.459 135.166C121.303 129.491 150.935 116.692 172.344 119.332C198.27 122.529 213.949 131.305 231.402 150.741C249.095 170.445 255.593 187.335 256.324 213.807C256.685 226.899 251.484 243.891 247.454 254.969C246.38 257.922 250.277 260.966 252.879 259.204C267.392 249.375 294.991 233.255 316.77 235.756C340.727 238.506 353.441 248.771 370.984 265.317C385.052 278.587 397.28 303.996 402.159 314.979C403.144 317.196 406.217 317.463 407.507 315.408C411.85 308.494 419.736 295.538 424.278 285.648C444.216 242.232 450.707 211.752 442.532 164.681C436.161 128 426.97 106.63 403.573 77.6687C376.903 44.6556 351.559 35.7037 313.608 16.7086C268.626 -5.80537 236.503 -1.16031 195.341 -30.0727Z" fill="#040000" stroke="#FFC25E"/>
</svg>
